{"glyphs":{"0":{"ha":875,"x_min":91,"x_max":784,"o":"m 438 -23 q 182 111 273 -23 q 91 490 91 245 q 182 867 91 732 q 438 1002 274 1002 q 693 866 602 1002 q 784 488 784 730 q 693 111 784 244 q 438 -23 603 -23 m 272 189 q 301 136 272 189 q 438 83 330 83 q 604 188 547 83 q 661 490 661 293 q 603 789 661 684 q 438 895 545 895 q 272 789 331 895 q 214 490 214 684 q 272 189 214 294 z "},"1":{"ha":648,"x_min":83,"x_max":465,"o":"m 343 0 l 343 843 l 332 843 l 83 663 l 83 791 l 344 979 l 465 979 l 465 0 l 343 0 z "},"2":{"ha":839,"x_min":103,"x_max":743,"o":"m 103 703 q 192 918 103 833 q 416 1002 280 1002 q 637 923 548 1002 q 726 727 726 844 q 683 576 726 650 q 519 374 640 503 l 284 121 l 284 110 l 743 110 l 743 0 l 109 0 l 109 84 l 448 454 q 573 610 542 556 q 604 722 604 663 q 549 845 604 795 q 413 895 494 895 q 274 842 327 895 q 221 703 221 789 l 221 703 l 103 703 l 103 703 z "},"3":{"ha":871,"x_min":95,"x_max":784,"o":"m 309 451 l 309 555 l 428 555 q 565 604 511 555 q 618 729 618 653 q 566 849 618 804 q 430 895 515 895 q 293 851 345 895 q 233 728 241 806 l 115 728 q 210 928 124 855 q 435 1002 295 1002 q 590 967 519 1002 q 701 874 661 933 q 742 745 742 815 q 696 597 742 658 q 570 517 651 537 l 570 507 q 727 429 670 494 q 784 264 784 364 q 684 60 784 143 q 439 -23 585 -23 q 196 53 290 -23 q 95 255 102 130 l 213 255 q 282 130 221 177 q 438 83 343 83 q 596 135 534 83 q 659 267 659 186 q 598 401 659 352 q 433 451 538 451 l 309 451 z "},"4":{"ha":894,"x_min":79,"x_max":814,"o":"m 556 0 l 556 203 l 79 203 l 79 314 q 498 979 214 553 l 675 979 l 675 312 l 814 312 l 814 203 l 675 203 l 675 0 l 556 0 m 204 319 l 204 311 l 557 311 l 557 865 l 549 865 q 204 319 390 635 z "},"5":{"ha":859,"x_min":103,"x_max":774,"o":"m 432 -23 q 202 55 293 -23 q 103 260 111 134 l 223 260 q 289 133 231 181 q 433 84 347 84 q 592 146 532 84 q 652 308 652 208 q 592 471 652 408 q 435 534 532 534 q 316 505 369 534 q 233 424 263 476 l 119 424 l 172 979 l 718 979 l 718 869 l 268 869 l 240 555 l 251 555 q 458 639 322 639 q 686 547 597 639 q 774 311 774 456 q 679 70 774 162 q 432 -23 584 -23 z "},"6":{"ha":885,"x_min":87,"x_max":798,"o":"m 455 -22 q 262 35 345 -22 q 134 200 180 92 q 87 473 87 311 q 185 863 87 725 q 463 1002 283 1002 q 674 933 588 1002 q 784 746 761 864 l 659 746 q 586 854 639 814 q 462 893 534 893 q 276 790 342 893 q 205 492 210 687 l 216 492 q 321 603 252 563 q 477 642 389 642 q 707 550 616 642 q 798 315 798 457 q 702 72 798 167 q 455 -22 606 -22 m 296 151 q 328 118 296 151 q 454 85 359 85 q 611 150 548 85 q 675 311 675 214 q 613 474 675 411 q 455 536 552 536 q 295 474 358 536 q 233 315 233 412 q 296 151 233 216 z "},"7":{"ha":791,"x_min":66,"x_max":713,"o":"m 150 0 l 589 860 l 589 869 l 66 869 l 66 979 l 713 979 l 713 865 l 278 0 l 150 0 z "},"8":{"ha":887,"x_min":91,"x_max":796,"o":"m 697 57 q 648 17 697 57 q 444 -23 599 -23 q 190 57 288 -23 q 91 262 91 136 q 146 426 91 357 q 294 511 202 494 l 294 522 q 175 602 220 543 q 131 741 131 661 q 219 928 131 855 q 444 1002 307 1002 q 668 928 581 1002 q 756 741 756 855 q 712 602 756 660 q 593 522 669 543 l 593 511 q 741 426 685 494 q 796 262 796 357 q 697 57 796 136 m 278 134 q 310 108 278 134 q 444 81 342 81 q 609 134 545 81 q 673 271 673 186 q 609 407 673 355 q 444 460 545 460 q 278 407 342 460 q 214 271 214 355 q 278 134 214 186 m 304 609 q 330 586 304 609 q 444 563 357 563 q 583 609 530 563 q 636 729 636 654 q 583 851 636 805 q 444 897 530 897 q 304 851 357 897 q 251 729 251 805 q 304 609 251 654 z "},"9":{"ha":885,"x_min":87,"x_max":798,"o":"m 422 -22 q 211 46 297 -22 q 101 233 124 115 l 227 233 q 299 125 246 165 q 423 86 351 86 q 609 189 543 86 q 680 488 675 292 l 674 488 l 671 488 l 669 488 q 564 377 633 416 q 408 337 496 337 q 178 430 269 337 q 87 665 87 522 q 183 907 87 812 q 430 1002 279 1002 q 623 945 540 1002 q 751 779 705 888 q 798 507 798 668 q 700 116 798 254 q 422 -22 602 -22 m 272 506 q 302 474 272 506 q 430 443 333 443 q 590 505 527 443 q 652 665 652 568 q 589 829 652 763 q 431 895 526 895 q 274 830 337 895 q 210 669 210 765 q 272 506 210 568 z "}," ":{"ha":392,"x_min":0,"x_max":0,"o":""},"!":{"ha":432,"x_min":122,"x_max":310,"o":"m 148 979 l 283 979 l 272 326 l 159 326 l 148 979 m 284 14 q 271 1 284 14 q 216 -12 258 -12 q 149 14 175 -12 q 122 82 122 41 q 149 150 122 123 q 216 177 175 177 q 284 151 258 177 q 310 82 310 124 q 284 14 310 41 z "},"\"":{"ha":607,"x_min":121,"x_max":486,"o":"m 230 613 l 121 613 l 121 979 l 230 979 l 230 613 m 486 613 l 377 613 l 377 979 l 486 979 l 486 613 z "},"#":{"ha":879,"x_min":27,"x_max":862,"o":"m 450 0 l 505 273 l 283 273 l 227 0 l 131 0 l 186 273 l 27 273 l 46 371 l 207 371 l 256 618 l 89 618 l 109 715 l 276 715 l 331 979 l 427 979 l 374 715 l 595 715 l 650 979 l 747 979 l 693 715 l 862 715 l 843 618 l 673 618 l 622 371 l 799 371 l 780 273 l 602 273 l 547 0 l 450 0 m 302 369 l 526 369 l 576 619 l 353 619 l 302 369 z "},"$":{"ha":901,"x_min":102,"x_max":799,"o":"m 496 -93 l 406 -93 l 406 -2 q 185 82 268 8 q 102 268 102 155 l 218 268 q 273 157 223 200 q 406 103 322 113 l 406 456 l 351 471 q 184 565 242 500 q 125 724 125 630 q 201 906 125 834 q 406 990 276 977 l 406 1085 l 496 1085 l 496 991 q 700 908 623 980 q 781 725 778 836 l 666 725 q 617 833 664 789 q 496 886 571 877 l 496 554 l 555 540 q 740 443 680 507 q 799 277 799 378 q 720 83 799 156 q 496 -1 640 10 l 496 -93 m 682 267 q 637 376 682 335 q 496 437 592 417 l 496 101 q 633 149 585 106 q 682 267 682 193 m 242 730 q 284 630 242 670 q 406 574 326 591 l 406 886 q 288 838 334 882 q 242 730 242 794 z "},"%":{"ha":1092,"x_min":54,"x_max":1038,"o":"m 413 930 q 442 897 413 930 q 471 760 471 864 q 413 590 471 656 q 263 524 355 524 q 113 590 172 524 q 54 760 54 656 q 113 929 54 863 q 263 996 172 996 q 413 930 355 996 m 263 611 q 335 652 308 611 q 363 760 363 693 q 336 869 363 829 q 263 909 309 909 q 190 868 218 909 q 163 760 163 828 q 190 652 163 692 q 263 611 218 611 m 252 0 l 127 0 l 501 510 l 844 979 l 968 979 l 588 459 l 252 0 m 979 389 q 1008 356 979 389 q 1038 219 1038 323 q 979 49 1038 115 q 829 -17 921 -17 q 679 49 738 -17 q 621 219 621 115 q 679 388 621 322 q 829 454 738 454 q 979 389 921 454 m 829 70 q 902 111 874 70 q 929 219 929 152 q 902 328 929 288 q 829 368 876 368 q 756 327 784 368 q 729 219 729 287 q 756 111 729 151 q 829 70 784 70 z "},"&":{"ha":988,"x_min":78,"x_max":969,"o":"m 816 0 l 726 98 q 580 12 663 43 q 409 -18 498 -18 q 171 60 263 -18 q 78 261 78 138 q 272 534 78 432 q 283 540 276 536 q 298 547 290 543 q 310 553 307 551 q 215 676 243 624 q 187 783 187 729 q 258 939 187 877 q 437 1002 330 1002 q 616 940 545 1002 q 686 781 686 878 q 637 647 686 706 q 475 528 588 588 l 720 265 q 766 528 766 357 l 766 545 l 880 545 l 880 528 q 799 182 880 307 l 969 0 l 816 0 m 342 463 q 200 269 200 389 q 261 136 200 186 q 420 85 321 85 q 550 110 487 85 q 654 176 614 134 l 377 479 q 342 463 370 476 m 409 597 q 535 684 498 643 q 572 777 572 724 q 534 869 572 834 q 437 905 497 905 q 341 869 379 905 q 304 776 304 833 q 328 695 304 735 q 409 597 351 655 z "},"'":{"ha":351,"x_min":121,"x_max":230,"o":"m 230 613 l 121 613 l 121 979 l 230 979 l 230 613 z "},"(":{"ha":530,"x_min":164,"x_max":456,"o":"m 164 407 q 357 1021 164 766 l 456 1021 q 334 753 383 928 q 284 407 284 578 q 333 60 284 235 q 456 -208 382 -115 l 357 -208 q 164 407 164 47 z "},")":{"ha":530,"x_min":75,"x_max":366,"o":"m 366 407 q 174 -208 366 47 l 75 -208 q 197 60 148 -115 q 246 407 246 235 q 197 753 246 578 q 75 1021 147 928 l 174 1021 q 366 407 366 766 z "},"*":{"ha":700,"x_min":104,"x_max":596,"o":"m 551 553 l 385 660 l 396 464 l 304 464 l 315 661 l 149 553 l 104 631 l 280 720 l 104 810 l 149 890 l 315 779 l 304 979 l 396 979 l 385 779 l 551 890 l 596 810 l 420 720 l 596 631 l 551 553 z "},"+":{"ha":901,"x_min":105,"x_max":795,"o":"m 500 343 l 500 48 l 400 48 l 400 343 l 105 343 l 105 444 l 400 444 l 400 739 l 500 739 l 500 444 l 795 444 l 795 343 l 500 343 z "},",":{"ha":412,"x_min":96,"x_max":290,"o":"m 184 -249 l 96 -249 l 161 137 l 290 137 l 184 -249 z "},"-":{"ha":655,"x_min":105,"x_max":550,"o":"m 550 338 l 105 338 l 105 449 l 550 449 l 550 338 z "},".":{"ha":412,"x_min":118,"x_max":294,"o":"m 206 -7 q 144 19 170 -7 q 118 81 118 45 q 144 144 118 118 q 206 170 170 170 q 269 144 243 170 q 294 81 294 118 q 269 19 294 45 q 206 -7 243 -7 z "},"/":{"ha":463,"x_min":0,"x_max":463,"o":"m 103 -208 l 0 -208 l 359 1021 l 463 1021 l 103 -208 z "},":":{"ha":412,"x_min":118,"x_max":294,"o":"m 206 -7 q 144 19 170 -7 q 118 81 118 45 q 144 144 118 118 q 206 170 170 170 q 269 144 243 170 q 294 81 294 118 q 269 19 294 45 q 206 -7 243 -7 m 206 515 q 144 541 170 515 q 118 603 118 567 q 144 665 118 640 q 206 691 170 691 q 269 665 243 691 q 294 603 294 640 q 269 541 294 567 q 206 515 243 515 z "},";":{"ha":412,"x_min":79,"x_max":294,"o":"m 206 515 q 144 541 170 515 q 118 603 118 567 q 144 665 118 640 q 206 691 170 691 q 269 665 243 691 q 294 603 294 640 q 269 541 294 567 q 206 515 243 515 m 167 -249 l 79 -249 l 144 137 l 273 137 l 167 -249 z "},"<":{"ha":901,"x_min":152,"x_max":749,"o":"m 749 672 l 269 410 l 269 399 l 749 138 l 749 12 l 152 357 l 152 453 l 749 798 l 749 672 z "},"=":{"ha":901,"x_min":109,"x_max":792,"o":"m 792 212 l 109 212 l 109 313 l 792 313 l 792 212 m 792 475 l 109 475 l 109 576 l 792 576 l 792 475 z "},">":{"ha":901,"x_min":152,"x_max":749,"o":"m 152 672 l 152 798 l 749 453 l 749 357 l 152 12 l 152 138 l 632 399 l 632 410 l 152 672 z "},"?":{"ha":712,"x_min":54,"x_max":637,"o":"m 54 723 q 137 912 60 839 q 350 986 213 986 q 557 916 477 986 q 637 741 637 846 q 496 507 637 592 q 409 435 432 469 q 385 347 385 401 l 385 302 l 267 302 l 267 365 q 299 480 266 431 q 402 571 332 529 q 487 644 462 608 q 511 734 511 681 q 466 839 511 798 q 345 880 420 880 q 222 838 269 880 q 170 723 176 796 l 54 723 m 402 14 q 389 1 402 14 q 335 -12 376 -12 q 267 14 294 -12 q 241 82 241 41 q 267 150 241 123 q 335 177 294 177 q 402 151 376 177 q 429 82 429 124 q 402 14 429 41 z "},"@":{"ha":1275,"x_min":97,"x_max":1201,"o":"m 633 593 q 527 543 566 593 q 489 404 489 493 q 527 265 489 316 q 632 214 566 214 q 743 266 702 214 q 785 404 785 317 q 744 542 785 491 q 633 593 703 593 m 657 973 q 940 910 816 973 q 1132 733 1063 847 q 1201 474 1201 620 q 1132 210 1201 308 q 946 113 1063 113 q 845 144 886 113 q 797 227 803 176 l 786 227 q 720 147 764 175 q 616 119 676 119 q 446 198 511 119 q 380 407 380 277 q 446 609 380 530 q 616 687 512 687 q 713 661 670 687 q 775 591 755 635 l 786 591 l 786 674 l 888 674 l 888 276 q 908 220 888 240 q 965 201 928 201 q 1067 275 1029 201 q 1105 475 1105 350 q 1048 690 1105 597 q 887 836 991 784 q 648 888 783 888 q 413 826 517 888 q 251 653 309 764 q 193 404 193 543 q 322 57 193 186 q 670 -73 452 -73 q 803 -64 740 -73 q 897 -40 865 -55 l 897 -125 q 669 -159 801 -159 q 252 -5 406 -159 q 97 408 97 148 q 138 637 97 532 q 252 817 179 743 q 430 932 326 890 q 657 973 534 973 z "},"A":{"ha":936,"x_min":47,"x_max":889,"o":"m 761 0 l 663 280 l 273 280 l 175 0 l 47 0 l 408 979 l 528 979 l 889 0 l 761 0 m 463 821 l 309 384 l 627 384 l 473 821 l 463 821 z "},"B":{"ha":913,"x_min":125,"x_max":838,"o":"m 507 0 l 125 0 l 125 979 l 499 979 q 711 913 633 979 q 789 734 789 847 q 740 597 789 659 q 620 524 690 536 l 620 513 q 779 436 720 500 q 838 275 838 372 q 750 73 838 145 q 507 0 663 0 m 247 871 l 247 557 l 442 557 q 665 713 665 557 q 615 829 665 788 q 473 871 564 871 l 247 871 m 247 108 l 488 108 q 656 152 599 108 q 713 281 713 196 q 477 452 713 452 l 247 452 l 247 108 z "},"C":{"ha":994,"x_min":87,"x_max":914,"o":"m 519 -23 q 203 115 319 -23 q 87 489 87 252 q 203 864 87 726 q 518 1002 319 1002 q 783 913 673 1002 q 914 684 892 825 l 790 684 q 692 834 766 779 q 518 889 619 889 q 295 781 377 889 q 212 489 212 673 q 295 197 212 304 q 519 90 378 90 q 694 139 621 90 q 790 273 767 188 l 914 273 q 782 57 890 138 q 519 -23 675 -23 z "},"D":{"ha":1008,"x_min":125,"x_max":922,"o":"m 125 979 l 460 979 q 800 849 678 979 q 922 490 922 720 q 801 129 922 258 q 460 0 679 0 l 125 0 l 125 979 m 247 869 l 247 110 l 452 110 q 707 210 616 110 q 798 488 798 309 q 706 768 798 668 q 452 869 615 869 l 247 869 z "},"E":{"ha":827,"x_min":125,"x_max":731,"o":"m 731 110 l 731 0 l 125 0 l 125 979 l 731 979 l 731 869 l 247 869 l 247 555 l 706 555 l 706 446 l 247 446 l 247 110 l 731 110 z "},"F":{"ha":795,"x_min":125,"x_max":719,"o":"m 247 0 l 125 0 l 125 979 l 719 979 l 719 869 l 247 869 l 247 532 l 680 532 l 680 424 l 247 424 l 247 0 z "},"G":{"ha":1037,"x_min":87,"x_max":946,"o":"m 946 378 q 832 87 946 197 q 530 -23 718 -23 q 207 116 328 -23 q 87 490 87 255 q 208 862 87 722 q 530 1002 330 1002 q 803 917 693 1002 q 940 687 913 832 l 816 687 q 711 838 784 786 q 530 889 639 889 q 299 781 385 889 q 212 490 212 672 q 298 197 212 304 q 531 90 384 90 q 744 166 663 90 q 825 367 825 243 l 825 391 l 549 391 l 549 498 l 946 498 l 946 378 z "},"H":{"ha":1031,"x_min":125,"x_max":906,"o":"m 906 0 l 784 0 l 784 446 l 247 446 l 247 0 l 125 0 l 125 979 l 247 979 l 247 555 l 784 555 l 784 979 l 906 979 l 906 0 z "},"I":{"ha":372,"x_min":125,"x_max":247,"o":"m 247 0 l 125 0 l 125 979 l 247 979 l 247 0 z "},"J":{"ha":747,"x_min":58,"x_max":623,"o":"m 58 229 l 180 229 q 225 128 182 167 q 337 90 269 90 q 458 137 416 90 q 500 273 500 184 l 500 979 l 623 979 l 623 273 q 547 55 623 133 q 338 -23 471 -23 q 136 47 214 -23 q 58 229 58 117 z "},"K":{"ha":915,"x_min":125,"x_max":876,"o":"m 247 0 l 125 0 l 125 979 l 247 979 l 247 503 l 258 503 l 686 979 l 840 979 l 448 556 l 876 0 l 718 0 l 364 471 l 247 342 l 247 0 z "},"L":{"ha":789,"x_min":125,"x_max":719,"o":"m 719 110 l 719 0 l 125 0 l 125 979 l 247 979 l 247 110 l 719 110 z "},"M":{"ha":1214,"x_min":125,"x_max":1089,"o":"m 1089 0 l 975 0 l 975 747 l 967 747 l 659 7 l 555 7 l 247 747 l 239 747 l 239 0 l 125 0 l 125 979 l 267 979 l 602 169 l 612 169 l 947 979 l 1089 979 l 1089 0 z "},"N":{"ha":1031,"x_min":125,"x_max":906,"o":"m 245 0 l 125 0 l 125 979 l 243 979 l 774 217 l 785 217 l 785 979 l 906 979 l 906 0 l 787 0 l 256 759 l 245 759 l 245 0 z "},"O":{"ha":1071,"x_min":87,"x_max":984,"o":"m 536 1002 q 864 864 745 1002 q 984 490 984 726 q 864 115 984 254 q 536 -23 745 -23 q 207 115 327 -23 q 87 490 87 254 q 208 864 87 726 q 536 1002 329 1002 m 536 889 q 300 781 387 889 q 212 490 212 673 q 299 198 212 306 q 536 90 385 90 q 772 198 686 90 q 859 490 859 307 q 772 782 859 674 q 536 889 686 889 z "},"P":{"ha":882,"x_min":125,"x_max":808,"o":"m 125 979 l 494 979 q 721 890 633 979 q 808 662 808 802 q 719 437 808 525 q 493 349 631 349 l 247 349 l 247 0 l 125 0 l 125 979 m 247 870 l 247 458 l 463 458 q 625 511 567 458 q 682 662 682 565 q 626 817 682 763 q 463 870 569 870 l 247 870 z "},"Q":{"ha":1071,"x_min":87,"x_max":984,"o":"m 536 -23 q 207 114 328 -23 q 87 489 87 251 q 208 864 87 726 q 536 1002 329 1002 q 863 864 743 1002 q 984 489 984 726 q 939 233 984 343 q 810 62 894 122 l 935 -111 l 798 -111 l 711 7 q 536 -23 632 -23 m 537 90 q 642 104 592 90 l 512 280 l 650 280 l 739 162 q 828 293 797 208 q 859 489 859 377 q 772 781 859 673 q 536 889 685 889 q 299 781 387 889 q 212 489 212 673 q 299 197 212 304 q 537 90 387 90 z "},"R":{"ha":907,"x_min":125,"x_max":840,"o":"m 247 870 l 247 496 l 488 496 q 633 544 582 496 q 684 683 684 593 q 631 821 684 771 q 482 870 577 870 l 247 870 m 247 387 l 247 0 l 125 0 l 125 979 l 498 979 q 725 899 640 979 q 810 687 810 819 q 758 510 810 585 q 614 406 706 435 l 840 0 l 697 0 l 488 387 l 247 387 z "},"S":{"ha":885,"x_min":78,"x_max":807,"o":"m 78 256 l 201 256 q 281 134 213 179 q 453 88 349 88 q 617 136 552 88 q 682 256 682 184 q 634 360 682 319 q 486 427 587 401 l 360 459 q 167 555 227 492 q 106 723 106 618 q 202 925 106 848 q 452 1002 297 1002 q 690 926 594 1002 q 793 731 785 850 l 670 731 q 598 849 657 806 q 448 891 540 891 q 291 846 351 891 q 232 727 232 801 q 276 633 232 669 q 420 572 319 597 l 523 545 q 741 443 675 507 q 807 271 807 379 q 708 57 807 136 q 441 -23 609 -23 q 187 53 286 -23 q 78 256 87 129 z "},"T":{"ha":880,"x_min":64,"x_max":817,"o":"m 501 0 l 379 0 l 379 869 l 64 869 l 64 979 l 817 979 l 817 869 l 501 869 l 501 0 z "},"U":{"ha":1034,"x_min":128,"x_max":905,"o":"m 250 979 l 250 345 q 321 160 250 231 q 517 90 392 90 q 712 160 642 90 q 783 345 783 231 l 783 979 l 905 979 l 905 336 q 801 77 905 177 q 517 -23 696 -23 q 233 77 338 -23 q 128 336 128 177 l 128 979 l 250 979 z "},"V":{"ha":936,"x_min":47,"x_max":889,"o":"m 528 0 l 408 0 l 47 979 l 175 979 l 463 158 l 473 158 l 761 979 l 889 979 l 528 0 z "},"W":{"ha":1344,"x_min":61,"x_max":1283,"o":"m 668 772 l 443 0 l 328 0 l 61 979 l 189 979 l 383 183 l 391 183 l 610 979 l 734 979 l 953 183 l 961 183 l 1156 979 l 1283 979 l 1017 0 l 901 0 l 676 772 l 668 772 z "},"X":{"ha":943,"x_min":61,"x_max":882,"o":"m 61 0 l 396 492 l 65 979 l 212 979 l 470 589 l 481 589 l 743 979 l 882 979 l 543 487 l 874 0 l 728 0 l 471 386 l 460 386 l 199 0 l 61 0 z "},"Y":{"ha":911,"x_min":47,"x_max":864,"o":"m 517 0 l 395 0 l 395 421 l 47 979 l 186 979 l 450 544 l 461 544 l 725 979 l 864 979 l 517 421 l 517 0 z "},"Z":{"ha":919,"x_min":98,"x_max":821,"o":"m 98 0 l 98 87 l 652 858 l 652 869 l 117 869 l 117 979 l 810 979 l 810 892 l 258 121 l 258 110 l 821 110 l 821 0 l 98 0 z "},"[":{"ha":530,"x_min":182,"x_max":476,"o":"m 182 1021 l 476 1021 l 476 929 l 296 929 l 296 -116 l 476 -116 l 476 -208 l 182 -208 l 182 1021 z "},"\\":{"ha":463,"x_min":0,"x_max":463,"o":"m 359 -208 l 0 1021 l 103 1021 l 463 -208 l 359 -208 z "},"]":{"ha":530,"x_min":54,"x_max":349,"o":"m 349 1021 l 349 -208 l 54 -208 l 54 -116 l 235 -116 l 235 929 l 54 929 l 54 1021 l 349 1021 z "},"^":{"ha":667,"x_min":68,"x_max":599,"o":"m 328 868 l 179 529 l 68 529 l 269 962 l 398 962 l 599 529 l 488 529 l 339 868 l 328 868 z "},"_":{"ha":621,"x_min":-7,"x_max":628,"o":"m 628 -159 l -7 -159 l -7 -73 l 628 -73 l 628 -159 z "},"`":{"ha":741,"x_min":210,"x_max":530,"o":"m 530 857 l 399 857 l 210 1086 l 359 1086 l 530 857 z "},"a":{"ha":766,"x_min":66,"x_max":661,"o":"m 335 90 q 485 142 425 90 q 544 273 544 194 l 544 340 l 347 327 q 226 292 264 321 q 187 208 187 263 q 229 121 187 153 q 335 90 270 90 m 313 -13 q 136 46 205 -13 q 66 205 66 106 q 136 358 66 302 q 333 421 205 414 l 544 434 l 544 500 q 502 604 544 568 q 378 640 460 640 q 269 616 313 640 q 214 549 226 593 l 96 549 q 186 690 107 637 q 382 744 265 744 q 588 680 515 744 q 661 500 661 615 l 661 0 l 549 0 l 549 108 l 538 108 q 445 18 503 50 q 313 -13 387 -13 z "},"b":{"ha":853,"x_min":117,"x_max":780,"o":"m 473 -13 q 335 21 397 -13 q 239 117 273 56 l 228 117 l 228 0 l 117 0 l 117 1021 l 233 1021 l 233 616 l 244 616 q 336 709 274 675 q 473 744 398 744 q 696 641 613 744 q 780 366 780 538 q 696 91 780 194 q 473 -13 612 -13 m 446 639 q 289 566 347 639 q 231 366 231 492 q 289 165 231 239 q 446 92 347 92 q 603 165 547 92 q 659 366 659 237 q 603 566 659 494 q 446 639 547 639 z "},"c":{"ha":777,"x_min":73,"x_max":715,"o":"m 715 507 l 597 507 q 533 602 582 565 q 408 639 484 639 q 252 566 310 639 q 194 368 194 492 q 252 167 194 242 q 408 92 311 92 q 531 125 482 92 q 597 220 581 159 l 715 220 q 618 52 699 117 q 409 -13 537 -13 q 164 91 255 -13 q 73 368 73 194 q 164 642 73 539 q 408 744 255 744 q 617 677 536 744 q 715 507 699 610 z "},"d":{"ha":853,"x_min":73,"x_max":736,"o":"m 380 -13 q 157 90 240 -13 q 73 366 73 193 q 157 641 73 537 q 380 744 241 744 q 518 710 457 744 q 610 616 578 675 l 620 616 l 620 1021 l 736 1021 l 736 0 l 625 0 l 625 117 l 614 117 q 518 21 580 56 q 380 -13 456 -13 m 408 639 q 251 566 308 639 q 194 366 194 493 q 251 165 194 237 q 408 92 307 92 q 565 165 507 92 q 623 366 623 239 q 565 565 623 491 q 408 639 507 639 z "},"e":{"ha":793,"x_min":73,"x_max":720,"o":"m 401 641 q 258 582 314 641 q 195 426 201 523 l 597 426 q 542 582 595 523 q 401 641 488 641 m 594 189 l 711 189 q 603 41 684 94 q 403 -13 522 -13 q 162 89 251 -13 q 73 365 73 191 q 163 641 73 538 q 403 744 252 744 q 635 646 551 744 q 720 376 720 547 l 720 332 l 195 332 l 195 326 q 256 154 199 218 q 406 90 313 90 q 594 189 547 90 z "},"f":{"ha":503,"x_min":37,"x_max":450,"o":"m 159 0 l 159 633 l 37 633 l 37 731 l 159 731 l 159 812 q 371 1028 159 1028 q 450 1021 415 1028 l 450 926 q 395 930 432 930 q 304 900 332 930 q 275 809 275 870 l 275 731 l 443 731 l 443 633 l 275 633 l 275 0 l 159 0 z "},"g":{"ha":846,"x_min":73,"x_max":736,"o":"m 406 114 q 565 185 507 114 q 623 376 623 256 q 564 568 623 496 q 406 639 506 639 q 250 568 305 639 q 194 376 194 498 q 250 184 194 255 q 406 114 305 114 m 411 -281 q 199 -227 280 -281 q 104 -81 118 -172 l 228 -81 q 286 -153 237 -126 q 411 -179 334 -179 q 565 -133 509 -179 q 620 -7 620 -87 l 620 137 l 609 137 q 515 44 574 77 q 380 11 455 11 q 156 111 239 11 q 73 376 73 211 q 157 643 73 542 q 380 744 240 744 q 519 709 456 744 q 614 615 583 674 l 625 615 l 625 731 l 736 731 l 736 -13 q 648 -208 736 -136 q 411 -281 560 -281 z "},"h":{"ha":825,"x_min":117,"x_max":722,"o":"m 117 0 l 117 1021 l 233 1021 l 233 616 l 244 616 q 329 711 272 677 q 469 744 387 744 q 654 672 586 744 q 722 473 722 601 l 722 0 l 605 0 l 605 445 q 436 639 605 639 q 287 583 340 639 q 233 433 233 527 l 233 0 l 117 0 z "},"i":{"ha":342,"x_min":90,"x_max":252,"o":"m 113 0 l 113 731 l 229 731 l 229 0 l 113 0 m 229 904 q 217 892 229 904 q 171 880 205 880 q 113 904 137 880 q 90 961 90 928 q 113 1018 90 994 q 171 1042 137 1042 q 229 1018 205 1042 q 252 961 252 994 q 229 904 252 928 z "},"j":{"ha":342,"x_min":-15,"x_max":252,"o":"m 229 731 l 229 -36 q 175 -200 229 -149 q 5 -251 121 -251 l -15 -251 l -15 -151 l 3 -151 q 88 -125 64 -151 q 113 -38 113 -100 l 113 731 l 229 731 m 229 904 q 217 892 229 904 q 171 880 205 880 q 113 904 137 880 q 90 961 90 928 q 113 1018 90 994 q 171 1042 137 1042 q 229 1018 205 1042 q 252 961 252 994 q 229 904 252 928 z "},"k":{"ha":754,"x_min":117,"x_max":726,"o":"m 244 412 l 562 731 l 705 731 l 390 418 l 726 0 l 577 0 l 303 342 l 233 277 l 233 0 l 117 0 l 117 1021 l 233 1021 l 233 412 l 244 412 z "},"l":{"ha":350,"x_min":117,"x_max":233,"o":"m 117 0 l 117 1021 l 233 1021 l 233 0 l 117 0 z "},"m":{"ha":1208,"x_min":110,"x_max":1105,"o":"m 110 0 l 110 731 l 221 731 l 221 616 l 232 616 q 310 710 257 677 q 436 744 363 744 q 560 709 508 744 q 638 616 612 675 l 649 616 q 739 709 679 675 q 873 744 798 744 q 1045 682 985 744 q 1105 505 1105 620 l 1105 0 l 989 0 l 989 478 q 835 639 989 639 q 713 590 760 639 q 665 470 665 541 l 665 0 l 549 0 l 549 496 q 507 600 549 562 q 396 639 465 639 q 276 585 325 639 q 227 453 227 530 l 227 0 l 110 0 z "},"n":{"ha":810,"x_min":110,"x_max":707,"o":"m 110 0 l 110 731 l 221 731 l 221 616 l 232 616 q 452 744 290 744 q 641 674 574 744 q 707 473 707 604 l 707 0 l 591 0 l 591 445 q 548 591 591 543 q 418 639 506 639 q 278 584 330 639 q 227 433 227 528 l 227 0 l 110 0 z "},"o":{"ha":821,"x_min":73,"x_max":747,"o":"m 657 89 q 612 38 657 89 q 410 -13 566 -13 q 164 89 254 -13 q 73 366 73 190 q 163 643 73 542 q 410 744 254 744 q 657 643 567 744 q 747 366 747 542 q 657 89 747 190 m 250 164 q 278 128 250 164 q 410 92 307 92 q 570 164 514 92 q 627 366 627 235 q 570 567 627 496 q 410 639 514 639 q 250 567 307 639 q 194 366 194 496 q 250 164 194 235 z "},"p":{"ha":846,"x_min":110,"x_max":773,"o":"m 466 744 q 689 641 606 744 q 773 366 773 538 q 689 91 773 194 q 466 -13 605 -13 q 328 19 388 -13 q 237 110 267 52 l 227 110 l 227 -244 l 110 -244 l 110 731 l 221 731 l 221 609 l 232 609 q 329 708 267 672 q 466 744 391 744 m 438 92 q 595 165 538 92 q 652 366 652 237 q 596 566 652 494 q 439 639 539 639 q 281 565 340 639 q 223 366 223 492 q 281 166 223 240 q 438 92 339 92 z "},"q":{"ha":846,"x_min":73,"x_max":736,"o":"m 379 744 q 517 707 454 744 q 613 609 581 671 l 624 609 l 624 731 l 736 731 l 736 -244 l 618 -244 l 618 110 l 608 110 q 379 -13 536 -13 q 156 90 239 -13 q 73 366 73 193 q 157 641 73 537 q 379 744 240 744 m 406 92 q 564 166 506 92 q 622 366 622 239 q 564 565 622 491 q 406 639 505 639 q 250 566 307 639 q 194 366 194 494 q 250 164 194 237 q 406 92 306 92 z "},"r":{"ha":529,"x_min":110,"x_max":493,"o":"m 110 0 l 110 731 l 221 731 l 221 623 l 232 623 q 305 710 248 676 q 435 744 362 744 q 493 741 468 744 l 493 624 q 418 631 469 631 q 281 581 335 631 q 227 453 227 530 l 227 0 l 110 0 z "},"s":{"ha":727,"x_min":73,"x_max":654,"o":"m 93 531 q 171 683 93 622 q 366 744 249 744 q 555 691 480 744 q 641 548 629 638 l 526 548 q 472 619 513 593 q 365 645 430 645 q 255 614 299 645 q 210 536 210 584 q 241 474 210 498 q 337 433 272 449 l 450 406 q 604 334 554 381 q 654 208 654 286 q 570 49 654 111 q 361 -13 487 -13 q 161 41 239 -13 q 73 186 83 96 l 193 186 q 252 112 208 139 q 365 85 296 85 q 486 117 439 85 q 534 199 534 149 q 418 302 534 274 l 292 333 q 141 405 189 358 q 93 531 93 452 z "},"t":{"ha":505,"x_min":41,"x_max":438,"o":"m 159 920 l 275 920 l 275 731 l 438 731 l 438 633 l 275 633 l 275 220 q 301 126 275 155 q 384 97 327 97 q 438 100 409 97 l 438 1 q 370 -5 399 -5 q 208 40 256 -5 q 159 190 159 85 l 159 633 l 41 633 l 41 731 l 159 731 l 159 920 z "},"u":{"ha":811,"x_min":103,"x_max":701,"o":"m 701 731 l 701 0 l 590 0 l 590 115 l 579 115 q 494 20 551 53 q 353 -13 436 -13 q 167 57 231 -13 q 103 258 103 127 l 103 731 l 220 731 l 220 286 q 259 140 220 186 q 385 94 298 94 q 533 148 481 94 q 585 298 585 201 l 585 731 l 701 731 z "},"v":{"ha":753,"x_min":46,"x_max":707,"o":"m 707 731 l 436 0 l 317 0 l 46 731 l 171 731 l 371 129 l 382 129 l 582 731 l 707 731 z "},"w":{"ha":1076,"x_min":46,"x_max":1029,"o":"m 1029 731 l 825 0 l 706 0 l 543 566 l 532 566 l 369 0 l 251 0 l 46 731 l 164 731 l 308 146 l 319 146 l 482 731 l 594 731 l 758 146 l 768 146 l 912 731 l 1029 731 z "},"x":{"ha":730,"x_min":50,"x_max":680,"o":"m 369 276 l 358 276 l 184 0 l 52 0 l 302 366 l 50 731 l 189 731 l 362 459 l 373 459 l 545 731 l 677 731 l 429 370 l 680 0 l 542 0 l 369 276 z "},"y":{"ha":754,"x_min":46,"x_max":708,"o":"m 172 -264 q 120 -260 144 -264 l 120 -161 q 169 -164 138 -164 q 250 -137 220 -164 q 303 -44 280 -110 l 317 -1 l 46 731 l 172 731 l 373 130 l 384 130 l 584 731 l 708 731 l 422 -45 q 323 -218 376 -172 q 172 -264 270 -264 z "},"z":{"ha":749,"x_min":93,"x_max":656,"o":"m 93 0 l 93 85 l 515 623 l 515 633 l 94 633 l 94 731 l 654 731 l 654 644 l 234 109 l 234 98 l 656 98 l 656 0 l 93 0 z "},"{":{"ha":530,"x_min":54,"x_max":476,"o":"m 166 399 q 315 240 315 384 l 315 40 q 346 -77 315 -41 q 449 -113 377 -113 l 476 -113 l 476 -208 l 439 -208 q 261 -151 319 -208 q 203 25 203 -94 l 203 198 q 171 311 203 279 q 54 342 138 342 l 54 471 q 171 503 138 471 q 203 616 203 534 l 203 788 q 261 964 203 907 q 439 1021 319 1021 l 476 1021 l 476 926 l 449 926 q 346 890 377 926 q 315 773 315 854 l 315 574 q 166 415 315 430 l 166 399 z "},"|":{"ha":463,"x_min":182,"x_max":281,"o":"m 281 -208 l 182 -208 l 182 1021 l 281 1021 l 281 -208 z "},"}":{"ha":530,"x_min":54,"x_max":476,"o":"m 364 399 l 364 415 q 216 574 216 430 l 216 773 q 184 890 216 854 q 81 926 153 926 l 54 926 l 54 1021 l 92 1021 q 269 964 212 1021 q 327 788 327 907 l 327 616 q 359 503 327 534 q 476 471 392 471 l 476 342 q 359 311 392 342 q 327 198 327 279 l 327 25 q 269 -151 327 -94 q 92 -208 212 -208 l 54 -208 l 54 -113 l 81 -113 q 184 -77 153 -113 q 216 40 216 -41 l 216 240 q 364 399 216 384 z "},"~":{"ha":815,"x_min":64,"x_max":751,"o":"m 378 431 q 316 485 340 469 q 269 500 292 500 q 174 378 181 500 l 65 378 q 119 550 64 488 q 272 612 173 612 q 355 591 315 612 q 439 527 395 571 q 498 474 474 490 q 546 459 523 459 q 642 581 635 459 l 750 581 q 697 409 751 471 q 547 347 644 347 q 462 367 502 347 q 378 431 422 387 z "}," ":{"ha":392,"x_min":0,"x_max":0,"o":""},"¡":{"ha":432,"x_min":122,"x_max":310,"o":"m 148 -232 l 159 422 l 272 422 l 283 -232 l 148 -232 m 284 597 q 271 584 284 597 q 216 570 258 570 q 149 597 175 570 q 122 665 122 624 q 149 733 122 707 q 216 760 175 760 q 284 733 258 760 q 310 665 310 707 q 284 597 310 623 z "},"¢":{"ha":901,"x_min":109,"x_max":791,"o":"m 791 345 q 704 189 777 250 q 521 115 631 127 l 521 0 l 404 0 l 404 116 q 191 237 272 136 q 109 492 109 338 q 191 743 109 644 q 404 863 272 843 l 404 979 l 521 979 l 521 864 q 703 787 629 850 q 791 631 777 724 l 673 631 q 597 728 652 693 q 465 762 543 762 q 297 688 363 762 q 230 492 230 613 q 297 292 230 368 q 465 216 364 216 q 604 250 550 216 q 673 345 657 283 l 791 345 z "},"£":{"ha":901,"x_min":87,"x_max":807,"o":"m 274 104 l 807 104 l 807 0 l 87 0 l 87 103 q 236 191 177 123 q 296 340 296 258 q 279 443 296 385 l 87 443 l 87 541 l 245 541 q 204 719 204 656 q 297 927 204 852 q 555 1002 391 1002 q 758 966 682 1002 l 758 857 q 676 883 732 872 q 561 894 619 894 q 390 848 452 894 q 329 722 329 802 q 370 541 329 656 l 689 541 l 689 443 l 401 443 q 416 345 416 386 q 376 205 416 265 q 274 114 336 146 l 274 104 z "},"¤":{"ha":901,"x_min":116,"x_max":785,"o":"m 325 571 q 298 545 325 571 q 272 445 272 519 q 325 318 272 371 q 451 266 377 266 q 577 318 525 266 q 630 445 630 371 q 577 571 630 519 q 451 624 525 624 q 325 571 377 624 m 785 707 l 671 593 q 716 445 716 526 q 670 296 716 363 l 785 182 l 713 110 l 598 224 q 451 180 532 180 q 302 225 370 180 l 188 110 l 116 182 l 231 297 q 186 445 186 365 q 231 592 186 525 l 116 707 l 188 779 l 302 665 q 451 710 370 710 q 599 665 532 710 l 713 779 l 785 707 z "},"¥":{"ha":901,"x_min":42,"x_max":859,"o":"m 699 182 l 511 182 l 511 0 l 389 0 l 389 182 l 201 182 l 201 275 l 389 275 l 389 387 l 201 387 l 201 479 l 353 479 l 42 979 l 181 979 l 445 544 l 456 544 l 720 979 l 859 979 l 548 479 l 699 479 l 699 387 l 511 387 l 511 275 l 699 275 l 699 182 z "},"¦":{"ha":463,"x_min":182,"x_max":281,"o":"m 281 530 l 182 530 l 182 1021 l 281 1021 l 281 530 m 281 -208 l 182 -208 l 182 283 l 281 283 l 281 -208 z "},"§":{"ha":700,"x_min":70,"x_max":630,"o":"m 306 271 l 362 259 q 467 296 425 259 q 510 389 510 334 q 480 460 510 431 q 395 502 450 490 l 338 514 q 233 476 277 514 q 190 385 190 438 q 220 313 190 342 q 306 271 250 283 m 353 -174 q 160 -118 237 -174 q 76 28 83 -62 l 195 28 q 248 -47 202 -18 q 359 -75 293 -75 q 472 -45 429 -75 q 515 32 515 -16 q 483 96 515 70 q 380 140 451 121 l 285 166 q 122 243 174 196 q 70 361 70 290 q 110 473 70 426 q 221 539 149 519 l 221 550 q 73 735 73 608 q 148 889 73 830 q 345 947 223 947 q 530 895 458 947 q 614 751 603 842 l 497 751 q 448 822 490 795 q 342 848 406 848 q 232 819 273 848 q 190 742 190 789 q 221 677 190 703 q 322 633 252 652 l 418 607 q 579 532 528 578 q 630 417 630 486 q 582 294 630 347 q 458 225 534 240 l 458 214 q 630 40 630 176 q 552 -114 630 -54 q 353 -174 475 -174 z "},"¨":{"ha":741,"x_min":151,"x_max":589,"o":"m 291 881 q 279 869 291 881 q 233 857 267 857 q 175 881 199 857 q 151 939 151 905 q 175 997 151 972 q 233 1021 199 1021 q 291 997 267 1021 q 315 939 315 972 q 291 881 315 905 m 565 881 q 553 869 565 881 q 507 857 541 857 q 449 881 473 857 q 425 939 425 905 q 449 997 425 972 q 507 1021 473 1021 q 565 997 541 1021 q 589 939 589 972 q 565 881 589 905 z "},"©":{"ha":1181,"x_min":53,"x_max":1128,"o":"m 591 -114 q 379 -72 479 -114 q 208 41 279 -31 q 95 212 136 113 q 53 425 53 312 q 123 699 53 575 q 317 892 194 822 q 591 963 441 963 q 803 922 703 963 q 975 809 903 880 q 1087 637 1046 737 q 1128 425 1128 537 q 1058 151 1128 274 q 864 -43 987 27 q 591 -114 741 -114 m 591 -19 q 766 15 684 -19 q 906 108 848 50 q 999 249 965 167 q 1033 425 1033 332 q 975 650 1033 549 q 816 810 918 752 q 591 868 715 868 q 416 834 498 868 q 275 741 334 800 q 182 600 216 682 q 149 425 149 517 q 183 250 149 332 q 276 109 217 168 q 416 15 334 50 q 591 -19 498 -19 m 847 521 l 753 521 q 700 598 741 569 q 602 627 659 627 q 477 572 524 627 q 431 426 431 518 q 477 277 431 332 q 602 222 524 222 q 701 249 662 222 q 753 325 741 276 l 847 325 q 768 189 834 239 q 603 138 702 138 q 407 216 480 138 q 334 426 334 294 q 407 633 334 556 q 602 711 479 711 q 766 659 699 711 q 847 521 833 606 z "},"ª":{"ha":639,"x_min":62,"x_max":568,"o":"m 297 442 q 413 485 367 442 q 460 589 460 527 l 460 654 l 306 643 q 209 613 242 639 q 176 543 176 588 q 209 470 176 497 q 297 442 242 442 m 264 349 q 118 401 174 349 q 62 538 62 454 q 121 670 62 622 q 292 725 180 718 l 458 735 l 458 789 q 422 868 458 840 q 323 896 387 896 q 238 876 272 896 q 197 821 204 856 l 85 821 q 159 946 93 899 q 327 992 224 992 q 504 937 440 992 q 568 785 568 882 l 568 366 l 463 366 l 463 447 l 452 447 q 376 375 425 400 q 264 349 327 349 z "},"«":{"ha":943,"x_min":121,"x_max":822,"o":"m 259 389 l 259 378 l 497 98 l 359 98 l 121 380 l 121 386 l 359 668 l 497 668 l 259 389 m 584 389 l 584 378 l 822 98 l 683 98 l 446 380 l 446 386 l 684 668 l 822 668 l 584 389 z "},"¬":{"ha":901,"x_min":129,"x_max":772,"o":"m 772 444 l 772 85 l 671 85 l 671 343 l 129 343 l 129 444 l 772 444 z "},"®":{"ha":854,"x_min":73,"x_max":781,"o":"m 427 304 q 176 408 279 304 q 73 659 73 511 q 120 838 73 756 q 249 966 168 919 q 427 1013 330 1013 q 566 985 500 1013 q 679 910 631 957 q 753 797 726 863 q 781 659 781 732 q 734 480 781 562 q 606 352 688 399 q 427 304 525 304 m 226 457 q 267 416 226 457 q 427 375 309 375 q 628 457 546 375 q 711 659 711 540 q 629 860 711 777 q 427 942 547 942 q 226 860 309 942 q 144 659 144 777 q 226 457 144 540 m 357 497 l 291 497 l 291 836 l 460 836 q 544 806 511 836 q 578 732 578 777 q 499 630 578 649 l 593 497 l 511 497 l 424 621 l 357 621 l 357 497 m 357 775 l 357 678 l 441 678 q 504 728 504 678 q 444 775 504 775 l 357 775 z "},"¯":{"ha":711,"x_min":127,"x_max":584,"o":"m 584 964 l 584 872 l 127 872 l 127 964 l 584 964 z "},"°":{"ha":611,"x_min":85,"x_max":526,"o":"m 463 615 q 431 583 463 615 q 305 551 400 551 q 148 615 210 551 q 85 772 85 679 q 148 928 85 865 q 305 992 210 992 q 463 928 400 992 q 526 772 526 864 q 463 615 526 680 m 305 638 q 403 677 366 638 q 440 772 440 715 q 402 867 440 829 q 305 905 365 905 q 209 867 245 905 q 172 772 172 829 q 209 677 172 715 q 305 638 245 638 z "},"±":{"ha":901,"x_min":105,"x_max":795,"o":"m 795 76 l 105 76 l 105 176 l 795 176 l 795 76 m 500 449 l 500 252 l 400 252 l 400 449 l 105 449 l 105 541 l 400 541 l 400 739 l 500 739 l 500 541 l 795 541 l 795 449 l 500 449 z "},"²":{"ha":559,"x_min":64,"x_max":495,"o":"m 64 1044 q 124 1183 64 1129 q 277 1238 183 1238 q 428 1188 369 1238 q 486 1061 486 1139 q 457 966 486 1014 q 349 839 429 919 l 223 713 l 223 702 l 495 702 l 495 610 l 70 610 l 70 685 l 274 895 q 357 990 336 958 q 378 1055 378 1022 q 349 1123 378 1096 q 274 1149 319 1149 q 197 1120 227 1149 q 168 1044 168 1091 l 168 1042 l 64 1042 l 64 1044 z "},"³":{"ha":578,"x_min":61,"x_max":521,"o":"m 211 882 l 211 964 l 285 964 q 361 990 332 964 q 390 1058 390 1017 q 361 1124 390 1099 q 285 1148 333 1148 q 209 1123 238 1148 q 176 1054 179 1097 l 73 1054 q 135 1187 77 1138 q 288 1236 193 1236 q 437 1190 378 1236 q 496 1073 496 1143 q 466 982 496 1021 q 384 933 435 944 l 384 922 q 484 878 446 918 q 521 777 521 838 q 455 646 521 698 q 289 593 389 593 q 127 644 190 593 q 61 778 64 694 l 167 778 q 203 710 170 735 q 290 684 237 684 q 375 712 342 684 q 408 783 408 739 q 376 855 408 829 q 287 882 343 882 l 211 882 z "},"´":{"ha":741,"x_min":194,"x_max":514,"o":"m 326 857 l 194 857 l 365 1086 l 514 1086 l 326 857 z "},"µ":{"ha":853,"x_min":110,"x_max":802,"o":"m 110 -244 l 110 731 l 227 731 l 227 288 q 392 94 227 94 q 532 149 480 94 q 585 298 585 203 l 585 731 l 701 731 l 701 182 q 716 114 701 133 q 769 96 731 96 q 802 98 786 96 l 802 0 q 747 -7 777 -7 q 637 19 671 -7 q 591 107 602 44 l 590 115 l 579 115 q 504 19 550 50 q 387 -13 458 -13 q 237 75 278 -13 l 227 75 l 227 -244 l 110 -244 z "},"¶":{"ha":896,"x_min":109,"x_max":787,"o":"m 566 -149 l 444 -149 l 444 390 l 430 390 q 201 472 293 390 q 109 680 109 555 q 201 894 109 809 q 431 979 294 979 l 566 979 l 566 -149 m 665 -149 l 665 979 l 787 979 l 787 -149 l 665 -149 z "},"·":{"ha":427,"x_min":123,"x_max":304,"o":"m 214 410 q 150 437 177 410 q 123 500 123 464 q 150 564 123 538 q 214 591 177 591 q 277 564 251 591 q 304 500 304 538 q 277 437 304 464 q 214 410 251 410 z "},"¸":{"ha":741,"x_min":245,"x_max":509,"o":"m 267 -159 l 267 -102 l 315 15 l 398 15 l 398 0 l 363 -90 q 471 -119 433 -90 q 509 -200 509 -148 q 465 -293 509 -258 q 344 -328 420 -328 q 245 -316 286 -328 l 245 -243 q 328 -252 277 -252 q 408 -203 408 -252 q 385 -169 408 -179 q 307 -159 361 -159 l 267 -159 z "},"¹":{"ha":450,"x_min":58,"x_max":323,"o":"m 218 610 l 218 1114 l 207 1114 q 128 1058 197 1107 q 58 1006 59 1008 l 58 1109 q 218 1223 117 1154 l 323 1223 l 323 610 l 218 610 z "},"º":{"ha":694,"x_min":60,"x_max":635,"o":"m 558 435 q 519 392 558 435 q 347 349 481 349 q 137 435 214 349 q 60 671 60 521 q 137 906 60 820 q 347 992 214 992 q 558 906 481 992 q 635 671 635 821 q 558 435 635 521 m 222 506 q 244 476 222 506 q 347 447 267 447 q 473 506 428 447 q 517 671 517 564 q 473 836 517 778 q 347 895 429 895 q 222 836 267 895 q 178 671 178 777 q 222 506 178 564 z "},"»":{"ha":943,"x_min":121,"x_max":822,"o":"m 359 389 l 121 668 l 260 668 l 498 386 l 498 380 l 260 98 l 121 98 l 359 378 l 359 389 m 684 389 l 446 668 l 585 668 l 822 386 l 822 380 l 585 98 l 446 98 l 684 378 l 684 389 z "},"¼":{"ha":1318,"x_min":58,"x_max":1264,"o":"m 218 366 l 218 869 l 207 869 q 128 813 197 863 q 58 762 59 764 l 58 865 q 218 979 117 909 l 323 979 l 323 366 l 218 366 m 455 0 l 342 0 l 569 514 l 774 979 l 887 979 l 671 490 l 455 0 m 1076 0 l 1076 115 l 770 115 l 770 211 q 1026 612 822 307 l 1182 612 l 1182 205 l 1264 205 l 1264 115 l 1182 115 l 1182 0 l 1076 0 m 871 208 l 871 203 l 1078 203 l 1078 526 l 1074 526 q 871 208 936 323 z "},"½":{"ha":1322,"x_min":58,"x_max":1257,"o":"m 218 366 l 218 869 l 207 869 q 128 813 197 863 q 58 762 59 764 l 58 865 q 218 979 117 909 l 323 979 l 323 366 l 218 366 m 455 0 l 342 0 l 569 514 l 774 979 l 887 979 l 671 490 l 455 0 m 827 433 q 886 573 827 519 q 1040 627 945 627 q 1190 578 1131 627 q 1249 451 1249 528 q 1220 356 1249 404 q 1111 229 1191 309 l 985 102 l 985 92 l 1257 92 l 1257 0 l 832 0 l 832 75 l 1036 285 q 1119 379 1098 347 q 1140 445 1140 412 q 1111 512 1140 486 q 1036 539 1082 539 q 959 510 989 539 q 930 433 930 481 l 930 432 l 827 432 l 827 433 z "},"¾":{"ha":1447,"x_min":61,"x_max":1393,"o":"m 211 637 l 211 720 l 285 720 q 361 746 332 720 q 390 814 390 772 q 361 880 390 855 q 285 904 333 904 q 209 879 238 904 q 176 810 179 853 l 73 810 q 135 943 77 894 q 288 992 193 992 q 437 946 378 992 q 496 829 496 899 q 466 738 496 777 q 384 689 435 700 l 384 678 q 484 633 446 673 q 521 532 521 593 q 455 401 521 454 q 289 349 389 349 q 127 400 190 349 q 61 534 64 450 l 167 534 q 203 466 170 491 q 290 440 237 440 q 375 468 342 440 q 408 538 408 495 q 376 611 408 585 q 287 637 343 637 l 211 637 m 584 0 l 471 0 l 698 514 l 903 979 l 1016 979 l 800 490 l 584 0 m 1205 0 l 1205 115 l 899 115 l 899 211 q 982 350 930 269 q 1155 612 1034 431 l 1311 612 l 1311 205 l 1393 205 l 1393 115 l 1311 115 l 1311 0 l 1205 0 m 1000 208 l 1000 203 l 1206 203 l 1206 526 l 1202 526 q 1000 208 1065 323 z "},"¿":{"ha":712,"x_min":75,"x_max":658,"o":"m 658 24 q 576 -166 652 -92 q 363 -240 499 -240 q 155 -170 235 -240 q 75 7 75 -100 q 216 239 75 153 q 303 311 280 277 q 326 399 326 345 l 326 444 l 445 444 l 445 381 q 413 266 446 315 q 310 175 381 218 q 226 102 251 138 q 201 13 201 66 q 247 -93 201 -52 q 368 -134 292 -134 q 490 -92 444 -134 q 542 24 536 -50 l 658 24 m 445 596 q 432 583 445 596 q 378 570 419 570 q 310 596 336 570 q 283 664 283 623 q 310 732 283 705 q 378 759 337 759 q 445 732 418 759 q 471 664 471 705 q 445 596 471 623 z "},"À":{"ha":936,"x_min":47,"x_max":889,"o":"m 761 0 l 663 280 l 273 280 l 175 0 l 47 0 l 408 979 l 528 979 l 889 0 l 761 0 m 463 821 l 309 384 l 627 384 l 473 821 l 463 821 m 396 1068 l 171 1270 l 324 1270 l 534 1068 l 396 1068 z "},"Á":{"ha":936,"x_min":47,"x_max":889,"o":"m 761 0 l 663 280 l 273 280 l 175 0 l 47 0 l 408 979 l 528 979 l 889 0 l 761 0 m 463 821 l 309 384 l 627 384 l 473 821 l 463 821 m 534 1068 l 396 1068 l 606 1270 l 760 1270 l 534 1068 z "},"Â":{"ha":936,"x_min":47,"x_max":889,"o":"m 761 0 l 663 280 l 273 280 l 175 0 l 47 0 l 408 979 l 528 979 l 889 0 l 761 0 m 463 821 l 309 384 l 627 384 l 473 821 l 463 821 m 412 1270 l 524 1270 l 727 1068 l 590 1068 l 473 1188 l 463 1188 l 346 1068 l 209 1068 l 412 1270 z "},"Ã":{"ha":936,"x_min":47,"x_max":889,"o":"m 761 0 l 663 280 l 273 280 l 175 0 l 47 0 l 408 979 l 528 979 l 889 0 l 761 0 m 463 821 l 309 384 l 627 384 l 473 821 l 463 821 m 566 1072 q 510 1082 536 1072 q 467 1109 484 1093 q 434 1140 449 1124 q 404 1167 419 1156 q 374 1178 389 1178 q 322 1154 338 1178 q 307 1072 307 1129 l 211 1072 q 253 1216 211 1164 q 368 1269 294 1269 q 424 1258 398 1269 q 468 1231 450 1247 q 500 1200 486 1215 q 531 1173 515 1184 q 561 1162 546 1162 q 612 1187 597 1162 q 627 1269 627 1211 l 724 1269 q 682 1124 724 1177 q 566 1072 640 1072 z "},"Ä":{"ha":936,"x_min":47,"x_max":889,"o":"m 761 0 l 663 280 l 273 280 l 175 0 l 47 0 l 408 979 l 528 979 l 889 0 l 761 0 m 463 821 l 309 384 l 627 384 l 473 821 l 463 821 m 389 1092 q 377 1080 389 1092 q 331 1068 365 1068 q 273 1092 297 1068 q 249 1150 249 1116 q 273 1208 249 1184 q 331 1232 297 1232 q 389 1208 365 1232 q 413 1150 413 1184 q 389 1092 413 1116 m 663 1092 q 651 1080 663 1092 q 605 1068 639 1068 q 547 1092 571 1068 q 523 1150 523 1116 q 547 1208 523 1184 q 605 1232 571 1232 q 663 1208 639 1232 q 687 1150 687 1184 q 663 1092 687 1116 z "},"Å":{"ha":936,"x_min":47,"x_max":889,"o":"m 761 0 l 663 280 l 273 280 l 175 0 l 47 0 l 408 979 l 528 979 l 889 0 l 761 0 m 463 821 l 309 384 l 627 384 l 473 821 l 463 821 m 564 1090 q 544 1071 564 1090 q 468 1052 524 1052 q 372 1090 412 1052 q 333 1185 333 1129 q 372 1280 333 1242 q 468 1319 412 1319 q 564 1280 524 1319 q 603 1185 603 1242 q 564 1090 603 1129 m 417 1135 q 427 1124 417 1135 q 468 1114 437 1114 q 519 1135 499 1114 q 539 1185 539 1155 q 519 1237 539 1217 q 468 1257 499 1257 q 417 1237 437 1257 q 397 1185 397 1217 q 417 1135 397 1155 z "},"Æ":{"ha":1333,"x_min":47,"x_max":1237,"o":"m 569 876 l 359 415 l 669 415 l 669 876 l 569 876 m 669 0 l 669 311 l 311 311 l 170 0 l 47 0 l 488 979 l 1237 979 l 1237 869 l 791 869 l 791 548 l 1212 548 l 1212 439 l 791 439 l 791 110 l 1237 110 l 1237 0 l 669 0 z "},"Ç":{"ha":994,"x_min":87,"x_max":914,"o":"m 914 684 l 790 684 q 692 834 766 779 q 518 889 619 889 q 295 781 377 889 q 212 489 212 673 q 295 197 212 304 q 519 90 378 90 q 694 139 621 90 q 790 273 767 188 l 914 273 q 796 68 891 147 q 561 -22 701 -10 l 534 -90 q 642 -119 604 -90 q 680 -200 680 -148 q 636 -293 680 -258 q 515 -328 591 -328 q 416 -316 457 -328 l 416 -243 q 498 -252 448 -252 q 579 -203 579 -252 q 555 -169 579 -179 q 478 -159 532 -159 l 438 -159 l 438 -102 l 471 -21 q 190 132 292 -4 q 87 489 87 268 q 203 864 87 726 q 518 1002 319 1002 q 783 913 673 1002 q 914 684 892 825 z "},"È":{"ha":827,"x_min":125,"x_max":731,"o":"m 731 110 l 731 0 l 125 0 l 125 979 l 731 979 l 731 869 l 247 869 l 247 555 l 706 555 l 706 446 l 247 446 l 247 110 l 731 110 m 356 1068 l 131 1270 l 284 1270 l 494 1068 l 356 1068 z "},"É":{"ha":827,"x_min":125,"x_max":731,"o":"m 731 110 l 731 0 l 125 0 l 125 979 l 731 979 l 731 869 l 247 869 l 247 555 l 706 555 l 706 446 l 247 446 l 247 110 l 731 110 m 494 1068 l 356 1068 l 566 1270 l 720 1270 l 494 1068 z "},"Ê":{"ha":827,"x_min":125,"x_max":731,"o":"m 731 110 l 731 0 l 125 0 l 125 979 l 731 979 l 731 869 l 247 869 l 247 555 l 706 555 l 706 446 l 247 446 l 247 110 l 731 110 m 372 1270 l 484 1270 l 687 1068 l 550 1068 l 433 1188 l 422 1188 l 306 1068 l 169 1068 l 372 1270 z "},"Ë":{"ha":827,"x_min":125,"x_max":731,"o":"m 731 110 l 731 0 l 125 0 l 125 979 l 731 979 l 731 869 l 247 869 l 247 555 l 706 555 l 706 446 l 247 446 l 247 110 l 731 110 m 349 1092 q 337 1080 349 1092 q 291 1068 325 1068 q 233 1092 257 1068 q 209 1150 209 1116 q 233 1208 209 1184 q 291 1232 257 1232 q 349 1208 325 1232 q 373 1150 373 1184 q 349 1092 373 1116 m 623 1092 q 611 1080 623 1092 q 565 1068 599 1068 q 507 1092 531 1068 q 483 1150 483 1116 q 507 1208 483 1184 q 565 1232 531 1232 q 623 1208 599 1232 q 647 1150 647 1184 q 623 1092 647 1116 z "},"Ì":{"ha":372,"x_min":-111,"x_max":252,"o":"m 247 0 l 125 0 l 125 979 l 247 979 l 247 0 m 114 1068 l -111 1270 l 42 1270 l 252 1068 l 114 1068 z "},"Í":{"ha":372,"x_min":114,"x_max":477,"o":"m 247 0 l 125 0 l 125 979 l 247 979 l 247 0 m 252 1068 l 114 1068 l 324 1270 l 477 1270 l 252 1068 z "},"Î":{"ha":372,"x_min":-73,"x_max":445,"o":"m 247 0 l 125 0 l 125 979 l 247 979 l 247 0 m 130 1270 l 241 1270 l 445 1068 l 308 1068 l 191 1188 l 180 1188 l 64 1068 l -73 1068 l 130 1270 z "},"Ï":{"ha":372,"x_min":-33,"x_max":405,"o":"m 247 0 l 125 0 l 125 979 l 247 979 l 247 0 m 107 1092 q 95 1080 107 1092 q 49 1068 83 1068 q -9 1092 15 1068 q -33 1150 -33 1116 q -9 1208 -33 1184 q 49 1232 15 1232 q 107 1208 83 1232 q 131 1150 131 1184 q 107 1092 131 1116 m 381 1092 q 369 1080 381 1092 q 323 1068 357 1068 q 265 1092 289 1068 q 241 1150 241 1116 q 265 1208 241 1184 q 323 1232 289 1232 q 381 1208 357 1232 q 405 1150 405 1184 q 381 1092 405 1116 z "},"Ð":{"ha":1008,"x_min":18,"x_max":922,"o":"m 247 110 l 452 110 q 707 210 616 110 q 798 488 798 309 q 706 768 798 668 q 452 869 615 869 l 247 869 l 247 560 l 415 560 l 415 450 l 247 450 l 247 110 m 125 979 l 460 979 q 800 849 678 979 q 922 490 922 720 q 801 129 922 258 q 460 0 679 0 l 125 0 l 125 450 l 18 450 l 18 560 l 125 560 l 125 979 z "},"Ñ":{"ha":1031,"x_min":125,"x_max":906,"o":"m 245 0 l 125 0 l 125 979 l 243 979 l 774 217 l 785 217 l 785 979 l 906 979 l 906 0 l 787 0 l 256 759 l 245 759 l 245 0 m 614 1072 q 558 1082 584 1072 q 514 1109 532 1093 q 481 1140 496 1124 q 451 1167 467 1156 q 421 1178 436 1178 q 370 1154 385 1178 q 355 1072 355 1129 l 258 1072 q 300 1216 258 1164 q 416 1269 342 1269 q 472 1258 446 1269 q 515 1231 498 1247 q 548 1200 533 1215 q 578 1173 563 1184 q 608 1162 593 1162 q 660 1187 644 1162 q 675 1269 675 1211 l 771 1269 q 729 1124 771 1177 q 614 1072 688 1072 z "},"Ò":{"ha":1071,"x_min":87,"x_max":984,"o":"m 536 1002 q 864 864 745 1002 q 984 490 984 726 q 864 115 984 254 q 536 -23 745 -23 q 207 115 327 -23 q 87 490 87 254 q 208 864 87 726 q 536 1002 329 1002 m 536 889 q 300 781 387 889 q 212 490 212 673 q 299 198 212 306 q 536 90 385 90 q 772 198 686 90 q 859 490 859 307 q 772 782 859 674 q 536 889 686 889 m 465 1068 l 239 1270 l 393 1270 l 603 1068 l 465 1068 z "},"Ó":{"ha":1071,"x_min":87,"x_max":984,"o":"m 536 1002 q 864 864 745 1002 q 984 490 984 726 q 864 115 984 254 q 536 -23 745 -23 q 207 115 327 -23 q 87 490 87 254 q 208 864 87 726 q 536 1002 329 1002 m 536 889 q 300 781 387 889 q 212 490 212 673 q 299 198 212 306 q 536 90 385 90 q 772 198 686 90 q 859 490 859 307 q 772 782 859 674 q 536 889 686 889 m 603 1068 l 465 1068 l 675 1270 l 828 1270 l 603 1068 z "},"Ô":{"ha":1071,"x_min":87,"x_max":984,"o":"m 536 1002 q 864 864 745 1002 q 984 490 984 726 q 864 115 984 254 q 536 -23 745 -23 q 207 115 327 -23 q 87 490 87 254 q 208 864 87 726 q 536 1002 329 1002 m 536 889 q 300 781 387 889 q 212 490 212 673 q 299 198 212 306 q 536 90 385 90 q 772 198 686 90 q 859 490 859 307 q 772 782 859 674 q 536 889 686 889 m 481 1270 l 592 1270 l 795 1068 l 659 1068 l 542 1188 l 531 1188 l 414 1068 l 277 1068 l 481 1270 z "},"Õ":{"ha":1071,"x_min":87,"x_max":984,"o":"m 536 1002 q 864 864 745 1002 q 984 490 984 726 q 864 115 984 254 q 536 -23 745 -23 q 207 115 327 -23 q 87 490 87 254 q 208 864 87 726 q 536 1002 329 1002 m 536 889 q 300 781 387 889 q 212 490 212 673 q 299 198 212 306 q 536 90 385 90 q 772 198 686 90 q 859 490 859 307 q 772 782 859 674 q 536 889 686 889 m 635 1072 q 579 1082 605 1072 q 535 1109 553 1093 q 503 1140 517 1124 q 472 1167 488 1156 q 442 1178 457 1178 q 391 1154 406 1178 q 376 1072 376 1129 l 279 1072 q 321 1216 279 1164 q 437 1269 363 1269 q 493 1258 467 1269 q 536 1231 519 1247 q 569 1200 554 1215 q 599 1173 584 1184 q 629 1162 614 1162 q 681 1187 665 1162 q 696 1269 696 1211 l 792 1269 q 750 1124 792 1177 q 635 1072 709 1072 z "},"Ö":{"ha":1071,"x_min":87,"x_max":984,"o":"m 536 1002 q 864 864 745 1002 q 984 490 984 726 q 864 115 984 254 q 536 -23 745 -23 q 207 115 327 -23 q 87 490 87 254 q 208 864 87 726 q 536 1002 329 1002 m 536 889 q 300 781 387 889 q 212 490 212 673 q 299 198 212 306 q 536 90 385 90 q 772 198 686 90 q 859 490 859 307 q 772 782 859 674 q 536 889 686 889 m 457 1092 q 445 1080 457 1092 q 399 1068 433 1068 q 341 1092 366 1068 q 317 1150 317 1116 q 341 1208 317 1184 q 399 1232 366 1232 q 457 1208 433 1232 q 481 1150 481 1184 q 457 1092 481 1116 m 731 1092 q 719 1080 731 1092 q 673 1068 707 1068 q 615 1092 640 1068 q 591 1150 591 1116 q 615 1208 591 1184 q 673 1232 640 1232 q 731 1208 707 1232 q 755 1150 755 1184 q 731 1092 755 1116 z "},"×":{"ha":901,"x_min":171,"x_max":730,"o":"m 450 322 l 241 114 l 171 184 l 379 393 l 171 602 l 241 673 l 450 465 l 659 673 l 730 602 l 522 393 l 730 184 l 659 114 l 450 322 z "},"Ø":{"ha":1052,"x_min":87,"x_max":984,"o":"m 785 764 l 328 167 q 536 90 410 90 q 772 198 686 90 q 859 490 859 307 q 785 764 859 659 m 273 235 l 729 825 q 536 889 650 889 q 300 781 387 889 q 212 490 212 673 q 273 235 212 336 m 937 962 l 863 865 q 984 490 984 728 q 864 115 984 254 q 536 -23 745 -23 q 253 70 368 -23 l 175 -32 l 107 20 l 193 132 q 87 490 87 267 q 208 864 87 726 q 536 1002 329 1002 q 802 921 693 1002 l 871 1009 l 937 962 z "},"Ù":{"ha":1034,"x_min":128,"x_max":905,"o":"m 250 979 l 250 345 q 321 160 250 231 q 517 90 392 90 q 712 160 642 90 q 783 345 783 231 l 783 979 l 905 979 l 905 336 q 801 77 905 177 q 517 -23 696 -23 q 233 77 338 -23 q 128 336 128 177 l 128 979 l 250 979 m 445 1068 l 220 1270 l 373 1270 l 583 1068 l 445 1068 z "},"Ú":{"ha":1034,"x_min":128,"x_max":905,"o":"m 250 979 l 250 345 q 321 160 250 231 q 517 90 392 90 q 712 160 642 90 q 783 345 783 231 l 783 979 l 905 979 l 905 336 q 801 77 905 177 q 517 -23 696 -23 q 233 77 338 -23 q 128 336 128 177 l 128 979 l 250 979 m 583 1068 l 445 1068 l 655 1270 l 808 1270 l 583 1068 z "},"Û":{"ha":1034,"x_min":128,"x_max":905,"o":"m 250 979 l 250 345 q 321 160 250 231 q 517 90 392 90 q 712 160 642 90 q 783 345 783 231 l 783 979 l 905 979 l 905 336 q 801 77 905 177 q 517 -23 696 -23 q 233 77 338 -23 q 128 336 128 177 l 128 979 l 250 979 m 461 1270 l 572 1270 l 776 1068 l 639 1068 l 522 1188 l 511 1188 l 395 1068 l 258 1068 l 461 1270 z "},"Ü":{"ha":1034,"x_min":128,"x_max":905,"o":"m 250 979 l 250 345 q 321 160 250 231 q 517 90 392 90 q 712 160 642 90 q 783 345 783 231 l 783 979 l 905 979 l 905 336 q 801 77 905 177 q 517 -23 696 -23 q 233 77 338 -23 q 128 336 128 177 l 128 979 l 250 979 m 438 1092 q 426 1080 438 1092 q 380 1068 414 1068 q 322 1092 346 1068 q 298 1150 298 1116 q 322 1208 298 1184 q 380 1232 346 1232 q 438 1208 414 1232 q 462 1150 462 1184 q 438 1092 462 1116 m 712 1092 q 700 1080 712 1092 q 654 1068 688 1068 q 596 1092 620 1068 q 572 1150 572 1116 q 596 1208 572 1184 q 654 1232 620 1232 q 712 1208 688 1232 q 736 1150 736 1184 q 712 1092 736 1116 z "},"Ý":{"ha":911,"x_min":47,"x_max":864,"o":"m 517 0 l 395 0 l 395 421 l 47 979 l 186 979 l 450 544 l 461 544 l 725 979 l 864 979 l 517 421 l 517 0 m 522 1068 l 384 1068 l 594 1270 l 747 1270 l 522 1068 z "},"Þ":{"ha":868,"x_min":125,"x_max":786,"o":"m 125 979 l 247 979 l 247 798 l 500 798 q 608 779 556 798 q 699 725 659 760 q 762 636 739 690 q 786 517 786 582 q 762 397 786 452 q 698 308 739 343 q 606 253 658 273 q 498 234 555 234 l 247 234 l 247 0 l 125 0 l 125 979 m 247 690 l 247 342 l 465 342 q 607 387 553 342 q 661 517 661 432 q 607 646 661 602 q 465 690 553 690 l 247 690 z "},"ß":{"ha":864,"x_min":153,"x_max":791,"o":"m 269 0 l 153 0 l 153 747 q 231 942 153 870 q 437 1015 309 1015 q 640 943 561 1015 q 718 760 718 872 q 674 616 718 678 q 563 534 630 555 l 563 522 q 730 448 669 511 q 791 276 791 385 q 705 72 791 153 q 482 -9 620 -9 q 385 -1 426 -9 l 385 103 q 474 94 426 94 q 622 144 568 94 q 675 277 675 195 q 614 411 675 362 q 444 460 553 460 l 403 460 l 403 575 l 437 575 q 559 622 514 575 q 604 754 604 668 q 559 867 604 822 q 439 911 514 911 q 314 865 359 911 q 269 735 269 819 l 269 0 z "},"à":{"ha":766,"x_min":66,"x_max":661,"o":"m 335 90 q 485 142 425 90 q 544 273 544 194 l 544 340 l 347 327 q 226 292 264 321 q 187 208 187 263 q 229 121 187 153 q 335 90 270 90 m 313 -13 q 136 46 205 -13 q 66 205 66 106 q 136 358 66 302 q 333 421 205 414 l 544 434 l 544 500 q 502 604 544 568 q 378 640 460 640 q 269 616 313 640 q 214 549 226 593 l 96 549 q 186 690 107 637 q 382 744 265 744 q 588 680 515 744 q 661 500 661 615 l 661 0 l 549 0 l 549 108 l 538 108 q 445 18 503 50 q 313 -13 387 -13 m 465 857 l 334 857 l 145 1086 l 294 1086 l 465 857 z "},"á":{"ha":766,"x_min":66,"x_max":661,"o":"m 335 90 q 485 142 425 90 q 544 273 544 194 l 544 340 l 347 327 q 226 292 264 321 q 187 208 187 263 q 229 121 187 153 q 335 90 270 90 m 313 -13 q 136 46 205 -13 q 66 205 66 106 q 136 358 66 302 q 333 421 205 414 l 544 434 l 544 500 q 502 604 544 568 q 378 640 460 640 q 269 616 313 640 q 214 549 226 593 l 96 549 q 186 690 107 637 q 382 744 265 744 q 588 680 515 744 q 661 500 661 615 l 661 0 l 549 0 l 549 108 l 538 108 q 445 18 503 50 q 313 -13 387 -13 m 437 857 l 305 857 l 476 1086 l 625 1086 l 437 857 z "},"â":{"ha":766,"x_min":66,"x_max":661,"o":"m 335 90 q 485 142 425 90 q 544 273 544 194 l 544 340 l 347 327 q 226 292 264 321 q 187 208 187 263 q 229 121 187 153 q 335 90 270 90 m 313 -13 q 136 46 205 -13 q 66 205 66 106 q 136 358 66 302 q 333 421 205 414 l 544 434 l 544 500 q 502 604 544 568 q 378 640 460 640 q 269 616 313 640 q 214 549 226 593 l 96 549 q 186 690 107 637 q 382 744 265 744 q 588 680 515 744 q 661 500 661 615 l 661 0 l 549 0 l 549 108 l 538 108 q 445 18 503 50 q 313 -13 387 -13 m 451 1063 l 642 833 l 508 833 l 388 987 l 377 987 l 257 833 l 123 833 l 314 1063 l 451 1063 z "},"ã":{"ha":766,"x_min":66,"x_max":661,"o":"m 335 90 q 485 142 425 90 q 544 273 544 194 l 544 340 l 347 327 q 226 292 264 321 q 187 208 187 263 q 229 121 187 153 q 335 90 270 90 m 313 -13 q 136 46 205 -13 q 66 205 66 106 q 136 358 66 302 q 333 421 205 414 l 544 434 l 544 500 q 502 604 544 568 q 378 640 460 640 q 269 616 313 640 q 214 549 226 593 l 96 549 q 186 690 107 637 q 382 744 265 744 q 588 680 515 744 q 661 500 661 615 l 661 0 l 549 0 l 549 108 l 538 108 q 445 18 503 50 q 313 -13 387 -13 m 481 835 q 426 846 452 835 q 382 872 399 857 q 349 904 364 888 q 319 930 334 920 q 289 941 304 941 q 238 917 253 941 q 222 835 222 892 l 126 835 q 168 980 126 927 q 283 1032 210 1032 q 339 1021 313 1032 q 383 995 366 1010 q 416 963 401 979 q 446 937 431 947 q 476 926 461 926 q 527 950 512 926 q 543 1032 543 975 l 639 1032 q 597 887 639 940 q 481 835 555 835 z "},"ä":{"ha":766,"x_min":66,"x_max":661,"o":"m 335 90 q 485 142 425 90 q 544 273 544 194 l 544 340 l 347 327 q 226 292 264 321 q 187 208 187 263 q 229 121 187 153 q 335 90 270 90 m 313 -13 q 136 46 205 -13 q 66 205 66 106 q 136 358 66 302 q 333 421 205 414 l 544 434 l 544 500 q 502 604 544 568 q 378 640 460 640 q 269 616 313 640 q 214 549 226 593 l 96 549 q 186 690 107 637 q 382 744 265 744 q 588 680 515 744 q 661 500 661 615 l 661 0 l 549 0 l 549 108 l 538 108 q 445 18 503 50 q 313 -13 387 -13 m 303 857 q 291 845 303 857 q 245 833 279 833 q 188 857 212 833 q 163 915 163 881 q 188 973 163 949 q 245 997 212 997 q 303 973 279 997 q 328 915 328 949 q 303 857 328 881 m 577 857 q 565 845 577 857 q 519 833 553 833 q 461 857 486 833 q 437 915 437 881 q 461 973 437 949 q 519 997 486 997 q 577 973 553 997 q 602 915 602 949 q 577 857 602 881 z "},"å":{"ha":766,"x_min":66,"x_max":661,"o":"m 335 90 q 485 142 425 90 q 544 273 544 194 l 544 340 l 347 327 q 226 292 264 321 q 187 208 187 263 q 229 121 187 153 q 335 90 270 90 m 313 -13 q 136 46 205 -13 q 66 205 66 106 q 136 358 66 302 q 333 421 205 414 l 544 434 l 544 500 q 502 604 544 568 q 378 640 460 640 q 269 616 313 640 q 214 549 226 593 l 96 549 q 186 690 107 637 q 382 744 265 744 q 588 680 515 744 q 661 500 661 615 l 661 0 l 549 0 l 549 108 l 538 108 q 445 18 503 50 q 313 -13 387 -13 m 494 878 q 471 855 494 878 q 382 833 448 833 q 271 878 317 833 q 225 988 225 923 q 271 1098 225 1053 q 382 1143 317 1143 q 494 1098 448 1143 q 540 988 540 1053 q 494 878 540 923 m 323 928 q 335 917 323 928 q 382 905 347 905 q 441 928 418 905 q 465 988 465 952 q 441 1048 465 1024 q 382 1072 418 1072 q 323 1048 347 1072 q 300 988 300 1024 q 323 928 300 952 z "},"æ":{"ha":1254,"x_min":66,"x_max":1181,"o":"m 873 -13 q 713 31 785 -13 q 611 144 640 75 l 600 144 q 493 28 564 70 q 325 -13 421 -13 q 138 46 209 -13 q 66 205 66 105 q 136 358 66 302 q 333 421 205 414 l 544 434 l 544 500 q 502 604 544 568 q 378 640 460 640 q 269 616 313 640 q 214 549 226 593 l 96 549 q 186 691 107 637 q 382 744 265 744 q 528 710 467 744 q 618 618 589 675 l 629 618 q 728 709 662 673 q 871 744 794 744 q 1099 649 1017 744 q 1181 385 1181 553 l 1181 339 l 660 339 l 660 327 q 723 155 665 219 q 876 91 781 91 q 987 115 943 91 q 1055 189 1031 139 l 1171 189 q 1066 40 1143 92 q 873 -13 988 -13 m 865 642 q 722 586 777 642 q 660 433 667 530 l 1058 433 q 1002 583 1056 525 q 865 642 948 642 m 342 90 q 486 144 429 90 q 544 278 544 199 l 544 340 l 347 327 q 226 292 264 321 q 187 208 187 263 q 230 121 187 153 q 342 90 272 90 z "},"ç":{"ha":777,"x_min":73,"x_max":715,"o":"m 715 507 l 597 507 q 533 602 582 565 q 408 639 484 639 q 252 566 310 639 q 194 368 194 492 q 252 167 194 242 q 408 92 311 92 q 531 125 482 92 q 597 220 581 159 l 715 220 q 632 64 700 126 q 456 -10 564 1 l 425 -90 q 533 -119 494 -90 q 571 -200 571 -148 q 527 -293 571 -258 q 406 -328 482 -328 q 307 -316 349 -328 l 307 -243 q 389 -252 339 -252 q 470 -203 470 -252 q 446 -169 470 -179 q 369 -159 422 -159 l 329 -159 l 329 -102 l 366 -11 q 152 105 231 4 q 73 368 73 207 q 164 642 73 539 q 408 744 255 744 q 617 677 536 744 q 715 507 699 610 z "},"è":{"ha":793,"x_min":73,"x_max":720,"o":"m 401 641 q 258 582 314 641 q 195 426 201 523 l 597 426 q 542 582 595 523 q 401 641 488 641 m 594 189 l 711 189 q 603 41 684 94 q 403 -13 522 -13 q 162 89 251 -13 q 73 365 73 191 q 163 641 73 538 q 403 744 252 744 q 635 646 551 744 q 720 376 720 547 l 720 332 l 195 332 l 195 326 q 256 154 199 218 q 406 90 313 90 q 594 189 547 90 m 486 857 l 354 857 l 165 1086 l 315 1086 l 486 857 z "},"é":{"ha":793,"x_min":73,"x_max":720,"o":"m 401 641 q 258 582 314 641 q 195 426 201 523 l 597 426 q 542 582 595 523 q 401 641 488 641 m 594 189 l 711 189 q 603 41 684 94 q 403 -13 522 -13 q 162 89 251 -13 q 73 365 73 191 q 163 641 73 538 q 403 744 252 744 q 635 646 551 744 q 720 376 720 547 l 720 332 l 195 332 l 195 326 q 256 154 199 218 q 406 90 313 90 q 594 189 547 90 m 457 857 l 326 857 l 496 1086 l 646 1086 l 457 857 z "},"ê":{"ha":793,"x_min":73,"x_max":720,"o":"m 401 641 q 258 582 314 641 q 195 426 201 523 l 597 426 q 542 582 595 523 q 401 641 488 641 m 594 189 l 711 189 q 603 41 684 94 q 403 -13 522 -13 q 162 89 251 -13 q 73 365 73 191 q 163 641 73 538 q 403 744 252 744 q 635 646 551 744 q 720 376 720 547 l 720 332 l 195 332 l 195 326 q 256 154 199 218 q 406 90 313 90 q 594 189 547 90 m 471 1063 l 663 833 l 528 833 l 408 987 l 397 987 l 277 833 l 143 833 l 334 1063 l 471 1063 z "},"ë":{"ha":793,"x_min":73,"x_max":720,"o":"m 401 641 q 258 582 314 641 q 195 426 201 523 l 597 426 q 542 582 595 523 q 401 641 488 641 m 594 189 l 711 189 q 603 41 684 94 q 403 -13 522 -13 q 162 89 251 -13 q 73 365 73 191 q 163 641 73 538 q 403 744 252 744 q 635 646 551 744 q 720 376 720 547 l 720 332 l 195 332 l 195 326 q 256 154 199 218 q 406 90 313 90 q 594 189 547 90 m 324 857 q 312 845 324 857 q 266 833 300 833 q 208 857 232 833 q 184 915 184 881 q 208 973 184 949 q 266 997 232 997 q 324 973 300 997 q 348 915 348 949 q 324 857 348 881 m 598 857 q 586 845 598 857 q 540 833 574 833 q 482 857 506 833 q 458 915 458 881 q 482 973 458 949 q 540 997 506 997 q 598 973 574 997 q 622 915 622 949 q 598 857 622 881 z "},"ì":{"ha":342,"x_min":-66,"x_max":254,"o":"m 113 0 l 113 731 l 229 731 l 229 0 l 113 0 m 254 857 l 122 857 l -66 1086 l 83 1086 l 254 857 z "},"í":{"ha":342,"x_min":94,"x_max":414,"o":"m 113 0 l 113 731 l 229 731 l 229 0 l 113 0 m 225 857 l 94 857 l 264 1086 l 414 1086 l 225 857 z "},"î":{"ha":342,"x_min":-89,"x_max":431,"o":"m 113 0 l 113 731 l 229 731 l 229 0 l 113 0 m 239 1063 l 431 833 l 296 833 l 176 987 l 165 987 l 45 833 l -89 833 l 102 1063 l 239 1063 z "},"ï":{"ha":342,"x_min":-48,"x_max":390,"o":"m 113 0 l 113 731 l 229 731 l 229 0 l 113 0 m 92 857 q 80 845 92 857 q 34 833 68 833 q -24 857 0 833 q -48 915 -48 881 q -24 973 -48 949 q 34 997 0 997 q 92 973 68 997 q 116 915 116 949 q 92 857 116 881 m 366 857 q 354 845 366 857 q 308 833 342 833 q 250 857 274 833 q 226 915 226 881 q 250 973 226 949 q 308 997 274 997 q 366 973 342 997 q 390 915 390 949 q 366 857 390 881 z "},"ð":{"ha":806,"x_min":73,"x_max":735,"o":"m 408 -13 q 163 85 252 -13 q 73 352 73 182 q 158 616 73 515 q 380 717 243 717 q 511 684 449 717 q 596 602 572 652 l 606 602 q 483 840 576 726 l 294 779 l 271 855 l 427 906 q 292 1035 385 956 l 431 1035 q 530 939 484 991 l 699 994 l 723 918 l 581 872 q 695 646 656 771 q 735 387 735 522 q 647 95 735 202 q 408 -13 559 -13 m 408 612 q 252 541 310 612 q 194 352 194 471 q 252 163 194 233 q 408 92 310 92 q 564 163 506 92 q 623 352 623 233 q 564 541 623 469 q 408 612 505 612 z "},"ñ":{"ha":810,"x_min":110,"x_max":707,"o":"m 110 0 l 110 731 l 221 731 l 221 616 l 232 616 q 452 744 290 744 q 641 674 574 744 q 707 473 707 604 l 707 0 l 591 0 l 591 445 q 548 591 591 543 q 418 639 506 639 q 278 584 330 639 q 227 433 227 528 l 227 0 l 110 0 m 508 835 q 452 846 478 835 q 408 872 426 857 q 376 904 391 888 q 346 930 361 920 q 315 941 330 941 q 264 917 279 941 q 249 835 249 892 l 153 835 q 194 980 153 927 q 310 1032 236 1032 q 366 1021 340 1032 q 410 995 392 1010 q 442 963 427 979 q 472 937 457 947 q 503 926 488 926 q 554 950 538 926 q 569 1032 569 975 l 665 1032 q 624 887 665 940 q 508 835 582 835 z "},"ò":{"ha":821,"x_min":73,"x_max":747,"o":"m 657 89 q 612 38 657 89 q 410 -13 566 -13 q 164 89 254 -13 q 73 366 73 190 q 163 643 73 542 q 410 744 254 744 q 657 643 567 744 q 747 366 747 542 q 657 89 747 190 m 250 164 q 278 128 250 164 q 410 92 307 92 q 570 164 514 92 q 627 366 627 235 q 570 567 627 496 q 410 639 514 639 q 250 567 307 639 q 194 366 194 496 q 250 164 194 235 m 493 857 l 361 857 l 173 1086 l 322 1086 l 493 857 z "},"ó":{"ha":821,"x_min":73,"x_max":747,"o":"m 657 89 q 612 38 657 89 q 410 -13 566 -13 q 164 89 254 -13 q 73 366 73 190 q 163 643 73 542 q 410 744 254 744 q 657 643 567 744 q 747 366 747 542 q 657 89 747 190 m 250 164 q 278 128 250 164 q 410 92 307 92 q 570 164 514 92 q 627 366 627 235 q 570 567 627 496 q 410 639 514 639 q 250 567 307 639 q 194 366 194 496 q 250 164 194 235 m 465 857 l 333 857 l 504 1086 l 653 1086 l 465 857 z "},"ô":{"ha":821,"x_min":73,"x_max":747,"o":"m 657 89 q 612 38 657 89 q 410 -13 566 -13 q 164 89 254 -13 q 73 366 73 190 q 163 643 73 542 q 410 744 254 744 q 657 643 567 744 q 747 366 747 542 q 657 89 747 190 m 250 164 q 278 128 250 164 q 410 92 307 92 q 570 164 514 92 q 627 366 627 235 q 570 567 627 496 q 410 639 514 639 q 250 567 307 639 q 194 366 194 496 q 250 164 194 235 m 479 1063 l 670 833 l 536 833 l 416 987 l 405 987 l 285 833 l 151 833 l 342 1063 l 479 1063 z "},"õ":{"ha":821,"x_min":73,"x_max":747,"o":"m 657 89 q 612 38 657 89 q 410 -13 566 -13 q 164 89 254 -13 q 73 366 73 190 q 163 643 73 542 q 410 744 254 744 q 657 643 567 744 q 747 366 747 542 q 657 89 747 190 m 250 164 q 278 128 250 164 q 410 92 307 92 q 570 164 514 92 q 627 366 627 235 q 570 567 627 496 q 410 639 514 639 q 250 567 307 639 q 194 366 194 496 q 250 164 194 235 m 509 835 q 453 846 479 835 q 410 872 427 857 q 377 904 392 888 q 347 930 362 920 q 317 941 332 941 q 266 917 281 941 q 250 835 250 892 l 154 835 q 196 980 154 927 q 311 1032 237 1032 q 367 1021 341 1032 q 411 995 393 1010 q 444 963 429 979 q 474 937 458 947 q 504 926 489 926 q 555 950 540 926 q 570 1032 570 975 l 667 1032 q 625 887 667 940 q 509 835 583 835 z "},"ö":{"ha":821,"x_min":73,"x_max":747,"o":"m 657 89 q 612 38 657 89 q 410 -13 566 -13 q 164 89 254 -13 q 73 366 73 190 q 163 643 73 542 q 410 744 254 744 q 657 643 567 744 q 747 366 747 542 q 657 89 747 190 m 250 164 q 278 128 250 164 q 410 92 307 92 q 570 164 514 92 q 627 366 627 235 q 570 567 627 496 q 410 639 514 639 q 250 567 307 639 q 194 366 194 496 q 250 164 194 235 m 331 857 q 319 845 331 857 q 273 833 307 833 q 215 857 239 833 q 191 915 191 881 q 215 973 191 949 q 273 997 239 997 q 331 973 307 997 q 355 915 355 949 q 331 857 355 881 m 605 857 q 593 845 605 857 q 547 833 581 833 q 489 857 513 833 q 465 915 465 881 q 489 973 465 949 q 547 997 513 997 q 605 973 581 997 q 629 915 629 949 q 605 857 629 881 z "},"÷":{"ha":901,"x_min":105,"x_max":795,"o":"m 451 551 q 390 575 414 551 q 366 635 366 599 q 390 696 366 672 q 451 720 414 720 q 511 696 487 720 q 535 635 535 672 q 511 574 535 598 q 451 551 487 551 m 451 66 q 390 91 414 66 q 366 151 366 115 q 390 212 366 188 q 451 236 414 236 q 511 212 487 236 q 535 151 535 188 q 511 90 535 114 q 451 66 487 66 m 795 343 l 105 343 l 105 444 l 795 444 l 795 343 z "},"ø":{"ha":821,"x_min":73,"x_max":747,"o":"m 581 553 l 291 126 q 410 92 340 92 q 570 164 514 92 q 627 366 627 235 q 581 553 627 484 m 233 190 l 522 610 q 410 639 475 639 q 250 567 307 639 q 194 366 194 496 q 233 190 194 258 m 690 715 l 648 652 q 747 366 747 551 q 657 89 747 190 q 410 -13 566 -13 q 229 34 305 -13 l 189 -25 l 118 22 l 163 88 q 73 366 73 190 q 163 643 73 542 q 410 744 254 744 q 584 702 508 744 l 623 758 l 690 715 z "},"ù":{"ha":811,"x_min":103,"x_max":701,"o":"m 701 731 l 701 0 l 590 0 l 590 115 l 579 115 q 494 20 551 53 q 353 -13 436 -13 q 167 57 231 -13 q 103 258 103 127 l 103 731 l 220 731 l 220 286 q 259 140 220 186 q 385 94 298 94 q 533 148 481 94 q 585 298 585 201 l 585 731 l 701 731 m 485 857 l 353 857 l 165 1086 l 314 1086 l 485 857 z "},"ú":{"ha":811,"x_min":103,"x_max":701,"o":"m 701 731 l 701 0 l 590 0 l 590 115 l 579 115 q 494 20 551 53 q 353 -13 436 -13 q 167 57 231 -13 q 103 258 103 127 l 103 731 l 220 731 l 220 286 q 259 140 220 186 q 385 94 298 94 q 533 148 481 94 q 585 298 585 201 l 585 731 l 701 731 m 456 857 l 325 857 l 496 1086 l 645 1086 l 456 857 z "},"û":{"ha":811,"x_min":103,"x_max":701,"o":"m 701 731 l 701 0 l 590 0 l 590 115 l 579 115 q 494 20 551 53 q 353 -13 436 -13 q 167 57 231 -13 q 103 258 103 127 l 103 731 l 220 731 l 220 286 q 259 140 220 186 q 385 94 298 94 q 533 148 481 94 q 585 298 585 201 l 585 731 l 701 731 m 471 1063 l 662 833 l 528 833 l 408 987 l 397 987 l 277 833 l 142 833 l 334 1063 l 471 1063 z "},"ü":{"ha":811,"x_min":103,"x_max":701,"o":"m 701 731 l 701 0 l 590 0 l 590 115 l 579 115 q 494 20 551 53 q 353 -13 436 -13 q 167 57 231 -13 q 103 258 103 127 l 103 731 l 220 731 l 220 286 q 259 140 220 186 q 385 94 298 94 q 533 148 481 94 q 585 298 585 201 l 585 731 l 701 731 m 323 857 q 311 845 323 857 q 265 833 299 833 q 207 857 231 833 q 183 915 183 881 q 207 973 183 949 q 265 997 231 997 q 323 973 299 997 q 347 915 347 949 q 323 857 347 881 m 597 857 q 585 845 597 857 q 539 833 573 833 q 481 857 505 833 q 457 915 457 881 q 481 973 457 949 q 539 997 505 997 q 597 973 573 997 q 621 915 621 949 q 597 857 621 881 z "},"ý":{"ha":754,"x_min":46,"x_max":708,"o":"m 172 -264 q 120 -260 144 -264 l 120 -161 q 169 -164 138 -164 q 250 -137 220 -164 q 303 -44 280 -110 l 317 -1 l 46 731 l 172 731 l 373 130 l 384 130 l 584 731 l 708 731 l 422 -45 q 323 -218 376 -172 q 172 -264 270 -264 m 428 857 l 296 857 l 467 1086 l 616 1086 l 428 857 z "},"þ":{"ha":853,"x_min":117,"x_max":780,"o":"m 473 744 q 696 641 612 744 q 780 366 780 538 q 696 91 780 194 q 473 -13 612 -13 q 334 19 395 -13 q 244 110 274 52 l 233 110 l 233 -244 l 117 -244 l 117 1021 l 228 1021 l 228 609 l 239 609 q 336 708 274 672 q 473 744 398 744 m 445 92 q 602 165 545 92 q 659 366 659 237 q 603 566 659 494 q 446 639 546 639 q 288 565 347 639 q 230 366 230 492 q 288 166 230 240 q 445 92 346 92 z "},"ÿ":{"ha":754,"x_min":46,"x_max":708,"o":"m 172 -264 q 120 -260 144 -264 l 120 -161 q 169 -164 138 -164 q 250 -137 220 -164 q 303 -44 280 -110 l 317 -1 l 46 731 l 172 731 l 373 130 l 384 130 l 584 731 l 708 731 l 422 -45 q 323 -218 376 -172 q 172 -264 270 -264 m 295 857 q 283 845 295 857 q 237 833 271 833 q 179 857 203 833 q 155 915 155 881 q 179 973 155 949 q 237 997 203 997 q 295 973 271 997 q 319 915 319 949 q 295 857 319 881 m 569 857 q 557 845 569 857 q 511 833 545 833 q 453 857 477 833 q 429 915 429 881 q 453 973 429 949 q 511 997 477 997 q 569 973 545 997 q 593 915 593 949 q 569 857 593 881 z "},"Ā":{"ha":936,"x_min":47,"x_max":889,"o":"m 761 0 l 663 280 l 273 280 l 175 0 l 47 0 l 408 979 l 528 979 l 889 0 l 761 0 m 463 821 l 309 384 l 627 384 l 473 821 l 463 821 m 696 1191 l 696 1099 l 239 1099 l 239 1191 l 696 1191 z "},"ā":{"ha":766,"x_min":66,"x_max":661,"o":"m 335 90 q 485 142 425 90 q 544 273 544 194 l 544 340 l 347 327 q 226 292 264 321 q 187 208 187 263 q 229 121 187 153 q 335 90 270 90 m 313 -13 q 136 46 205 -13 q 66 205 66 106 q 136 358 66 302 q 333 421 205 414 l 544 434 l 544 500 q 502 604 544 568 q 378 640 460 640 q 269 616 313 640 q 214 549 226 593 l 96 549 q 186 690 107 637 q 382 744 265 744 q 588 680 515 744 q 661 500 661 615 l 661 0 l 549 0 l 549 108 l 538 108 q 445 18 503 50 q 313 -13 387 -13 m 611 964 l 611 872 l 154 872 l 154 964 l 611 964 z "},"Ă":{"ha":936,"x_min":47,"x_max":889,"o":"m 761 0 l 663 280 l 273 280 l 175 0 l 47 0 l 408 979 l 528 979 l 889 0 l 761 0 m 463 821 l 309 384 l 627 384 l 473 821 l 463 821 m 221 1270 l 326 1270 q 364 1185 326 1217 q 468 1153 402 1153 q 572 1185 534 1153 q 610 1270 610 1217 l 715 1270 q 648 1123 715 1179 q 468 1068 582 1068 q 288 1123 354 1068 q 221 1270 221 1179 z "},"ă":{"ha":766,"x_min":66,"x_max":661,"o":"m 335 90 q 485 142 425 90 q 544 273 544 194 l 544 340 l 347 327 q 226 292 264 321 q 187 208 187 263 q 229 121 187 153 q 335 90 270 90 m 313 -13 q 136 46 205 -13 q 66 205 66 106 q 136 358 66 302 q 333 421 205 414 l 544 434 l 544 500 q 502 604 544 568 q 378 640 460 640 q 269 616 313 640 q 214 549 226 593 l 96 549 q 186 690 107 637 q 382 744 265 744 q 588 680 515 744 q 661 500 661 615 l 661 0 l 549 0 l 549 108 l 538 108 q 445 18 503 50 q 313 -13 387 -13 m 134 1055 l 239 1055 q 276 957 239 995 q 381 920 314 920 q 486 957 448 920 q 524 1055 524 995 l 628 1055 q 562 895 628 957 q 381 833 495 833 q 201 895 267 833 q 134 1055 134 957 z "},"Ą":{"ha":936,"x_min":47,"x_max":889,"o":"m 463 821 l 309 384 l 627 384 l 473 821 l 463 821 m 878 -282 q 807 -293 846 -293 q 688 -253 733 -293 q 642 -155 642 -214 q 675 -64 642 -107 q 760 5 707 -22 l 663 280 l 273 280 l 175 0 l 47 0 l 408 979 l 528 979 l 889 0 l 882 -3 q 791 -59 825 -29 q 757 -129 757 -89 q 779 -178 757 -160 q 833 -195 802 -195 q 878 -191 861 -195 l 878 -282 z "},"ą":{"ha":766,"x_min":66,"x_max":661,"o":"m 335 90 q 484 142 425 90 q 544 273 544 194 l 544 340 l 347 327 q 226 292 264 321 q 187 208 187 263 q 228 122 187 154 q 335 90 269 90 m 655 -282 q 585 -293 625 -293 q 466 -254 513 -293 q 420 -155 420 -215 q 456 -56 420 -100 q 549 8 493 -12 l 549 108 l 538 108 q 445 18 503 50 q 313 -13 387 -13 q 135 47 203 -13 q 66 205 66 108 q 135 358 66 302 q 333 421 204 414 l 544 434 l 544 500 q 502 605 544 569 q 378 640 459 640 q 269 616 312 640 q 214 549 226 593 l 96 549 q 186 690 107 637 q 382 744 265 744 q 587 680 514 744 q 661 500 661 616 l 661 0 l 652 -3 q 566 -59 597 -26 q 534 -129 534 -92 q 556 -177 534 -158 q 610 -195 577 -195 q 655 -191 640 -195 l 655 -282 z "},"Ć":{"ha":994,"x_min":87,"x_max":914,"o":"m 519 -23 q 203 115 319 -23 q 87 489 87 252 q 203 864 87 726 q 518 1002 319 1002 q 783 913 673 1002 q 914 684 892 825 l 790 684 q 692 834 766 779 q 518 889 619 889 q 295 781 377 889 q 212 489 212 673 q 295 197 212 304 q 519 90 378 90 q 694 139 621 90 q 790 273 767 188 l 914 273 q 782 57 890 138 q 519 -23 675 -23 m 585 1069 l 446 1069 l 656 1272 l 810 1272 l 585 1069 z "},"ć":{"ha":777,"x_min":73,"x_max":715,"o":"m 715 507 l 597 507 q 533 602 582 565 q 408 639 484 639 q 252 566 310 639 q 194 368 194 492 q 252 167 194 242 q 408 92 311 92 q 531 125 482 92 q 597 220 581 159 l 715 220 q 618 52 699 117 q 409 -13 537 -13 q 164 91 255 -13 q 73 368 73 194 q 164 642 73 539 q 408 744 255 744 q 617 677 536 744 q 715 507 699 610 m 461 857 l 330 857 l 500 1086 l 650 1086 l 461 857 z "},"Ĉ":{"ha":994,"x_min":87,"x_max":914,"o":"m 519 -23 q 203 115 319 -23 q 87 489 87 252 q 203 864 87 726 q 518 1002 319 1002 q 783 913 673 1002 q 914 684 892 825 l 790 684 q 692 834 766 779 q 518 889 619 889 q 295 781 377 889 q 212 489 212 673 q 295 197 212 304 q 519 90 378 90 q 694 139 621 90 q 790 273 767 188 l 914 273 q 782 57 890 138 q 519 -23 675 -23 m 463 1272 l 574 1272 l 777 1069 l 640 1069 l 524 1190 l 513 1190 l 396 1069 l 259 1069 l 463 1272 z "},"ĉ":{"ha":777,"x_min":73,"x_max":715,"o":"m 715 507 l 597 507 q 533 602 582 565 q 408 639 484 639 q 252 566 310 639 q 194 368 194 492 q 252 167 194 242 q 408 92 311 92 q 531 125 482 92 q 597 220 581 159 l 715 220 q 618 52 699 117 q 409 -13 537 -13 q 164 91 255 -13 q 73 368 73 194 q 164 642 73 539 q 408 744 255 744 q 617 677 536 744 q 715 507 699 610 m 475 1063 l 667 833 l 532 833 l 412 987 l 401 987 l 281 833 l 147 833 l 338 1063 l 475 1063 z "},"Ċ":{"ha":994,"x_min":87,"x_max":914,"o":"m 519 -23 q 203 115 319 -23 q 87 489 87 252 q 203 864 87 726 q 518 1002 319 1002 q 783 913 673 1002 q 914 684 892 825 l 790 684 q 692 834 766 779 q 518 889 619 889 q 295 781 377 889 q 212 489 212 673 q 295 197 212 304 q 519 90 378 90 q 694 139 621 90 q 790 273 767 188 l 914 273 q 782 57 890 138 q 519 -23 675 -23 m 576 1094 q 564 1082 576 1094 q 518 1069 552 1069 q 460 1094 484 1069 q 436 1152 436 1118 q 460 1210 436 1185 q 518 1234 484 1234 q 576 1210 552 1234 q 600 1152 600 1185 q 576 1094 600 1118 z "},"ċ":{"ha":777,"x_min":73,"x_max":715,"o":"m 715 507 l 597 507 q 533 602 582 565 q 408 639 484 639 q 252 566 310 639 q 194 368 194 492 q 252 167 194 242 q 408 92 311 92 q 531 125 482 92 q 597 220 581 159 l 715 220 q 618 52 699 117 q 409 -13 537 -13 q 164 91 255 -13 q 73 368 73 194 q 164 642 73 539 q 408 744 255 744 q 617 677 536 744 q 715 507 699 610 m 468 898 q 455 886 468 898 q 407 873 442 873 q 346 898 372 873 q 320 960 320 924 q 346 1020 320 995 q 407 1046 371 1046 q 468 1020 443 1046 q 494 960 494 995 q 468 898 494 924 z "},"Č":{"ha":994,"x_min":87,"x_max":914,"o":"m 519 -23 q 203 115 319 -23 q 87 489 87 252 q 203 864 87 726 q 518 1002 319 1002 q 783 913 673 1002 q 914 684 892 825 l 790 684 q 692 834 766 779 q 518 889 619 889 q 295 781 377 889 q 212 489 212 673 q 295 197 212 304 q 519 90 378 90 q 694 139 621 90 q 790 273 767 188 l 914 273 q 782 57 890 138 q 519 -23 675 -23 m 463 1069 l 259 1272 l 396 1272 l 513 1152 l 524 1152 l 640 1272 l 777 1272 l 574 1069 l 463 1069 z "},"č":{"ha":777,"x_min":73,"x_max":715,"o":"m 715 507 l 597 507 q 533 602 582 565 q 408 639 484 639 q 252 566 310 639 q 194 368 194 492 q 252 167 194 242 q 408 92 311 92 q 531 125 482 92 q 597 220 581 159 l 715 220 q 618 52 699 117 q 409 -13 537 -13 q 164 91 255 -13 q 73 368 73 194 q 164 642 73 539 q 408 744 255 744 q 617 677 536 744 q 715 507 699 610 m 475 833 l 338 833 l 147 1063 l 281 1063 l 401 909 l 412 909 l 532 1063 l 667 1063 l 475 833 z "},"Ď":{"ha":1008,"x_min":125,"x_max":922,"o":"m 125 979 l 460 979 q 800 849 678 979 q 922 490 922 720 q 801 129 922 258 q 460 0 679 0 l 125 0 l 125 979 m 247 869 l 247 110 l 452 110 q 707 210 616 110 q 798 488 798 309 q 706 768 798 668 q 452 869 615 869 l 247 869 m 347 1068 l 144 1270 l 281 1270 l 397 1150 l 408 1150 l 525 1270 l 662 1270 l 458 1068 l 347 1068 z "},"ď":{"ha":941,"x_min":73,"x_max":954,"o":"m 839 1021 l 954 1021 l 920 690 l 839 690 l 839 1021 m 380 -13 q 157 90 240 -13 q 73 366 73 193 q 157 641 73 537 q 380 744 241 744 q 518 710 457 744 q 610 616 578 675 l 620 616 l 620 1021 l 736 1021 l 736 0 l 625 0 l 625 117 l 614 117 q 518 21 580 56 q 380 -13 456 -13 m 408 639 q 251 566 308 639 q 194 366 194 493 q 251 165 194 237 q 408 92 307 92 q 565 165 507 92 q 623 366 623 239 q 565 565 623 491 q 408 639 507 639 z "},"Đ":{"ha":1012,"x_min":18,"x_max":926,"o":"m 250 110 l 456 110 q 710 210 619 110 q 801 488 801 309 q 710 768 801 668 q 456 869 618 869 l 250 869 l 250 560 l 415 560 l 415 450 l 250 450 l 250 110 m 128 979 l 464 979 q 804 849 682 979 q 926 490 926 720 q 804 129 926 258 q 464 0 682 0 l 128 0 l 128 450 l 18 450 l 18 560 l 128 560 l 128 979 z "},"đ":{"ha":853,"x_min":73,"x_max":834,"o":"m 408 92 q 565 165 507 92 q 623 366 623 239 q 565 565 623 491 q 408 639 507 639 q 251 566 308 639 q 194 366 194 493 q 251 165 194 237 q 408 92 307 92 m 834 950 l 834 866 l 736 866 l 736 0 l 625 0 l 625 117 l 614 117 q 518 21 580 56 q 380 -13 456 -13 q 157 90 240 -13 q 73 366 73 193 q 157 641 73 537 q 380 744 241 744 q 518 710 457 744 q 610 616 578 675 l 620 616 l 620 866 l 444 866 l 444 950 l 620 950 l 620 1021 l 736 1021 l 736 950 l 834 950 z "},"Ē":{"ha":827,"x_min":125,"x_max":731,"o":"m 731 110 l 731 0 l 125 0 l 125 979 l 731 979 l 731 869 l 247 869 l 247 555 l 706 555 l 706 446 l 247 446 l 247 110 l 731 110 m 656 1191 l 656 1099 l 199 1099 l 199 1191 l 656 1191 z "},"ē":{"ha":793,"x_min":73,"x_max":720,"o":"m 401 641 q 258 582 314 641 q 195 426 201 523 l 597 426 q 542 582 595 523 q 401 641 488 641 m 594 189 l 711 189 q 603 41 684 94 q 403 -13 522 -13 q 162 89 251 -13 q 73 365 73 191 q 163 641 73 538 q 403 744 252 744 q 635 646 551 744 q 720 376 720 547 l 720 332 l 195 332 l 195 326 q 256 154 199 218 q 406 90 313 90 q 594 189 547 90 m 631 964 l 631 872 l 174 872 l 174 964 l 631 964 z "},"Ĕ":{"ha":827,"x_min":125,"x_max":731,"o":"m 731 110 l 731 0 l 125 0 l 125 979 l 731 979 l 731 869 l 247 869 l 247 555 l 706 555 l 706 446 l 247 446 l 247 110 l 731 110 m 181 1270 l 286 1270 q 324 1185 286 1217 q 428 1153 362 1153 q 532 1185 494 1153 q 570 1270 570 1217 l 675 1270 q 608 1123 675 1179 q 428 1068 542 1068 q 248 1123 314 1068 q 181 1270 181 1179 z "},"ĕ":{"ha":793,"x_min":73,"x_max":720,"o":"m 401 641 q 258 582 314 641 q 195 426 201 523 l 597 426 q 542 582 595 523 q 401 641 488 641 m 594 189 l 711 189 q 603 41 684 94 q 403 -13 522 -13 q 162 89 251 -13 q 73 365 73 191 q 163 641 73 538 q 403 744 252 744 q 635 646 551 744 q 720 376 720 547 l 720 332 l 195 332 l 195 326 q 256 154 199 218 q 406 90 313 90 q 594 189 547 90 m 155 1055 l 259 1055 q 297 957 259 995 q 401 920 334 920 q 506 957 469 920 q 544 1055 544 995 l 648 1055 q 582 895 648 957 q 401 833 515 833 q 221 895 288 833 q 155 1055 155 957 z "},"Ė":{"ha":827,"x_min":125,"x_max":731,"o":"m 731 110 l 731 0 l 125 0 l 125 979 l 731 979 l 731 869 l 247 869 l 247 555 l 706 555 l 706 446 l 247 446 l 247 110 l 731 110 m 486 1092 q 474 1080 486 1092 q 428 1068 462 1068 q 370 1092 394 1068 q 346 1150 346 1116 q 370 1208 346 1184 q 428 1232 394 1232 q 486 1208 462 1232 q 510 1150 510 1184 q 486 1092 510 1116 z "},"ė":{"ha":793,"x_min":73,"x_max":720,"o":"m 401 641 q 258 582 314 641 q 195 426 201 523 l 597 426 q 542 582 595 523 q 401 641 488 641 m 594 189 l 711 189 q 603 41 684 94 q 403 -13 522 -13 q 162 89 251 -13 q 73 365 73 191 q 163 641 73 538 q 403 744 252 744 q 635 646 551 744 q 720 376 720 547 l 720 332 l 195 332 l 195 326 q 256 154 199 218 q 406 90 313 90 q 594 189 547 90 m 464 898 q 451 886 464 898 q 403 873 438 873 q 342 898 368 873 q 316 960 316 924 q 341 1020 316 995 q 403 1046 367 1046 q 464 1020 439 1046 q 490 960 490 995 q 464 898 490 924 z "},"Ę":{"ha":827,"x_min":125,"x_max":731,"o":"m 125 0 l 125 979 l 731 979 l 731 869 l 247 869 l 247 555 l 706 555 l 706 446 l 247 446 l 247 110 l 731 110 l 731 8 l 703 -3 q 613 -55 649 -23 q 578 -129 578 -87 q 600 -178 578 -160 q 654 -195 623 -195 q 699 -191 682 -195 l 699 -282 q 628 -293 667 -293 q 509 -253 554 -293 q 463 -155 463 -214 q 489 -72 463 -109 q 559 -11 515 -34 l 559 0 l 125 0 z "},"ę":{"ha":793,"x_min":73,"x_max":720,"o":"m 534 -293 q 415 -253 460 -293 q 370 -155 370 -214 q 458 -14 370 -71 l 458 -3 q 403 -13 438 -13 q 162 89 251 -13 q 73 365 73 191 q 163 641 73 538 q 403 744 252 744 q 635 646 551 744 q 720 376 720 547 l 720 332 l 195 332 l 195 326 q 256 154 199 218 q 406 90 313 90 q 594 189 547 90 l 711 189 q 671 109 702 155 q 598 30 640 64 q 512 -54 541 -18 q 484 -129 484 -91 q 507 -178 484 -160 q 560 -195 529 -195 q 605 -191 589 -195 l 605 -282 q 534 -293 574 -293 m 401 641 q 258 582 314 641 q 195 426 201 523 l 597 426 q 542 582 595 523 q 401 641 488 641 z "},"Ě":{"ha":827,"x_min":125,"x_max":731,"o":"m 731 110 l 731 0 l 125 0 l 125 979 l 731 979 l 731 869 l 247 869 l 247 555 l 706 555 l 706 446 l 247 446 l 247 110 l 731 110 m 372 1068 l 169 1270 l 306 1270 l 422 1150 l 433 1150 l 550 1270 l 687 1270 l 484 1068 l 372 1068 z "},"ě":{"ha":793,"x_min":73,"x_max":720,"o":"m 401 641 q 258 582 314 641 q 195 426 201 523 l 597 426 q 542 582 595 523 q 401 641 488 641 m 594 189 l 711 189 q 603 41 684 94 q 403 -13 522 -13 q 162 89 251 -13 q 73 365 73 191 q 163 641 73 538 q 403 744 252 744 q 635 646 551 744 q 720 376 720 547 l 720 332 l 195 332 l 195 326 q 256 154 199 218 q 406 90 313 90 q 594 189 547 90 m 471 833 l 334 833 l 143 1063 l 277 1063 l 397 909 l 408 909 l 528 1063 l 663 1063 l 471 833 z "},"Ĝ":{"ha":1037,"x_min":87,"x_max":946,"o":"m 946 378 q 832 87 946 197 q 530 -23 718 -23 q 207 116 328 -23 q 87 490 87 255 q 208 862 87 722 q 530 1002 330 1002 q 803 917 693 1002 q 940 687 913 832 l 816 687 q 711 838 784 786 q 530 889 639 889 q 299 781 385 889 q 212 490 212 672 q 298 197 212 304 q 531 90 384 90 q 744 166 663 90 q 825 367 825 243 l 825 391 l 549 391 l 549 498 l 946 498 l 946 378 m 475 1270 l 586 1270 l 789 1068 l 652 1068 l 536 1188 l 525 1188 l 408 1068 l 271 1068 l 475 1270 z "},"ĝ":{"ha":846,"x_min":73,"x_max":736,"o":"m 406 114 q 565 185 507 114 q 623 376 623 256 q 564 568 623 496 q 406 639 506 639 q 250 568 305 639 q 194 376 194 498 q 250 184 194 255 q 406 114 305 114 m 411 -281 q 199 -227 280 -281 q 104 -81 118 -172 l 228 -81 q 286 -153 237 -126 q 411 -179 334 -179 q 565 -133 509 -179 q 620 -7 620 -87 l 620 137 l 609 137 q 515 44 574 77 q 380 11 455 11 q 156 111 239 11 q 73 376 73 211 q 157 643 73 542 q 380 744 240 744 q 519 709 456 744 q 614 615 583 674 l 625 615 l 625 731 l 736 731 l 736 -13 q 648 -208 736 -136 q 411 -281 560 -281 m 471 1063 l 663 833 l 528 833 l 408 987 l 397 987 l 277 833 l 143 833 l 334 1063 l 471 1063 z "},"Ğ":{"ha":1037,"x_min":87,"x_max":946,"o":"m 946 378 q 832 87 946 197 q 530 -23 718 -23 q 207 116 328 -23 q 87 490 87 255 q 208 862 87 722 q 530 1002 330 1002 q 803 917 693 1002 q 940 687 913 832 l 816 687 q 711 838 784 786 q 530 889 639 889 q 299 781 385 889 q 212 490 212 672 q 298 197 212 304 q 531 90 384 90 q 744 166 663 90 q 825 367 825 243 l 825 391 l 549 391 l 549 498 l 946 498 l 946 378 m 283 1270 l 388 1270 q 426 1185 388 1217 q 530 1153 465 1153 q 634 1185 596 1153 q 673 1270 673 1217 l 777 1270 q 711 1123 777 1179 q 530 1068 644 1068 q 350 1123 416 1068 q 283 1270 283 1179 z "},"ğ":{"ha":846,"x_min":73,"x_max":736,"o":"m 406 114 q 565 185 507 114 q 623 376 623 256 q 564 568 623 496 q 406 639 506 639 q 250 568 305 639 q 194 376 194 498 q 250 184 194 255 q 406 114 305 114 m 411 -281 q 199 -227 280 -281 q 104 -81 118 -172 l 228 -81 q 286 -153 237 -126 q 411 -179 334 -179 q 565 -133 509 -179 q 620 -7 620 -87 l 620 137 l 609 137 q 515 44 574 77 q 380 11 455 11 q 156 111 239 11 q 73 376 73 211 q 157 643 73 542 q 380 744 240 744 q 519 709 456 744 q 614 615 583 674 l 625 615 l 625 731 l 736 731 l 736 -13 q 648 -208 736 -136 q 411 -281 560 -281 m 155 1055 l 259 1055 q 297 957 259 995 q 401 920 334 920 q 506 957 469 920 q 544 1055 544 995 l 648 1055 q 582 895 648 957 q 401 833 515 833 q 221 895 288 833 q 155 1055 155 957 z "},"Ġ":{"ha":1037,"x_min":87,"x_max":946,"o":"m 946 378 q 832 87 946 197 q 530 -23 718 -23 q 207 116 328 -23 q 87 490 87 255 q 208 862 87 722 q 530 1002 330 1002 q 803 917 693 1002 q 940 687 913 832 l 816 687 q 711 838 784 786 q 530 889 639 889 q 299 781 385 889 q 212 490 212 672 q 298 197 212 304 q 531 90 384 90 q 744 166 663 90 q 825 367 825 243 l 825 391 l 549 391 l 549 498 l 946 498 l 946 378 m 588 1092 q 576 1080 588 1092 q 530 1068 564 1068 q 472 1092 496 1068 q 448 1150 448 1116 q 472 1208 448 1184 q 530 1232 496 1232 q 588 1208 564 1232 q 612 1150 612 1184 q 588 1092 612 1116 z "},"ġ":{"ha":846,"x_min":73,"x_max":736,"o":"m 406 114 q 565 185 507 114 q 623 376 623 256 q 564 568 623 496 q 406 639 506 639 q 250 568 305 639 q 194 376 194 498 q 250 184 194 255 q 406 114 305 114 m 411 -281 q 199 -227 280 -281 q 104 -81 118 -172 l 228 -81 q 286 -153 237 -126 q 411 -179 334 -179 q 565 -133 509 -179 q 620 -7 620 -87 l 620 137 l 609 137 q 515 44 574 77 q 380 11 455 11 q 156 111 239 11 q 73 376 73 211 q 157 643 73 542 q 380 744 240 744 q 519 709 456 744 q 614 615 583 674 l 625 615 l 625 731 l 736 731 l 736 -13 q 648 -208 736 -136 q 411 -281 560 -281 m 464 898 q 451 886 464 898 q 403 873 438 873 q 342 898 368 873 q 316 960 316 924 q 341 1020 316 995 q 403 1046 367 1046 q 464 1020 439 1046 q 490 960 490 995 q 464 898 490 924 z "},"Ģ":{"ha":1037,"x_min":87,"x_max":946,"o":"m 946 378 q 832 87 946 197 q 530 -23 718 -23 q 207 116 328 -23 q 87 490 87 255 q 208 862 87 722 q 530 1002 330 1002 q 803 917 693 1002 q 940 687 913 832 l 816 687 q 711 838 784 786 q 530 889 639 889 q 299 781 385 889 q 212 490 212 672 q 298 197 212 304 q 531 90 384 90 q 744 166 663 90 q 825 367 825 243 l 825 391 l 549 391 l 549 498 l 946 498 l 946 378 m 532 -351 l 419 -351 l 488 -96 l 612 -96 l 532 -351 z "},"ģ":{"ha":846,"x_min":73,"x_max":736,"o":"m 406 114 q 565 185 507 114 q 623 376 623 256 q 564 568 623 496 q 406 639 506 639 q 250 568 305 639 q 194 376 194 498 q 250 184 194 255 q 406 114 305 114 m 411 -281 q 199 -227 280 -281 q 104 -81 118 -172 l 228 -81 q 286 -153 237 -126 q 411 -179 334 -179 q 565 -133 509 -179 q 620 -7 620 -87 l 620 137 l 609 137 q 515 44 574 77 q 380 11 455 11 q 156 111 239 11 q 73 376 73 211 q 157 643 73 542 q 380 744 240 744 q 519 709 456 744 q 614 615 583 674 l 625 615 l 625 731 l 736 731 l 736 -13 q 648 -208 736 -136 q 411 -281 560 -281 m 410 1128 l 523 1128 l 454 872 l 330 872 l 410 1128 z "},"Ĥ":{"ha":1031,"x_min":125,"x_max":906,"o":"m 906 0 l 784 0 l 784 446 l 247 446 l 247 0 l 125 0 l 125 979 l 247 979 l 247 555 l 784 555 l 784 979 l 906 979 l 906 0 m 460 1270 l 571 1270 l 774 1068 l 637 1068 l 521 1188 l 510 1188 l 393 1068 l 256 1068 l 460 1270 z "},"ĥ":{"ha":825,"x_min":-84,"x_max":722,"o":"m 117 0 l 117 1021 l 233 1021 l 233 616 l 244 616 q 329 711 272 677 q 469 744 387 744 q 654 672 586 744 q 722 473 722 601 l 722 0 l 605 0 l 605 445 q 436 639 605 639 q 287 583 340 639 q 233 433 233 527 l 233 0 l 117 0 m 119 1313 l 231 1313 l 434 1111 l 297 1111 l 180 1231 l 170 1231 l 53 1111 l -84 1111 l 119 1313 z "},"Ħ":{"ha":1031,"x_min":33,"x_max":998,"o":"m 784 555 l 784 729 l 247 729 l 247 555 l 784 555 m 998 826 l 998 729 l 906 729 l 906 0 l 784 0 l 784 446 l 247 446 l 247 0 l 125 0 l 125 729 l 33 729 l 33 826 l 125 826 l 125 979 l 247 979 l 247 826 l 784 826 l 784 979 l 906 979 l 906 826 l 998 826 z "},"ħ":{"ha":825,"x_min":19,"x_max":722,"o":"m 233 616 l 244 616 q 329 711 272 677 q 469 744 387 744 q 654 672 586 744 q 722 473 722 601 l 722 0 l 605 0 l 605 445 q 436 639 605 639 q 287 583 340 639 q 233 433 233 527 l 233 0 l 117 0 l 117 866 l 19 866 l 19 950 l 117 950 l 117 1021 l 233 1021 l 233 950 l 410 950 l 410 866 l 233 866 l 233 616 z "},"Ĩ":{"ha":372,"x_min":-71,"x_max":441,"o":"m 247 0 l 125 0 l 125 979 l 247 979 l 247 0 m 284 1072 q 228 1082 254 1072 q 184 1109 202 1093 q 152 1140 167 1124 q 122 1167 137 1156 q 92 1178 106 1178 q 40 1154 56 1178 q 25 1072 25 1129 l -71 1072 q -30 1216 -71 1164 q 86 1269 12 1269 q 142 1258 116 1269 q 186 1231 168 1247 q 218 1200 203 1215 q 249 1173 233 1184 q 279 1162 264 1162 q 330 1187 315 1162 q 345 1269 345 1211 l 441 1269 q 400 1124 441 1177 q 284 1072 358 1072 z "},"ĩ":{"ha":342,"x_min":-85,"x_max":427,"o":"m 113 0 l 113 731 l 229 731 l 229 0 l 113 0 m 270 835 q 214 846 240 835 q 170 872 188 857 q 138 904 153 888 q 107 930 123 920 q 77 941 92 941 q 26 917 41 941 q 11 835 11 892 l -85 835 q -44 980 -85 927 q 72 1032 -2 1032 q 128 1021 102 1032 q 172 995 154 1010 q 204 963 189 979 q 234 937 219 947 q 264 926 250 926 q 316 950 300 926 q 331 1032 331 975 l 427 1032 q 386 887 427 940 q 270 835 344 835 z "},"Ī":{"ha":372,"x_min":-43,"x_max":414,"o":"m 247 0 l 125 0 l 125 979 l 247 979 l 247 0 m 414 1191 l 414 1099 l -43 1099 l -43 1191 l 414 1191 z "},"ī":{"ha":342,"x_min":-23,"x_max":365,"o":"m 113 0 l 113 731 l 229 731 l 229 0 l 113 0 m 365 964 l 365 872 l -23 872 l -23 964 l 365 964 z "},"Ĭ":{"ha":372,"x_min":-61,"x_max":433,"o":"m 247 0 l 125 0 l 125 979 l 247 979 l 247 0 m -61 1270 l 43 1270 q 82 1185 43 1217 q 186 1153 120 1153 q 290 1185 252 1153 q 328 1270 328 1217 l 433 1270 q 366 1123 433 1179 q 186 1068 300 1068 q 5 1123 72 1068 q -61 1270 -61 1179 z "},"ĭ":{"ha":342,"x_min":-77,"x_max":416,"o":"m 113 0 l 113 731 l 229 731 l 229 0 l 113 0 m -77 1055 l 27 1055 q 65 957 27 995 q 170 920 102 920 q 274 957 237 920 q 312 1055 312 995 l 416 1055 q 350 895 416 957 q 170 833 283 833 q -11 895 56 833 q -77 1055 -77 957 z "},"Į":{"ha":372,"x_min":29,"x_max":264,"o":"m 125 0 l 125 979 l 247 979 l 247 0 l 243 -2 q 144 -129 144 -62 q 165 -177 144 -158 q 220 -195 186 -195 q 264 -191 250 -195 l 264 -282 q 194 -293 234 -293 q 76 -254 122 -293 q 29 -155 29 -215 q 54 -68 29 -109 q 125 0 79 -28 z "},"į":{"ha":342,"x_min":12,"x_max":252,"o":"m 229 904 q 217 892 229 904 q 171 880 205 880 q 113 904 137 880 q 90 961 90 928 q 113 1018 90 994 q 171 1042 137 1042 q 229 1018 205 1042 q 252 961 252 994 q 229 904 252 928 m 113 3 l 113 731 l 229 731 l 229 0 l 226 -2 q 126 -129 126 -62 q 149 -178 126 -160 q 202 -195 171 -195 q 247 -191 231 -195 l 247 -282 q 176 -293 216 -293 q 57 -253 102 -293 q 12 -155 12 -214 q 113 3 12 -57 z "},"İ":{"ha":372,"x_min":104,"x_max":268,"o":"m 247 0 l 125 0 l 125 979 l 247 979 l 247 0 m 244 1092 q 232 1080 244 1092 q 186 1068 220 1068 q 128 1092 152 1068 q 104 1150 104 1116 q 128 1208 104 1184 q 186 1232 152 1232 q 244 1208 220 1232 q 268 1150 268 1184 q 244 1092 268 1116 z "},"ı":{"ha":342,"x_min":113,"x_max":229,"o":"m 113 0 l 113 731 l 229 731 l 229 0 l 113 0 z "},"Ĳ":{"ha":1119,"x_min":125,"x_max":994,"o":"m 247 0 l 125 0 l 125 979 l 247 979 l 247 0 m 430 229 l 551 229 q 597 128 553 167 q 709 90 640 90 q 830 137 787 90 q 872 273 872 184 l 872 979 l 994 979 l 994 273 q 918 55 994 133 q 709 -23 842 -23 q 508 47 586 -23 q 430 229 430 117 z "},"ĳ":{"ha":700,"x_min":90,"x_max":602,"o":"m 113 0 l 113 731 l 229 731 l 229 0 l 113 0 m 229 904 q 217 892 229 904 q 171 880 205 880 q 113 904 137 880 q 90 961 90 928 q 113 1018 90 994 q 171 1042 137 1042 q 229 1018 205 1042 q 252 961 252 994 q 229 904 252 928 m 579 731 l 579 -36 q 525 -200 579 -149 q 355 -251 471 -251 l 335 -251 l 335 -151 l 353 -151 q 438 -125 414 -151 q 463 -38 463 -100 l 463 731 l 579 731 m 578 904 q 567 892 578 904 q 521 880 555 880 q 463 904 487 880 q 439 961 439 928 q 463 1018 439 994 q 521 1042 487 1042 q 578 1018 555 1042 q 602 961 602 994 q 578 904 602 928 z "},"Ĵ":{"ha":747,"x_min":58,"x_max":821,"o":"m 58 229 l 180 229 q 225 128 182 167 q 337 90 269 90 q 458 137 416 90 q 500 273 500 184 l 500 979 l 623 979 l 623 273 q 547 55 623 133 q 338 -23 471 -23 q 136 47 214 -23 q 58 229 58 117 m 506 1270 l 617 1270 l 821 1068 l 684 1068 l 567 1188 l 556 1188 l 439 1068 l 302 1068 l 506 1270 z "},"ĵ":{"ha":342,"x_min":-87,"x_max":432,"o":"m 225 731 l 225 -36 q 171 -200 225 -149 q 1 -251 117 -251 l -19 -251 l -19 -151 l -1 -151 q 84 -125 60 -151 q 109 -38 109 -100 l 109 731 l 225 731 m 241 1063 l 432 833 l 298 833 l 178 987 l 167 987 l 47 833 l -87 833 l 104 1063 l 241 1063 z "},"Ķ":{"ha":915,"x_min":125,"x_max":876,"o":"m 247 0 l 125 0 l 125 979 l 247 979 l 247 503 l 258 503 l 686 979 l 840 979 l 448 556 l 876 0 l 718 0 l 364 471 l 247 342 l 247 0 m 445 -351 l 332 -351 l 401 -96 l 524 -96 l 445 -351 z "},"ķ":{"ha":754,"x_min":117,"x_max":726,"o":"m 244 412 l 562 731 l 705 731 l 390 418 l 726 0 l 577 0 l 303 342 l 233 277 l 233 0 l 117 0 l 117 1021 l 233 1021 l 233 412 l 244 412 m 411 -351 l 298 -351 l 367 -96 l 490 -96 l 411 -351 z "},"Ĺ":{"ha":789,"x_min":114,"x_max":719,"o":"m 719 110 l 719 0 l 125 0 l 125 979 l 247 979 l 247 110 l 719 110 m 252 1068 l 114 1068 l 324 1270 l 477 1270 l 252 1068 z "},"ĺ":{"ha":350,"x_min":103,"x_max":467,"o":"m 117 0 l 117 1021 l 233 1021 l 233 0 l 117 0 m 241 1111 l 103 1111 l 313 1313 l 467 1313 l 241 1111 z "},"Ļ":{"ha":789,"x_min":125,"x_max":719,"o":"m 719 110 l 719 0 l 125 0 l 125 979 l 247 979 l 247 110 l 719 110 m 424 -351 l 311 -351 l 380 -96 l 503 -96 l 424 -351 z "},"ļ":{"ha":350,"x_min":64,"x_max":256,"o":"m 117 0 l 117 1021 l 233 1021 l 233 0 l 117 0 m 177 -351 l 64 -351 l 133 -96 l 256 -96 l 177 -351 z "},"Ľ":{"ha":789,"x_min":125,"x_max":719,"o":"m 399 979 l 515 979 l 481 648 l 399 648 l 399 979 m 719 110 l 719 0 l 125 0 l 125 979 l 247 979 l 247 110 l 719 110 z "},"ľ":{"ha":437,"x_min":117,"x_max":451,"o":"m 336 1021 l 451 1021 l 417 690 l 336 690 l 336 1021 m 117 0 l 117 1021 l 233 1021 l 233 0 l 117 0 z "},"Ł":{"ha":789,"x_min":12,"x_max":719,"o":"m 247 110 l 719 110 l 719 0 l 125 0 l 125 488 l 12 436 l 12 533 l 125 585 l 125 979 l 247 979 l 247 640 l 445 730 l 445 633 l 247 543 l 247 110 z "},"ł":{"ha":350,"x_min":30,"x_max":320,"o":"m 320 674 l 320 577 l 233 536 l 233 0 l 117 0 l 117 479 l 30 438 l 30 535 l 117 576 l 117 1021 l 233 1021 l 233 633 l 320 674 z "},"Ń":{"ha":1031,"x_min":125,"x_max":906,"o":"m 245 0 l 125 0 l 125 979 l 243 979 l 774 217 l 785 217 l 785 979 l 906 979 l 906 0 l 787 0 l 256 759 l 245 759 l 245 0 m 582 1068 l 444 1068 l 654 1270 l 807 1270 l 582 1068 z "},"ń":{"ha":810,"x_min":110,"x_max":707,"o":"m 110 0 l 110 731 l 221 731 l 221 616 l 232 616 q 452 744 290 744 q 641 674 574 744 q 707 473 707 604 l 707 0 l 591 0 l 591 445 q 548 591 591 543 q 418 639 506 639 q 278 584 330 639 q 227 433 227 528 l 227 0 l 110 0 m 463 857 l 332 857 l 503 1086 l 652 1086 l 463 857 z "},"Ņ":{"ha":1031,"x_min":125,"x_max":906,"o":"m 245 0 l 125 0 l 125 979 l 243 979 l 774 217 l 785 217 l 785 979 l 906 979 l 906 0 l 787 0 l 256 759 l 245 759 l 245 0 m 517 -351 l 404 -351 l 473 -96 l 597 -96 l 517 -351 z "},"ņ":{"ha":810,"x_min":110,"x_max":707,"o":"m 110 0 l 110 731 l 221 731 l 221 616 l 232 616 q 452 744 290 744 q 641 674 574 744 q 707 473 707 604 l 707 0 l 591 0 l 591 445 q 548 591 591 543 q 418 639 506 639 q 278 584 330 639 q 227 433 227 528 l 227 0 l 110 0 m 411 -351 l 298 -351 l 367 -96 l 490 -96 l 411 -351 z "},"Ň":{"ha":1031,"x_min":125,"x_max":906,"o":"m 245 0 l 125 0 l 125 979 l 243 979 l 774 217 l 785 217 l 785 979 l 906 979 l 906 0 l 787 0 l 256 759 l 245 759 l 245 0 m 460 1068 l 256 1270 l 393 1270 l 510 1150 l 521 1150 l 637 1270 l 774 1270 l 571 1068 l 460 1068 z "},"ň":{"ha":810,"x_min":110,"x_max":707,"o":"m 110 0 l 110 731 l 221 731 l 221 616 l 232 616 q 452 744 290 744 q 641 674 574 744 q 707 473 707 604 l 707 0 l 591 0 l 591 445 q 548 591 591 543 q 418 639 506 639 q 278 584 330 639 q 227 433 227 528 l 227 0 l 110 0 m 477 833 l 340 833 l 149 1063 l 283 1063 l 404 909 l 414 909 l 534 1063 l 669 1063 l 477 833 z "},"Ō":{"ha":1071,"x_min":87,"x_max":984,"o":"m 536 1002 q 864 864 745 1002 q 984 490 984 726 q 864 115 984 254 q 536 -23 745 -23 q 207 115 327 -23 q 87 490 87 254 q 208 864 87 726 q 536 1002 329 1002 m 536 889 q 300 781 387 889 q 212 490 212 673 q 299 198 212 306 q 536 90 385 90 q 772 198 686 90 q 859 490 859 307 q 772 782 859 674 q 536 889 686 889 m 765 1191 l 765 1099 l 308 1099 l 308 1191 l 765 1191 z "},"ō":{"ha":821,"x_min":73,"x_max":747,"o":"m 657 89 q 612 38 657 89 q 410 -13 566 -13 q 164 89 254 -13 q 73 366 73 190 q 163 643 73 542 q 410 744 254 744 q 657 643 567 744 q 747 366 747 542 q 657 89 747 190 m 250 164 q 278 128 250 164 q 410 92 307 92 q 570 164 514 92 q 627 366 627 235 q 570 567 627 496 q 410 639 514 639 q 250 567 307 639 q 194 366 194 496 q 250 164 194 235 m 639 964 l 639 872 l 182 872 l 182 964 l 639 964 z "},"Ŏ":{"ha":1071,"x_min":87,"x_max":984,"o":"m 536 1002 q 864 864 745 1002 q 984 490 984 726 q 864 115 984 254 q 536 -23 745 -23 q 207 115 327 -23 q 87 490 87 254 q 208 864 87 726 q 536 1002 329 1002 m 536 889 q 300 781 387 889 q 212 490 212 673 q 299 198 212 306 q 536 90 385 90 q 772 198 686 90 q 859 490 859 307 q 772 782 859 674 q 536 889 686 889 m 290 1270 l 394 1270 q 432 1185 394 1217 q 536 1153 471 1153 q 641 1185 602 1153 q 679 1270 679 1217 l 783 1270 q 717 1123 783 1179 q 536 1068 650 1068 q 356 1123 422 1068 q 290 1270 290 1179 z "},"ŏ":{"ha":821,"x_min":73,"x_max":747,"o":"m 657 89 q 612 38 657 89 q 410 -13 566 -13 q 164 89 254 -13 q 73 366 73 190 q 163 643 73 542 q 410 744 254 744 q 657 643 567 744 q 747 366 747 542 q 657 89 747 190 m 250 164 q 278 128 250 164 q 410 92 307 92 q 570 164 514 92 q 627 366 627 235 q 570 567 627 496 q 410 639 514 639 q 250 567 307 639 q 194 366 194 496 q 250 164 194 235 m 162 1055 l 267 1055 q 304 957 267 995 q 409 920 342 920 q 514 957 476 920 q 551 1055 551 995 l 656 1055 q 589 895 656 957 q 409 833 523 833 q 229 895 295 833 q 162 1055 162 957 z "},"Ő":{"ha":1071,"x_min":87,"x_max":984,"o":"m 536 1002 q 864 864 745 1002 q 984 490 984 726 q 864 115 984 254 q 536 -23 745 -23 q 207 115 327 -23 q 87 490 87 254 q 208 864 87 726 q 536 1002 329 1002 m 536 889 q 300 781 387 889 q 212 490 212 673 q 299 198 212 306 q 536 90 385 90 q 772 198 686 90 q 859 490 859 307 q 772 782 859 674 q 536 889 686 889 m 709 1068 l 570 1068 l 781 1270 l 934 1270 l 709 1068 m 428 1068 l 290 1068 l 500 1270 l 653 1270 l 428 1068 z "},"ő":{"ha":821,"x_min":73,"x_max":768,"o":"m 657 89 q 612 38 657 89 q 410 -13 566 -13 q 164 89 254 -13 q 73 366 73 190 q 163 643 73 542 q 410 744 254 744 q 657 643 567 744 q 747 366 747 542 q 657 89 747 190 m 250 164 q 278 128 250 164 q 410 92 307 92 q 570 164 514 92 q 627 366 627 235 q 570 567 627 496 q 410 639 514 639 q 250 567 307 639 q 194 366 194 496 q 250 164 194 235 m 454 857 l 625 1086 l 768 1086 l 578 857 l 454 857 m 183 857 l 354 1086 l 496 1086 l 307 857 l 183 857 z "},"Œ":{"ha":1577,"x_min":87,"x_max":1480,"o":"m 543 889 q 301 782 390 889 q 212 490 212 675 q 301 196 212 303 q 543 90 389 90 q 775 196 690 90 q 860 490 860 303 q 775 782 860 675 q 543 889 691 889 m 874 0 l 874 168 l 863 168 q 727 30 819 82 q 530 -23 635 -23 q 206 115 326 -23 q 87 490 87 253 q 207 863 87 725 q 530 1002 326 1002 q 725 951 633 1002 q 863 818 818 900 l 874 818 l 874 979 l 1480 979 l 1480 869 l 984 869 l 984 555 l 1455 555 l 1455 446 l 984 446 l 984 110 l 1480 110 l 1480 0 l 874 0 z "},"œ":{"ha":1348,"x_min":73,"x_max":1274,"o":"m 957 -13 q 793 30 866 -13 q 692 142 720 72 l 682 142 q 579 30 653 72 q 410 -13 505 -13 q 163 89 254 -13 q 73 366 73 190 q 163 643 73 541 q 410 744 254 744 q 574 702 502 744 q 682 587 646 661 l 693 587 q 800 702 730 661 q 957 744 869 744 q 1190 646 1105 744 q 1274 377 1274 548 l 1274 332 l 749 332 l 749 327 q 810 155 753 218 q 960 91 867 91 q 1148 189 1102 91 l 1265 189 q 1157 41 1238 94 q 957 -13 1076 -13 m 1152 427 q 1096 583 1149 524 q 956 642 1042 642 q 812 583 869 642 q 749 427 755 524 l 1152 427 m 194 366 q 251 164 194 235 q 410 92 307 92 q 570 164 513 92 q 627 366 627 235 q 570 568 627 496 q 410 639 513 639 q 251 568 307 639 q 194 366 194 496 z "},"Ŕ":{"ha":907,"x_min":125,"x_max":840,"o":"m 247 870 l 247 496 l 488 496 q 633 544 582 496 q 684 683 684 593 q 631 821 684 771 q 482 870 577 870 l 247 870 m 247 387 l 247 0 l 125 0 l 125 979 l 498 979 q 725 899 640 979 q 810 687 810 819 q 758 510 810 585 q 614 406 706 435 l 840 0 l 697 0 l 488 387 l 247 387 m 479 1068 l 341 1068 l 551 1270 l 705 1270 l 479 1068 z "},"ŕ":{"ha":529,"x_min":110,"x_max":499,"o":"m 110 0 l 110 731 l 221 731 l 221 623 l 232 623 q 305 710 248 676 q 435 744 362 744 q 493 741 468 744 l 493 624 q 418 631 469 631 q 281 581 335 631 q 227 453 227 530 l 227 0 l 110 0 m 311 857 l 179 857 l 350 1086 l 499 1086 l 311 857 z "},"Ŗ":{"ha":907,"x_min":125,"x_max":840,"o":"m 247 870 l 247 496 l 488 496 q 633 544 582 496 q 684 683 684 593 q 631 821 684 771 q 482 870 577 870 l 247 870 m 247 387 l 247 0 l 125 0 l 125 979 l 498 979 q 725 899 640 979 q 810 687 810 819 q 758 510 810 585 q 614 406 706 435 l 840 0 l 697 0 l 488 387 l 247 387 m 415 -351 l 302 -351 l 371 -96 l 494 -96 l 415 -351 z "},"ŗ":{"ha":529,"x_min":57,"x_max":493,"o":"m 110 0 l 110 731 l 221 731 l 221 623 l 232 623 q 305 710 248 676 q 435 744 362 744 q 493 741 468 744 l 493 624 q 418 631 469 631 q 281 581 335 631 q 227 453 227 530 l 227 0 l 110 0 m 170 -351 l 57 -351 l 126 -96 l 250 -96 l 170 -351 z "},"Ř":{"ha":907,"x_min":125,"x_max":840,"o":"m 247 870 l 247 496 l 488 496 q 633 544 582 496 q 684 683 684 593 q 631 821 684 771 q 482 870 577 870 l 247 870 m 247 387 l 247 0 l 125 0 l 125 979 l 498 979 q 725 899 640 979 q 810 687 810 819 q 758 510 810 585 q 614 406 706 435 l 840 0 l 697 0 l 488 387 l 247 387 m 357 1068 l 154 1270 l 291 1270 l 408 1150 l 418 1150 l 535 1270 l 672 1270 l 469 1068 l 357 1068 z "},"ř":{"ha":529,"x_min":-3,"x_max":516,"o":"m 110 0 l 110 731 l 221 731 l 221 623 l 232 623 q 305 710 248 676 q 435 744 362 744 q 493 741 468 744 l 493 624 q 418 631 469 631 q 281 581 335 631 q 227 453 227 530 l 227 0 l 110 0 m 325 833 l 188 833 l -3 1063 l 131 1063 l 251 909 l 262 909 l 382 1063 l 516 1063 l 325 833 z "},"Ś":{"ha":885,"x_min":78,"x_max":807,"o":"m 78 256 l 201 256 q 281 134 213 179 q 453 88 349 88 q 617 136 552 88 q 682 256 682 184 q 634 360 682 319 q 486 427 587 401 l 360 459 q 167 555 227 492 q 106 723 106 618 q 202 925 106 848 q 452 1002 297 1002 q 690 926 594 1002 q 793 731 785 850 l 670 731 q 598 849 657 806 q 448 891 540 891 q 291 846 351 891 q 232 727 232 801 q 276 633 232 669 q 420 572 319 597 l 523 545 q 741 443 675 507 q 807 271 807 379 q 708 57 807 136 q 441 -23 609 -23 q 187 53 286 -23 q 78 256 87 129 m 519 1068 l 380 1068 l 591 1270 l 744 1270 l 519 1068 z "},"ś":{"ha":727,"x_min":73,"x_max":654,"o":"m 93 531 q 171 683 93 622 q 366 744 249 744 q 555 691 480 744 q 641 548 629 638 l 526 548 q 472 619 513 593 q 365 645 430 645 q 255 614 299 645 q 210 536 210 584 q 241 474 210 498 q 337 433 272 449 l 450 406 q 604 334 554 381 q 654 208 654 286 q 570 49 654 111 q 361 -13 487 -13 q 161 41 239 -13 q 73 186 83 96 l 193 186 q 252 112 208 139 q 365 85 296 85 q 486 117 439 85 q 534 199 534 149 q 418 302 534 274 l 292 333 q 141 405 189 358 q 93 531 93 452 m 420 857 l 288 857 l 459 1086 l 608 1086 l 420 857 z "},"Ŝ":{"ha":885,"x_min":78,"x_max":807,"o":"m 78 256 l 201 256 q 281 134 213 179 q 453 88 349 88 q 617 136 552 88 q 682 256 682 184 q 634 360 682 319 q 486 427 587 401 l 360 459 q 167 555 227 492 q 106 723 106 618 q 202 925 106 848 q 452 1002 297 1002 q 690 926 594 1002 q 793 731 785 850 l 670 731 q 598 849 657 806 q 448 891 540 891 q 291 846 351 891 q 232 727 232 801 q 276 633 232 669 q 420 572 319 597 l 523 545 q 741 443 675 507 q 807 271 807 379 q 708 57 807 136 q 441 -23 609 -23 q 187 53 286 -23 q 78 256 87 129 m 397 1270 l 508 1270 l 711 1068 l 574 1068 l 458 1188 l 447 1188 l 330 1068 l 193 1068 l 397 1270 z "},"ŝ":{"ha":727,"x_min":73,"x_max":654,"o":"m 93 531 q 171 683 93 622 q 366 744 249 744 q 555 691 480 744 q 641 548 629 638 l 526 548 q 472 619 513 593 q 365 645 430 645 q 255 614 299 645 q 210 536 210 584 q 241 474 210 498 q 337 433 272 449 l 450 406 q 604 334 554 381 q 654 208 654 286 q 570 49 654 111 q 361 -13 487 -13 q 161 41 239 -13 q 73 186 83 96 l 193 186 q 252 112 208 139 q 365 85 296 85 q 486 117 439 85 q 534 199 534 149 q 418 302 534 274 l 292 333 q 141 405 189 358 q 93 531 93 452 m 434 1063 l 625 833 l 491 833 l 371 987 l 360 987 l 240 833 l 106 833 l 297 1063 l 434 1063 z "},"Ş":{"ha":885,"x_min":78,"x_max":807,"o":"m 420 572 l 523 545 q 741 443 675 507 q 807 271 807 379 q 720 67 807 145 q 484 -22 633 -12 l 458 -90 q 565 -119 527 -90 q 604 -200 604 -148 q 559 -293 604 -258 q 438 -328 515 -328 q 339 -316 381 -328 l 339 -243 q 422 -252 372 -252 q 503 -203 503 -252 q 479 -169 503 -179 q 401 -159 455 -159 l 361 -159 l 361 -102 l 394 -21 q 172 65 257 -9 q 78 256 87 139 l 201 256 q 281 134 213 179 q 453 88 349 88 q 617 136 552 88 q 682 256 682 184 q 634 360 682 319 q 486 427 587 401 l 360 459 q 167 555 227 492 q 106 723 106 618 q 202 925 106 848 q 452 1002 297 1002 q 690 926 594 1002 q 793 731 785 850 l 670 731 q 598 849 657 806 q 448 891 540 891 q 291 846 351 891 q 232 727 232 801 q 276 633 232 669 q 420 572 319 597 z "},"ş":{"ha":727,"x_min":73,"x_max":654,"o":"m 337 433 l 450 406 q 604 334 554 381 q 654 208 654 286 q 585 61 654 121 q 408 -10 516 1 l 377 -90 q 485 -119 446 -90 q 523 -200 523 -148 q 478 -293 523 -258 q 357 -328 434 -328 q 258 -316 300 -328 l 258 -243 q 341 -252 291 -252 q 422 -203 422 -252 q 398 -169 422 -179 q 321 -159 374 -159 l 281 -159 l 281 -102 l 317 -11 q 148 51 213 -1 q 73 186 82 104 l 193 186 q 252 112 208 139 q 365 85 296 85 q 486 117 439 85 q 534 199 534 149 q 418 302 534 274 l 292 333 q 141 405 189 358 q 93 531 93 452 q 171 683 93 622 q 366 744 249 744 q 555 691 480 744 q 641 548 629 638 l 526 548 q 472 619 513 593 q 365 645 430 645 q 255 614 299 645 q 210 536 210 584 q 241 474 210 498 q 337 433 272 449 z "},"Š":{"ha":885,"x_min":78,"x_max":807,"o":"m 78 256 l 201 256 q 281 134 213 179 q 453 88 349 88 q 617 136 552 88 q 682 256 682 184 q 634 360 682 319 q 486 427 587 401 l 360 459 q 167 555 227 492 q 106 723 106 618 q 202 925 106 848 q 452 1002 297 1002 q 690 926 594 1002 q 793 731 785 850 l 670 731 q 598 849 657 806 q 448 891 540 891 q 291 846 351 891 q 232 727 232 801 q 276 633 232 669 q 420 572 319 597 l 523 545 q 741 443 675 507 q 807 271 807 379 q 708 57 807 136 q 441 -23 609 -23 q 187 53 286 -23 q 78 256 87 129 m 397 1068 l 193 1270 l 330 1270 l 447 1150 l 458 1150 l 574 1270 l 711 1270 l 508 1068 l 397 1068 z "},"š":{"ha":727,"x_min":73,"x_max":654,"o":"m 93 531 q 171 683 93 622 q 366 744 249 744 q 555 691 480 744 q 641 548 629 638 l 526 548 q 472 619 513 593 q 365 645 430 645 q 255 614 299 645 q 210 536 210 584 q 241 474 210 498 q 337 433 272 449 l 450 406 q 604 334 554 381 q 654 208 654 286 q 570 49 654 111 q 361 -13 487 -13 q 161 41 239 -13 q 73 186 83 96 l 193 186 q 252 112 208 139 q 365 85 296 85 q 486 117 439 85 q 534 199 534 149 q 418 302 534 274 l 292 333 q 141 405 189 358 q 93 531 93 452 m 434 833 l 297 833 l 106 1063 l 240 1063 l 360 909 l 371 909 l 491 1063 l 625 1063 l 434 833 z "},"Ţ":{"ha":880,"x_min":64,"x_max":817,"o":"m 501 15 l 501 0 l 467 -90 q 574 -119 536 -90 q 612 -200 612 -148 q 568 -293 612 -258 q 447 -328 524 -328 q 348 -316 389 -328 l 348 -243 q 431 -252 380 -252 q 511 -203 511 -252 q 488 -169 511 -179 q 410 -159 464 -159 l 370 -159 l 370 -102 l 412 0 l 379 0 l 379 869 l 64 869 l 64 979 l 817 979 l 817 869 l 501 869 l 501 15 z "},"ţ":{"ha":505,"x_min":41,"x_max":444,"o":"m 332 -4 l 298 -90 q 406 -119 368 -90 q 444 -200 444 -148 q 400 -293 444 -258 q 279 -328 355 -328 q 180 -316 221 -328 l 180 -243 q 262 -252 212 -252 q 343 -203 343 -252 q 319 -169 343 -179 q 242 -159 296 -159 l 202 -159 l 202 -102 l 249 14 q 180 77 202 34 q 159 190 159 119 l 159 633 l 41 633 l 41 731 l 159 731 l 159 920 l 275 920 l 275 731 l 438 731 l 438 633 l 275 633 l 275 220 q 301 126 275 155 q 384 97 327 97 q 438 100 409 97 l 438 1 q 370 -5 399 -5 q 332 -4 355 -5 z "},"Ť":{"ha":880,"x_min":64,"x_max":817,"o":"m 501 0 l 379 0 l 379 869 l 64 869 l 64 979 l 817 979 l 817 869 l 501 869 l 501 0 m 385 1068 l 181 1270 l 318 1270 l 435 1150 l 446 1150 l 562 1270 l 699 1270 l 496 1068 l 385 1068 z "},"ť":{"ha":505,"x_min":41,"x_max":481,"o":"m 366 1166 l 481 1166 l 447 836 l 366 836 l 366 1166 m 159 920 l 275 920 l 275 731 l 438 731 l 438 633 l 275 633 l 275 220 q 301 126 275 155 q 384 97 327 97 q 438 100 409 97 l 438 1 q 370 -5 399 -5 q 208 40 256 -5 q 159 190 159 85 l 159 633 l 41 633 l 41 731 l 159 731 l 159 920 z "},"Ŧ":{"ha":880,"x_min":64,"x_max":817,"o":"m 817 869 l 501 869 l 501 538 l 708 538 l 708 441 l 501 441 l 501 0 l 379 0 l 379 441 l 172 441 l 172 538 l 379 538 l 379 869 l 64 869 l 64 979 l 817 979 l 817 869 z "},"ŧ":{"ha":501,"x_min":38,"x_max":444,"o":"m 444 336 l 275 336 l 275 220 q 301 126 275 155 q 384 97 327 97 q 438 100 409 97 l 438 1 q 370 -5 399 -5 q 208 40 256 -5 q 159 190 159 85 l 159 336 l 38 336 l 38 433 l 159 433 l 159 633 l 41 633 l 41 731 l 159 731 l 159 920 l 275 920 l 275 731 l 438 731 l 438 633 l 275 633 l 275 433 l 444 433 l 444 336 z "},"Ũ":{"ha":1034,"x_min":128,"x_max":905,"o":"m 250 979 l 250 345 q 321 160 250 231 q 517 90 392 90 q 712 160 642 90 q 783 345 783 231 l 783 979 l 905 979 l 905 336 q 801 77 905 177 q 517 -23 696 -23 q 233 77 338 -23 q 128 336 128 177 l 128 979 l 250 979 m 615 1072 q 559 1082 585 1072 q 515 1109 533 1093 q 483 1140 498 1124 q 453 1167 468 1156 q 422 1178 437 1178 q 371 1154 387 1178 q 356 1072 356 1129 l 260 1072 q 301 1216 260 1164 q 417 1269 343 1269 q 473 1258 447 1269 q 517 1231 499 1247 q 549 1200 534 1215 q 579 1173 564 1184 q 610 1162 595 1162 q 661 1187 646 1162 q 676 1269 676 1211 l 772 1269 q 731 1124 772 1177 q 615 1072 689 1072 z "},"ũ":{"ha":811,"x_min":103,"x_max":701,"o":"m 701 731 l 701 0 l 590 0 l 590 115 l 579 115 q 494 20 551 53 q 353 -13 436 -13 q 167 57 231 -13 q 103 258 103 127 l 103 731 l 220 731 l 220 286 q 259 140 220 186 q 385 94 298 94 q 533 148 481 94 q 585 298 585 201 l 585 731 l 701 731 m 501 835 q 445 846 471 835 q 401 872 419 857 q 369 904 384 888 q 339 930 354 920 q 309 941 323 941 q 257 917 273 941 q 242 835 242 892 l 146 835 q 188 980 146 927 q 303 1032 229 1032 q 359 1021 333 1032 q 403 995 385 1010 q 435 963 420 979 q 466 937 450 947 q 496 926 481 926 q 547 950 532 926 q 562 1032 562 975 l 659 1032 q 617 887 659 940 q 501 835 575 835 z "},"Ū":{"ha":1034,"x_min":128,"x_max":905,"o":"m 250 979 l 250 345 q 321 160 250 231 q 517 90 392 90 q 712 160 642 90 q 783 345 783 231 l 783 979 l 905 979 l 905 336 q 801 77 905 177 q 517 -23 696 -23 q 233 77 338 -23 q 128 336 128 177 l 128 979 l 250 979 m 745 1191 l 745 1099 l 288 1099 l 288 1191 l 745 1191 z "},"ū":{"ha":811,"x_min":103,"x_max":701,"o":"m 701 731 l 701 0 l 590 0 l 590 115 l 579 115 q 494 20 551 53 q 353 -13 436 -13 q 167 57 231 -13 q 103 258 103 127 l 103 731 l 220 731 l 220 286 q 259 140 220 186 q 385 94 298 94 q 533 148 481 94 q 585 298 585 201 l 585 731 l 701 731 m 631 964 l 631 872 l 174 872 l 174 964 l 631 964 z "},"Ŭ":{"ha":1034,"x_min":128,"x_max":905,"o":"m 250 979 l 250 345 q 321 160 250 231 q 517 90 392 90 q 712 160 642 90 q 783 345 783 231 l 783 979 l 905 979 l 905 336 q 801 77 905 177 q 517 -23 696 -23 q 233 77 338 -23 q 128 336 128 177 l 128 979 l 250 979 m 270 1270 l 374 1270 q 413 1185 374 1217 q 517 1153 451 1153 q 621 1185 583 1153 q 659 1270 659 1217 l 764 1270 q 697 1123 764 1179 q 517 1068 631 1068 q 336 1123 403 1068 q 270 1270 270 1179 z "},"ŭ":{"ha":811,"x_min":103,"x_max":701,"o":"m 701 731 l 701 0 l 590 0 l 590 115 l 579 115 q 494 20 551 53 q 353 -13 436 -13 q 167 57 231 -13 q 103 258 103 127 l 103 731 l 220 731 l 220 286 q 259 140 220 186 q 385 94 298 94 q 533 148 481 94 q 585 298 585 201 l 585 731 l 701 731 m 154 1055 l 258 1055 q 296 957 258 995 q 401 920 334 920 q 506 957 468 920 q 543 1055 543 995 l 648 1055 q 581 895 648 957 q 401 833 515 833 q 220 895 287 833 q 154 1055 154 957 z "},"Ů":{"ha":1034,"x_min":128,"x_max":905,"o":"m 250 979 l 250 345 q 321 160 250 231 q 517 90 392 90 q 712 160 642 90 q 783 345 783 231 l 783 979 l 905 979 l 905 336 q 801 77 905 177 q 517 -23 696 -23 q 233 77 338 -23 q 128 336 128 177 l 128 979 l 250 979 m 612 1090 q 593 1071 612 1090 q 517 1052 573 1052 q 421 1090 460 1052 q 382 1185 382 1129 q 421 1280 382 1242 q 517 1319 460 1319 q 612 1280 573 1319 q 652 1185 652 1242 q 612 1090 652 1129 m 466 1135 q 476 1124 466 1135 q 517 1114 486 1114 q 568 1135 548 1114 q 588 1185 588 1155 q 568 1237 588 1217 q 517 1257 548 1257 q 466 1237 486 1257 q 446 1185 446 1217 q 466 1135 446 1155 z "},"ů":{"ha":811,"x_min":103,"x_max":701,"o":"m 701 731 l 701 0 l 590 0 l 590 115 l 579 115 q 494 20 551 53 q 353 -13 436 -13 q 167 57 231 -13 q 103 258 103 127 l 103 731 l 220 731 l 220 286 q 259 140 220 186 q 385 94 298 94 q 533 148 481 94 q 585 298 585 201 l 585 731 l 701 731 m 513 878 q 490 855 513 878 q 402 833 467 833 q 291 878 337 833 q 245 988 245 923 q 291 1098 245 1053 q 402 1143 337 1143 q 513 1098 467 1143 q 559 988 559 1053 q 513 878 559 923 m 343 928 q 355 917 343 928 q 402 905 367 905 q 461 928 437 905 q 485 988 485 952 q 461 1048 485 1024 q 402 1072 437 1072 q 343 1048 367 1072 q 319 988 319 1024 q 343 928 319 952 z "},"Ű":{"ha":1034,"x_min":128,"x_max":914,"o":"m 250 979 l 250 345 q 321 160 250 231 q 517 90 392 90 q 712 160 642 90 q 783 345 783 231 l 783 979 l 905 979 l 905 336 q 801 77 905 177 q 517 -23 696 -23 q 233 77 338 -23 q 128 336 128 177 l 128 979 l 250 979 m 689 1068 l 551 1068 l 761 1270 l 914 1270 l 689 1068 m 408 1068 l 270 1068 l 480 1270 l 633 1270 l 408 1068 z "},"ű":{"ha":811,"x_min":103,"x_max":760,"o":"m 701 731 l 701 0 l 590 0 l 590 115 l 579 115 q 494 20 551 53 q 353 -13 436 -13 q 167 57 231 -13 q 103 258 103 127 l 103 731 l 220 731 l 220 286 q 259 140 220 186 q 385 94 298 94 q 533 148 481 94 q 585 298 585 201 l 585 731 l 701 731 m 446 857 l 617 1086 l 760 1086 l 570 857 l 446 857 m 175 857 l 346 1086 l 488 1086 l 298 857 l 175 857 z "},"Ų":{"ha":1034,"x_min":128,"x_max":905,"o":"m 694 -293 q 574 -253 620 -293 q 529 -155 529 -214 q 618 -14 529 -71 l 618 -3 q 574 -17 604 -12 q 517 -23 544 -23 q 235 75 341 -23 q 128 336 128 174 l 128 979 l 250 979 l 250 345 q 323 159 250 228 q 517 90 395 90 q 711 159 638 90 q 783 345 783 228 l 783 979 l 905 979 l 905 336 q 866 169 905 244 q 734 9 826 93 q 644 -129 644 -71 q 666 -178 644 -160 q 720 -195 688 -195 q 764 -191 748 -195 l 764 -282 q 694 -293 733 -293 z "},"ų":{"ha":811,"x_min":103,"x_max":701,"o":"m 696 -282 q 625 -293 665 -293 q 507 -254 553 -293 q 460 -155 460 -215 q 497 -56 460 -100 q 590 8 534 -12 l 590 115 l 579 115 q 494 20 551 53 q 353 -13 436 -13 q 167 57 231 -13 q 103 258 103 127 l 103 731 l 220 731 l 220 286 q 259 140 220 186 q 385 94 298 94 q 533 148 481 94 q 585 298 585 201 l 585 731 l 701 731 l 701 0 l 693 -3 q 607 -59 638 -26 q 575 -129 575 -92 q 596 -177 575 -158 q 651 -195 618 -195 q 696 -191 681 -195 l 696 -282 z "},"Ŵ":{"ha":1344,"x_min":61,"x_max":1283,"o":"m 668 772 l 443 0 l 328 0 l 61 979 l 189 979 l 383 183 l 391 183 l 610 979 l 734 979 l 953 183 l 961 183 l 1156 979 l 1283 979 l 1017 0 l 901 0 l 676 772 l 668 772 m 616 1270 l 728 1270 l 931 1068 l 794 1068 l 677 1188 l 667 1188 l 550 1068 l 413 1068 l 616 1270 z "},"ŵ":{"ha":1076,"x_min":46,"x_max":1029,"o":"m 1029 731 l 825 0 l 706 0 l 543 566 l 532 566 l 369 0 l 251 0 l 46 731 l 164 731 l 308 146 l 319 146 l 482 731 l 594 731 l 758 146 l 768 146 l 912 731 l 1029 731 m 606 1063 l 798 833 l 663 833 l 543 987 l 532 987 l 412 833 l 278 833 l 469 1063 l 606 1063 z "},"Ŷ":{"ha":911,"x_min":47,"x_max":864,"o":"m 517 0 l 395 0 l 395 421 l 47 979 l 186 979 l 450 544 l 461 544 l 725 979 l 864 979 l 517 421 l 517 0 m 400 1270 l 511 1270 l 715 1068 l 578 1068 l 461 1188 l 450 1188 l 334 1068 l 197 1068 l 400 1270 z "},"ŷ":{"ha":754,"x_min":46,"x_max":708,"o":"m 172 -264 q 120 -260 144 -264 l 120 -161 q 169 -164 138 -164 q 250 -137 220 -164 q 303 -44 280 -110 l 317 -1 l 46 731 l 172 731 l 373 130 l 384 130 l 584 731 l 708 731 l 422 -45 q 323 -218 376 -172 q 172 -264 270 -264 m 442 1063 l 633 833 l 499 833 l 379 987 l 368 987 l 248 833 l 114 833 l 305 1063 l 442 1063 z "},"Ÿ":{"ha":911,"x_min":47,"x_max":864,"o":"m 517 0 l 395 0 l 395 421 l 47 979 l 186 979 l 450 544 l 461 544 l 725 979 l 864 979 l 517 421 l 517 0 m 377 1092 q 365 1080 377 1092 q 319 1068 353 1068 q 261 1092 285 1068 q 237 1150 237 1116 q 261 1208 237 1184 q 319 1232 285 1232 q 377 1208 353 1232 q 401 1150 401 1184 q 377 1092 401 1116 m 651 1092 q 639 1080 651 1092 q 593 1068 627 1068 q 535 1092 559 1068 q 511 1150 511 1116 q 535 1208 511 1184 q 593 1232 559 1232 q 651 1208 627 1232 q 675 1150 675 1184 q 651 1092 675 1116 z "},"Ź":{"ha":919,"x_min":98,"x_max":821,"o":"m 98 0 l 98 87 l 652 858 l 652 869 l 117 869 l 117 979 l 810 979 l 810 892 l 258 121 l 258 110 l 821 110 l 821 0 l 98 0 m 526 1068 l 388 1068 l 598 1270 l 751 1270 l 526 1068 z "},"ź":{"ha":749,"x_min":93,"x_max":656,"o":"m 93 0 l 93 85 l 515 623 l 515 633 l 94 633 l 94 731 l 654 731 l 654 644 l 234 109 l 234 98 l 656 98 l 656 0 l 93 0 m 424 857 l 292 857 l 463 1086 l 612 1086 l 424 857 z "},"Ż":{"ha":919,"x_min":98,"x_max":821,"o":"m 98 0 l 98 87 l 652 858 l 652 869 l 117 869 l 117 979 l 810 979 l 810 892 l 258 121 l 258 110 l 821 110 l 821 0 l 98 0 m 518 1092 q 506 1080 518 1092 q 460 1068 494 1068 q 402 1092 426 1068 q 378 1150 378 1116 q 402 1208 378 1184 q 460 1232 426 1232 q 518 1208 494 1232 q 542 1150 542 1184 q 518 1092 542 1116 z "},"ż":{"ha":749,"x_min":93,"x_max":656,"o":"m 93 0 l 93 85 l 515 623 l 515 633 l 94 633 l 94 731 l 654 731 l 654 644 l 234 109 l 234 98 l 656 98 l 656 0 l 93 0 m 431 898 q 418 886 431 898 q 370 873 406 873 q 308 898 334 873 q 283 960 283 924 q 308 1020 283 995 q 370 1046 334 1046 q 431 1020 406 1046 q 456 960 456 995 q 431 898 456 924 z "},"Ž":{"ha":919,"x_min":98,"x_max":821,"o":"m 98 0 l 98 87 l 652 858 l 652 869 l 117 869 l 117 979 l 810 979 l 810 892 l 258 121 l 258 110 l 821 110 l 821 0 l 98 0 m 404 1068 l 201 1270 l 338 1270 l 454 1150 l 465 1150 l 582 1270 l 719 1270 l 515 1068 l 404 1068 z "},"ž":{"ha":749,"x_min":93,"x_max":656,"o":"m 93 0 l 93 85 l 515 623 l 515 633 l 94 633 l 94 731 l 654 731 l 654 644 l 234 109 l 234 98 l 656 98 l 656 0 l 93 0 m 438 833 l 301 833 l 110 1063 l 244 1063 l 364 909 l 375 909 l 495 1063 l 629 1063 l 438 833 z "},"Ə":{"ha":1021,"x_min":80,"x_max":928,"o":"m 810 118 q 751 47 810 118 q 500 -23 692 -23 q 196 107 309 -23 q 80 460 83 237 l 80 514 l 797 514 l 797 532 q 711 789 798 690 q 484 889 623 889 q 220 732 292 889 l 95 732 q 242 930 139 859 q 487 1002 346 1002 q 809 863 690 1002 q 928 488 928 724 q 810 118 928 258 m 503 90 q 700 175 621 90 q 794 406 779 261 l 214 406 q 302 173 226 257 q 503 90 378 90 z "},"ƒ":{"ha":901,"x_min":52,"x_max":843,"o":"m 843 981 l 843 874 q 714 889 794 889 q 541 739 562 889 l 519 593 l 770 593 l 770 495 l 505 495 l 466 218 q 382 40 448 96 q 200 -16 317 -16 q 52 2 125 -16 l 52 115 q 189 92 119 92 q 299 123 258 92 q 349 227 339 155 l 388 495 l 160 495 l 160 593 l 401 593 l 424 747 q 512 931 441 867 q 699 995 583 995 q 843 981 788 995 z "},"Ơ":{"ha":1087,"x_min":87,"x_max":1000,"o":"m 536 -23 q 207 115 327 -23 q 87 490 87 254 q 208 864 87 726 q 536 1002 329 1002 q 677 988 587 1002 q 819 975 768 975 q 877 989 861 975 q 892 1038 892 1003 l 892 1133 l 1000 1133 l 1000 1002 q 965 918 1000 949 q 877 886 929 886 l 837 886 l 837 878 q 943 725 903 833 q 984 490 984 616 q 864 115 984 254 q 536 -23 745 -23 m 536 90 q 772 198 686 90 q 859 490 859 307 q 772 782 859 674 q 536 889 686 889 q 300 781 387 889 q 212 490 212 673 q 299 198 212 306 q 536 90 385 90 z "},"ơ":{"ha":850,"x_min":73,"x_max":777,"o":"m 251 164 q 279 128 251 164 q 410 92 307 92 q 570 164 513 92 q 627 366 627 235 q 570 568 627 496 q 410 639 513 639 q 251 568 307 639 q 194 366 194 496 q 251 164 194 235 m 747 366 q 657 89 747 190 q 410 -13 567 -13 q 163 89 254 -13 q 73 366 73 190 q 163 643 73 541 q 410 744 254 744 q 508 735 455 744 q 595 727 560 727 q 654 741 638 727 q 669 790 669 755 l 669 883 l 777 883 l 777 755 q 748 675 777 704 q 680 646 718 646 l 642 646 l 642 642 q 719 535 690 608 q 747 366 747 463 z "},"Ư":{"ha":1125,"x_min":128,"x_max":1076,"o":"m 799 75 q 746 26 799 75 q 517 -23 692 -23 q 235 75 341 -23 q 128 336 128 174 l 128 979 l 250 979 l 250 345 q 323 159 250 228 q 517 90 395 90 q 711 159 638 90 q 783 345 783 228 l 783 979 l 907 979 q 954 993 939 979 q 968 1038 968 1008 l 968 1146 l 1076 1146 l 1076 1018 q 1039 924 1076 957 q 939 892 1002 892 l 905 892 l 905 336 q 799 75 905 174 z "},"ư":{"ha":892,"x_min":103,"x_max":852,"o":"m 579 115 q 494 20 551 53 q 353 -13 436 -13 q 167 57 231 -13 q 103 258 103 127 l 103 731 l 220 731 l 220 286 q 259 140 220 186 q 385 94 298 94 q 533 148 481 94 q 585 298 585 201 l 585 731 l 682 731 q 729 746 714 731 q 744 791 744 760 l 744 894 l 852 894 l 852 770 q 814 677 852 709 q 715 644 777 644 l 701 644 l 701 0 l 590 0 l 590 115 l 579 115 z "},"Ǆ":{"ha":1927,"x_min":125,"x_max":1830,"o":"m 125 979 l 460 979 q 800 849 678 979 q 922 490 922 720 q 801 129 922 258 q 460 0 679 0 l 125 0 l 125 979 m 247 869 l 247 110 l 452 110 q 707 210 616 110 q 798 488 798 309 q 706 768 798 668 q 452 869 615 869 l 247 869 m 1106 0 l 1106 87 l 1660 858 l 1660 869 l 1125 869 l 1125 979 l 1818 979 l 1818 892 l 1267 121 l 1267 110 l 1830 110 l 1830 0 l 1106 0 m 1413 1068 l 1209 1270 l 1346 1270 l 1463 1150 l 1474 1150 l 1590 1270 l 1727 1270 l 1524 1068 l 1413 1068 z "},"ǅ":{"ha":1757,"x_min":125,"x_max":1664,"o":"m 125 979 l 460 979 q 800 849 678 979 q 922 490 922 720 q 801 129 922 258 q 460 0 679 0 l 125 0 l 125 979 m 247 869 l 247 110 l 452 110 q 707 210 616 110 q 798 488 798 309 q 706 768 798 668 q 452 869 615 869 l 247 869 m 1101 0 l 1101 85 l 1523 623 l 1523 633 l 1102 633 l 1102 731 l 1662 731 l 1662 644 l 1242 109 l 1242 98 l 1664 98 l 1664 0 l 1101 0 m 1447 833 l 1310 833 l 1118 1063 l 1253 1063 l 1373 909 l 1383 909 l 1503 1063 l 1638 1063 l 1447 833 z "},"ǆ":{"ha":1602,"x_min":73,"x_max":1509,"o":"m 380 -13 q 157 90 240 -13 q 73 366 73 193 q 157 641 73 537 q 380 744 241 744 q 518 710 457 744 q 610 616 578 675 l 620 616 l 620 1021 l 736 1021 l 736 0 l 625 0 l 625 117 l 614 117 q 518 21 580 56 q 380 -13 456 -13 m 408 639 q 251 566 308 639 q 194 366 194 493 q 251 165 194 237 q 408 92 307 92 q 565 165 507 92 q 623 366 623 239 q 565 565 623 491 q 408 639 507 639 m 946 0 l 946 85 l 1368 623 l 1368 633 l 947 633 l 947 731 l 1507 731 l 1507 644 l 1087 109 l 1087 98 l 1509 98 l 1509 0 l 946 0 m 1291 833 l 1154 833 l 963 1063 l 1097 1063 l 1217 909 l 1228 909 l 1348 1063 l 1482 1063 l 1291 833 z "},"Ǉ":{"ha":1536,"x_min":125,"x_max":1411,"o":"m 719 110 l 719 0 l 125 0 l 125 979 l 247 979 l 247 110 l 719 110 m 847 229 l 968 229 q 1014 128 970 167 q 1126 90 1057 90 q 1247 137 1204 90 q 1289 273 1289 184 l 1289 979 l 1411 979 l 1411 273 q 1335 55 1411 133 q 1126 -23 1259 -23 q 925 47 1003 -23 q 847 229 847 117 z "},"ǈ":{"ha":1139,"x_min":125,"x_max":1041,"o":"m 719 110 l 719 0 l 125 0 l 125 979 l 247 979 l 247 110 l 719 110 m 1018 731 l 1018 -36 q 964 -200 1018 -149 q 794 -251 909 -251 l 774 -251 l 774 -151 l 791 -151 q 877 -125 852 -151 q 901 -38 901 -100 l 901 731 l 1018 731 m 1017 904 q 1005 892 1017 904 q 960 880 993 880 q 902 904 926 880 q 878 961 878 928 q 902 1018 878 994 q 960 1042 926 1042 q 1017 1018 993 1042 q 1041 961 1041 994 q 1017 904 1041 928 z "},"ǉ":{"ha":700,"x_min":117,"x_max":602,"o":"m 117 0 l 117 1021 l 233 1021 l 233 0 l 117 0 m 579 731 l 579 -36 q 525 -200 579 -149 q 355 -251 471 -251 l 335 -251 l 335 -151 l 353 -151 q 438 -125 414 -151 q 463 -38 463 -100 l 463 731 l 579 731 m 578 904 q 567 892 578 904 q 521 880 555 880 q 463 904 487 880 q 439 961 439 928 q 463 1018 439 994 q 521 1042 487 1042 q 578 1018 555 1042 q 602 961 602 994 q 578 904 602 928 z "},"Ǌ":{"ha":1778,"x_min":125,"x_max":1653,"o":"m 245 0 l 125 0 l 125 979 l 243 979 l 774 217 l 785 217 l 785 979 l 906 979 l 906 0 l 787 0 l 256 759 l 245 759 l 245 0 m 1089 229 l 1211 229 q 1256 128 1213 167 q 1368 90 1299 90 q 1489 137 1447 90 q 1531 273 1531 184 l 1531 979 l 1653 979 l 1653 273 q 1577 55 1653 133 q 1369 -23 1501 -23 q 1167 47 1245 -23 q 1089 229 1089 117 z "},"ǋ":{"ha":1381,"x_min":125,"x_max":1283,"o":"m 245 0 l 125 0 l 125 979 l 243 979 l 774 217 l 785 217 l 785 979 l 906 979 l 906 0 l 787 0 l 256 759 l 245 759 l 245 0 m 1260 731 l 1260 -36 q 1206 -200 1260 -149 q 1036 -251 1152 -251 l 1016 -251 l 1016 -151 l 1034 -151 q 1119 -125 1095 -151 q 1143 -38 1143 -100 l 1143 731 l 1260 731 m 1259 904 q 1247 892 1259 904 q 1202 880 1236 880 q 1144 904 1168 880 q 1120 961 1120 928 q 1144 1018 1120 994 q 1202 1042 1168 1042 q 1259 1018 1236 1042 q 1283 961 1283 994 q 1259 904 1283 928 z "},"ǌ":{"ha":1152,"x_min":110,"x_max":1063,"o":"m 110 0 l 110 731 l 221 731 l 221 616 l 232 616 q 452 744 290 744 q 641 674 574 744 q 707 473 707 604 l 707 0 l 591 0 l 591 445 q 548 591 591 543 q 418 639 506 639 q 278 584 330 639 q 227 433 227 528 l 227 0 l 110 0 m 1040 731 l 1040 -36 q 985 -200 1040 -149 q 816 -251 931 -251 l 795 -251 l 795 -151 l 813 -151 q 899 -125 874 -151 q 923 -38 923 -100 l 923 731 l 1040 731 m 1039 904 q 1027 892 1039 904 q 981 880 1015 880 q 924 904 948 880 q 900 961 900 928 q 924 1018 900 994 q 981 1042 948 1042 q 1039 1018 1015 1042 q 1063 961 1063 994 q 1039 904 1063 928 z "},"Ǎ":{"ha":936,"x_min":47,"x_max":889,"o":"m 761 0 l 663 280 l 273 280 l 175 0 l 47 0 l 408 979 l 528 979 l 889 0 l 761 0 m 463 821 l 309 384 l 627 384 l 473 821 l 463 821 m 412 1068 l 209 1270 l 346 1270 l 463 1150 l 473 1150 l 590 1270 l 727 1270 l 524 1068 l 412 1068 z "},"ǎ":{"ha":766,"x_min":66,"x_max":661,"o":"m 335 90 q 485 142 425 90 q 544 273 544 194 l 544 340 l 347 327 q 226 292 264 321 q 187 208 187 263 q 229 121 187 153 q 335 90 270 90 m 313 -13 q 136 46 205 -13 q 66 205 66 106 q 136 358 66 302 q 333 421 205 414 l 544 434 l 544 500 q 502 604 544 568 q 378 640 460 640 q 269 616 313 640 q 214 549 226 593 l 96 549 q 186 690 107 637 q 382 744 265 744 q 588 680 515 744 q 661 500 661 615 l 661 0 l 549 0 l 549 108 l 538 108 q 445 18 503 50 q 313 -13 387 -13 m 451 833 l 314 833 l 123 1063 l 257 1063 l 377 909 l 388 909 l 508 1063 l 642 1063 l 451 833 z "},"Ǐ":{"ha":372,"x_min":-73,"x_max":445,"o":"m 247 0 l 125 0 l 125 979 l 247 979 l 247 0 m 130 1068 l -73 1270 l 64 1270 l 180 1150 l 191 1150 l 308 1270 l 445 1270 l 241 1068 l 130 1068 z "},"ǐ":{"ha":342,"x_min":-89,"x_max":431,"o":"m 113 0 l 113 731 l 229 731 l 229 0 l 113 0 m 239 833 l 102 833 l -89 1063 l 45 1063 l 165 909 l 176 909 l 296 1063 l 431 1063 l 239 833 z "},"Ǒ":{"ha":1071,"x_min":87,"x_max":984,"o":"m 536 1002 q 864 864 745 1002 q 984 490 984 726 q 864 115 984 254 q 536 -23 745 -23 q 207 115 327 -23 q 87 490 87 254 q 208 864 87 726 q 536 1002 329 1002 m 536 889 q 300 781 387 889 q 212 490 212 673 q 299 198 212 306 q 536 90 385 90 q 772 198 686 90 q 859 490 859 307 q 772 782 859 674 q 536 889 686 889 m 481 1068 l 277 1270 l 414 1270 l 531 1150 l 542 1150 l 659 1270 l 795 1270 l 592 1068 l 481 1068 z "},"ǒ":{"ha":821,"x_min":73,"x_max":747,"o":"m 657 89 q 612 38 657 89 q 410 -13 566 -13 q 164 89 254 -13 q 73 366 73 190 q 163 643 73 542 q 410 744 254 744 q 657 643 567 744 q 747 366 747 542 q 657 89 747 190 m 250 164 q 278 128 250 164 q 410 92 307 92 q 570 164 514 92 q 627 366 627 235 q 570 567 627 496 q 410 639 514 639 q 250 567 307 639 q 194 366 194 496 q 250 164 194 235 m 479 833 l 342 833 l 151 1063 l 285 1063 l 405 909 l 416 909 l 536 1063 l 670 1063 l 479 833 z "},"Ǔ":{"ha":1034,"x_min":128,"x_max":905,"o":"m 250 979 l 250 345 q 321 160 250 231 q 517 90 392 90 q 712 160 642 90 q 783 345 783 231 l 783 979 l 905 979 l 905 336 q 801 77 905 177 q 517 -23 696 -23 q 233 77 338 -23 q 128 336 128 177 l 128 979 l 250 979 m 461 1068 l 258 1270 l 395 1270 l 511 1150 l 522 1150 l 639 1270 l 776 1270 l 572 1068 l 461 1068 z "},"ǔ":{"ha":811,"x_min":103,"x_max":701,"o":"m 701 731 l 701 0 l 590 0 l 590 115 l 579 115 q 494 20 551 53 q 353 -13 436 -13 q 167 57 231 -13 q 103 258 103 127 l 103 731 l 220 731 l 220 286 q 259 140 220 186 q 385 94 298 94 q 533 148 481 94 q 585 298 585 201 l 585 731 l 701 731 m 471 833 l 334 833 l 142 1063 l 277 1063 l 397 909 l 408 909 l 528 1063 l 662 1063 l 471 833 z "},"Ǖ":{"ha":1034,"x_min":128,"x_max":905,"o":"m 250 979 l 250 345 q 321 160 250 231 q 517 90 392 90 q 712 160 642 90 q 783 345 783 231 l 783 979 l 905 979 l 905 336 q 801 77 905 177 q 517 -23 696 -23 q 233 77 338 -23 q 128 336 128 177 l 128 979 l 250 979 m 323 1204 q 335 1215 323 1204 q 380 1227 347 1227 q 436 1204 413 1227 q 459 1147 459 1181 q 436 1091 459 1114 q 380 1068 413 1068 q 323 1091 347 1068 q 300 1147 300 1114 q 323 1204 300 1181 m 288 1398 l 745 1398 l 745 1310 l 288 1310 l 288 1398 m 597 1204 q 609 1215 597 1204 q 654 1227 621 1227 q 710 1204 687 1227 q 733 1147 733 1181 q 710 1091 733 1114 q 654 1068 687 1068 q 597 1091 621 1068 q 574 1147 574 1114 q 597 1204 574 1181 z "},"ǖ":{"ha":811,"x_min":103,"x_max":701,"o":"m 701 731 l 701 0 l 590 0 l 590 115 l 579 115 q 494 20 551 53 q 353 -13 436 -13 q 167 57 231 -13 q 103 258 103 127 l 103 731 l 220 731 l 220 286 q 259 140 220 186 q 385 94 298 94 q 533 148 481 94 q 585 298 585 201 l 585 731 l 701 731 m 321 856 q 310 844 321 856 q 265 833 298 833 q 209 856 232 833 q 186 912 186 879 q 209 968 186 945 q 265 991 232 991 q 321 968 298 991 q 345 912 345 945 q 321 856 345 879 m 595 856 q 584 844 595 856 q 539 833 572 833 q 483 856 506 833 q 460 912 460 879 q 483 968 460 945 q 539 991 506 991 q 595 968 572 991 q 618 912 618 945 q 595 856 618 879 m 631 1191 l 631 1099 l 174 1099 l 174 1191 l 631 1191 z "},"Ǘ":{"ha":1034,"x_min":128,"x_max":905,"o":"m 250 979 l 250 345 q 321 160 250 231 q 517 90 392 90 q 712 160 642 90 q 783 345 783 231 l 783 979 l 905 979 l 905 336 q 801 77 905 177 q 517 -23 696 -23 q 233 77 338 -23 q 128 336 128 177 l 128 979 l 250 979 m 457 1270 l 613 1421 l 767 1421 l 576 1270 l 457 1270 m 438 1092 q 426 1080 438 1092 q 380 1068 414 1068 q 322 1092 346 1068 q 298 1150 298 1116 q 322 1208 298 1184 q 380 1232 346 1232 q 438 1208 414 1232 q 462 1150 462 1184 q 438 1092 462 1116 m 712 1092 q 700 1080 712 1092 q 654 1068 688 1068 q 596 1092 620 1068 q 572 1150 572 1116 q 596 1208 572 1184 q 654 1232 620 1232 q 712 1208 688 1232 q 736 1150 736 1184 q 712 1092 736 1116 z "},"ǘ":{"ha":811,"x_min":103,"x_max":701,"o":"m 701 731 l 701 0 l 590 0 l 590 115 l 579 115 q 494 20 551 53 q 353 -13 436 -13 q 167 57 231 -13 q 103 258 103 127 l 103 731 l 220 731 l 220 286 q 259 140 220 186 q 385 94 298 94 q 533 148 481 94 q 585 298 585 201 l 585 731 l 701 731 m 334 1068 l 463 1270 l 597 1270 l 450 1068 l 334 1068 m 323 857 q 311 845 323 857 q 265 833 299 833 q 207 857 231 833 q 183 915 183 881 q 207 973 183 949 q 265 997 231 997 q 323 973 299 997 q 347 915 347 949 q 323 857 347 881 m 597 857 q 585 845 597 857 q 539 833 573 833 q 481 857 505 833 q 457 915 457 881 q 481 973 457 949 q 539 997 505 997 q 597 973 573 997 q 621 915 621 949 q 597 857 621 881 z "},"Ǚ":{"ha":1034,"x_min":128,"x_max":905,"o":"m 250 979 l 250 345 q 321 160 250 231 q 517 90 392 90 q 712 160 642 90 q 783 345 783 231 l 783 979 l 905 979 l 905 336 q 801 77 905 177 q 517 -23 696 -23 q 233 77 338 -23 q 128 336 128 177 l 128 979 l 250 979 m 450 1263 l 251 1421 l 401 1421 l 511 1329 l 522 1329 l 632 1421 l 783 1421 l 583 1263 l 450 1263 m 323 1204 q 335 1215 323 1204 q 380 1227 347 1227 q 436 1204 413 1227 q 459 1147 459 1181 q 436 1091 459 1114 q 380 1068 413 1068 q 323 1091 347 1068 q 300 1147 300 1114 q 323 1204 300 1181 m 597 1204 q 609 1215 597 1204 q 654 1227 621 1227 q 710 1204 687 1227 q 733 1147 733 1181 q 710 1091 733 1114 q 654 1068 687 1068 q 597 1091 621 1068 q 574 1147 574 1114 q 597 1204 574 1181 z "},"ǚ":{"ha":811,"x_min":103,"x_max":701,"o":"m 701 731 l 701 0 l 590 0 l 590 115 l 579 115 q 494 20 551 53 q 353 -13 436 -13 q 167 57 231 -13 q 103 258 103 127 l 103 731 l 220 731 l 220 286 q 259 140 220 186 q 385 94 298 94 q 533 148 481 94 q 585 298 585 201 l 585 731 l 701 731 m 321 856 q 310 844 321 856 q 265 833 298 833 q 209 856 232 833 q 186 912 186 879 q 209 968 186 945 q 265 991 232 991 q 321 968 298 991 q 345 912 345 945 q 321 856 345 879 m 595 856 q 584 844 595 856 q 539 833 572 833 q 483 856 506 833 q 460 912 460 879 q 483 968 460 945 q 539 991 506 991 q 595 968 572 991 q 618 912 618 945 q 595 856 618 879 m 471 1068 l 334 1068 l 142 1285 l 278 1285 l 397 1145 l 408 1145 l 526 1285 l 662 1285 l 471 1068 z "},"Ǜ":{"ha":1034,"x_min":128,"x_max":905,"o":"m 250 979 l 250 345 q 321 160 250 231 q 517 90 392 90 q 712 160 642 90 q 783 345 783 231 l 783 979 l 905 979 l 905 336 q 801 77 905 177 q 517 -23 696 -23 q 233 77 338 -23 q 128 336 128 177 l 128 979 l 250 979 m 589 1270 l 469 1270 l 279 1421 l 433 1421 l 589 1270 m 438 1092 q 426 1080 438 1092 q 380 1068 414 1068 q 322 1092 346 1068 q 298 1150 298 1116 q 322 1208 298 1184 q 380 1232 346 1232 q 438 1208 414 1232 q 462 1150 462 1184 q 438 1092 462 1116 m 712 1092 q 700 1080 712 1092 q 654 1068 688 1068 q 596 1092 620 1068 q 572 1150 572 1116 q 596 1208 572 1184 q 654 1232 620 1232 q 712 1208 688 1232 q 736 1150 736 1184 q 712 1092 736 1116 z "},"ǜ":{"ha":811,"x_min":103,"x_max":701,"o":"m 701 731 l 701 0 l 590 0 l 590 115 l 579 115 q 494 20 551 53 q 353 -13 436 -13 q 167 57 231 -13 q 103 258 103 127 l 103 731 l 220 731 l 220 286 q 259 140 220 186 q 385 94 298 94 q 533 148 481 94 q 585 298 585 201 l 585 731 l 701 731 m 470 1068 l 355 1068 l 207 1270 l 341 1270 l 470 1068 m 323 857 q 311 845 323 857 q 265 833 299 833 q 207 857 231 833 q 183 915 183 881 q 207 973 183 949 q 265 997 231 997 q 323 973 299 997 q 347 915 347 949 q 323 857 347 881 m 597 857 q 585 845 597 857 q 539 833 573 833 q 481 857 505 833 q 457 915 457 881 q 481 973 457 949 q 539 997 505 997 q 597 973 573 997 q 621 915 621 949 q 597 857 621 881 z "},"ǝ":{"ha":807,"x_min":80,"x_max":727,"o":"m 399 90 q 543 149 486 90 q 606 305 600 208 l 203 305 q 258 149 204 208 q 399 90 312 90 m 206 542 l 90 542 q 197 689 117 634 q 395 744 278 744 q 638 642 549 744 q 727 366 727 540 q 637 90 727 193 q 397 -13 548 -13 q 165 85 250 -13 q 80 355 80 184 l 82 399 l 606 399 l 606 405 q 547 576 606 512 q 395 641 489 641 q 206 542 257 641 z "},"Ǟ":{"ha":936,"x_min":47,"x_max":889,"o":"m 761 0 l 663 280 l 273 280 l 175 0 l 47 0 l 408 979 l 528 979 l 889 0 l 761 0 m 463 821 l 309 384 l 627 384 l 473 821 l 463 821 m 275 1204 q 286 1215 275 1204 q 331 1227 298 1227 q 387 1204 364 1227 q 410 1147 410 1181 q 387 1091 410 1114 q 331 1068 364 1068 q 275 1091 298 1068 q 252 1147 252 1114 q 275 1204 252 1181 m 239 1398 l 696 1398 l 696 1310 l 239 1310 l 239 1398 m 549 1204 q 560 1215 549 1204 q 605 1227 572 1227 q 661 1204 638 1227 q 684 1147 684 1181 q 661 1091 684 1114 q 605 1068 638 1068 q 549 1091 572 1068 q 526 1147 526 1114 q 549 1204 526 1181 z "},"ǟ":{"ha":766,"x_min":66,"x_max":661,"o":"m 335 90 q 485 142 425 90 q 544 273 544 194 l 544 340 l 347 327 q 226 292 264 321 q 187 208 187 263 q 229 121 187 153 q 335 90 270 90 m 313 -13 q 136 46 205 -13 q 66 205 66 106 q 136 358 66 302 q 333 421 205 414 l 544 434 l 544 500 q 502 604 544 568 q 378 640 460 640 q 269 616 313 640 q 214 549 226 593 l 96 549 q 186 690 107 637 q 382 744 265 744 q 588 680 515 744 q 661 500 661 615 l 661 0 l 549 0 l 549 108 l 538 108 q 445 18 503 50 q 313 -13 387 -13 m 302 856 q 290 844 302 856 q 245 833 279 833 q 189 856 212 833 q 166 912 166 879 q 189 968 166 945 q 245 991 212 991 q 302 968 279 991 q 325 912 325 945 q 302 856 325 879 m 576 856 q 564 844 576 856 q 519 833 553 833 q 463 856 486 833 q 440 912 440 879 q 463 968 440 945 q 519 991 486 991 q 576 968 553 991 q 599 912 599 945 q 576 856 599 879 m 611 1191 l 611 1099 l 154 1099 l 154 1191 l 611 1191 z "},"Ǡ":{"ha":936,"x_min":47,"x_max":889,"o":"m 761 0 l 663 280 l 273 280 l 175 0 l 47 0 l 408 979 l 528 979 l 889 0 l 761 0 m 463 821 l 309 384 l 627 384 l 473 821 l 463 821 m 525 1093 q 514 1081 525 1093 q 468 1069 502 1069 q 411 1093 434 1069 q 387 1150 387 1116 q 411 1207 387 1184 q 468 1231 434 1231 q 525 1207 502 1231 q 549 1150 549 1184 q 525 1093 549 1116 m 696 1398 l 696 1310 l 239 1310 l 239 1398 l 696 1398 z "},"ǡ":{"ha":766,"x_min":66,"x_max":661,"o":"m 335 90 q 485 142 425 90 q 544 273 544 194 l 544 340 l 347 327 q 226 292 264 321 q 187 208 187 263 q 229 121 187 153 q 335 90 270 90 m 313 -13 q 136 46 205 -13 q 66 205 66 106 q 136 358 66 302 q 333 421 205 414 l 544 434 l 544 500 q 502 604 544 568 q 378 640 460 640 q 269 616 313 640 q 214 549 226 593 l 96 549 q 186 690 107 637 q 382 744 265 744 q 588 680 515 744 q 661 500 661 615 l 661 0 l 549 0 l 549 108 l 538 108 q 445 18 503 50 q 313 -13 387 -13 m 440 856 q 428 844 440 856 q 382 833 416 833 q 325 856 349 833 q 302 913 302 880 q 325 971 302 947 q 382 994 349 994 q 440 971 416 994 q 463 913 463 947 q 440 856 463 880 m 611 1191 l 611 1099 l 154 1099 l 154 1191 l 611 1191 z "},"Ǣ":{"ha":1333,"x_min":47,"x_max":1237,"o":"m 569 876 l 359 415 l 669 415 l 669 876 l 569 876 m 669 0 l 669 311 l 311 311 l 170 0 l 47 0 l 488 979 l 1237 979 l 1237 869 l 791 869 l 791 548 l 1212 548 l 1212 439 l 791 439 l 791 110 l 1237 110 l 1237 0 l 669 0 m 1204 1191 l 1204 1099 l 747 1099 l 747 1191 l 1204 1191 z "},"ǣ":{"ha":1254,"x_min":66,"x_max":1181,"o":"m 873 -13 q 713 31 785 -13 q 611 144 640 75 l 600 144 q 493 28 564 70 q 325 -13 421 -13 q 138 46 209 -13 q 66 205 66 105 q 136 358 66 302 q 333 421 205 414 l 544 434 l 544 500 q 502 604 544 568 q 378 640 460 640 q 269 616 313 640 q 214 549 226 593 l 96 549 q 186 691 107 637 q 382 744 265 744 q 528 710 467 744 q 618 618 589 675 l 629 618 q 728 709 662 673 q 871 744 794 744 q 1099 649 1017 744 q 1181 385 1181 553 l 1181 339 l 660 339 l 660 327 q 723 155 665 219 q 876 91 781 91 q 987 115 943 91 q 1055 189 1031 139 l 1171 189 q 1066 40 1143 92 q 873 -13 988 -13 m 865 642 q 722 586 777 642 q 660 433 667 530 l 1058 433 q 1002 583 1056 525 q 865 642 948 642 m 342 90 q 486 144 429 90 q 544 278 544 199 l 544 340 l 347 327 q 226 292 264 321 q 187 208 187 263 q 230 121 187 153 q 342 90 272 90 m 865 964 l 865 872 l 408 872 l 408 964 l 865 964 z "},"Ǧ":{"ha":1037,"x_min":87,"x_max":946,"o":"m 946 378 q 832 87 946 197 q 530 -23 718 -23 q 207 116 328 -23 q 87 490 87 255 q 208 862 87 722 q 530 1002 330 1002 q 803 917 693 1002 q 940 687 913 832 l 816 687 q 711 838 784 786 q 530 889 639 889 q 299 781 385 889 q 212 490 212 672 q 298 197 212 304 q 531 90 384 90 q 744 166 663 90 q 825 367 825 243 l 825 391 l 549 391 l 549 498 l 946 498 l 946 378 m 475 1068 l 271 1270 l 408 1270 l 525 1150 l 536 1150 l 652 1270 l 789 1270 l 586 1068 l 475 1068 z "},"ǧ":{"ha":846,"x_min":73,"x_max":736,"o":"m 406 114 q 565 185 507 114 q 623 376 623 256 q 564 568 623 496 q 406 639 506 639 q 250 568 305 639 q 194 376 194 498 q 250 184 194 255 q 406 114 305 114 m 411 -281 q 199 -227 280 -281 q 104 -81 118 -172 l 228 -81 q 286 -153 237 -126 q 411 -179 334 -179 q 565 -133 509 -179 q 620 -7 620 -87 l 620 137 l 609 137 q 515 44 574 77 q 380 11 455 11 q 156 111 239 11 q 73 376 73 211 q 157 643 73 542 q 380 744 240 744 q 519 709 456 744 q 614 615 583 674 l 625 615 l 625 731 l 736 731 l 736 -13 q 648 -208 736 -136 q 411 -281 560 -281 m 471 833 l 334 833 l 143 1063 l 277 1063 l 397 909 l 408 909 l 528 1063 l 663 1063 l 471 833 z "},"Ǩ":{"ha":915,"x_min":125,"x_max":876,"o":"m 247 0 l 125 0 l 125 979 l 247 979 l 247 503 l 258 503 l 686 979 l 840 979 l 448 556 l 876 0 l 718 0 l 364 471 l 247 342 l 247 0 m 387 1068 l 184 1270 l 321 1270 l 437 1150 l 448 1150 l 565 1270 l 702 1270 l 498 1068 l 387 1068 z "},"ǩ":{"ha":754,"x_min":-84,"x_max":726,"o":"m 244 412 l 562 731 l 705 731 l 390 418 l 726 0 l 577 0 l 303 342 l 233 277 l 233 0 l 117 0 l 117 1021 l 233 1021 l 233 412 l 244 412 m 119 1111 l -84 1313 l 53 1313 l 170 1193 l 180 1193 l 297 1313 l 434 1313 l 231 1111 l 119 1111 z "},"Ǫ":{"ha":1071,"x_min":87,"x_max":984,"o":"m 718 -293 q 599 -254 646 -293 q 553 -155 553 -215 q 642 -14 553 -71 l 642 -3 q 598 -17 628 -12 q 536 -23 568 -23 q 208 115 328 -23 q 87 490 87 252 q 208 864 87 726 q 536 1002 329 1002 q 864 864 743 1002 q 984 490 984 726 q 931 230 984 342 q 758 9 878 117 q 667 -129 667 -71 q 689 -177 667 -158 q 743 -195 710 -195 q 788 -191 773 -195 l 788 -282 q 718 -293 758 -293 m 772 782 q 729 835 772 782 q 536 889 686 889 q 300 781 387 889 q 212 490 212 673 q 299 197 212 304 q 536 90 387 90 q 772 197 685 90 q 859 490 859 305 q 772 782 859 674 z "},"ǫ":{"ha":821,"x_min":73,"x_max":747,"o":"m 541 -293 q 422 -253 467 -293 q 376 -155 376 -214 q 465 -14 376 -71 l 465 -3 q 410 -13 448 -13 q 163 89 254 -13 q 73 366 73 190 q 163 643 73 541 q 410 744 254 744 q 657 643 567 744 q 747 366 747 541 q 708 171 747 258 q 581 7 668 83 q 491 -129 491 -74 q 513 -178 491 -160 q 567 -195 536 -195 q 612 -191 595 -195 l 612 -282 q 541 -293 581 -293 m 251 164 q 279 128 251 164 q 410 92 307 92 q 570 164 513 92 q 627 366 627 235 q 570 568 627 496 q 410 639 513 639 q 251 568 307 639 q 194 366 194 496 q 251 164 194 235 z "},"Ǭ":{"ha":1071,"x_min":87,"x_max":984,"o":"m 718 -293 q 599 -254 646 -293 q 553 -155 553 -215 q 642 -14 553 -71 l 642 -3 q 598 -17 628 -12 q 536 -23 568 -23 q 208 115 328 -23 q 87 490 87 252 q 208 864 87 726 q 536 1002 329 1002 q 864 864 743 1002 q 984 490 984 726 q 931 230 984 342 q 758 9 878 117 q 667 -129 667 -71 q 689 -177 667 -158 q 743 -195 710 -195 q 788 -191 773 -195 l 788 -282 q 718 -293 758 -293 m 772 782 q 729 835 772 782 q 536 889 686 889 q 300 781 387 889 q 212 490 212 673 q 299 197 212 304 q 536 90 387 90 q 772 197 685 90 q 859 490 859 305 q 772 782 859 674 m 765 1191 l 765 1099 l 308 1099 l 308 1191 l 765 1191 z "},"ǭ":{"ha":821,"x_min":73,"x_max":747,"o":"m 541 -293 q 422 -253 467 -293 q 376 -155 376 -214 q 465 -14 376 -71 l 465 -3 q 410 -13 448 -13 q 163 89 254 -13 q 73 366 73 190 q 163 643 73 541 q 410 744 254 744 q 657 643 567 744 q 747 366 747 541 q 708 171 747 258 q 581 7 668 83 q 491 -129 491 -74 q 513 -178 491 -160 q 567 -195 536 -195 q 612 -191 595 -195 l 612 -282 q 541 -293 581 -293 m 251 164 q 279 128 251 164 q 410 92 307 92 q 570 164 513 92 q 627 366 627 235 q 570 568 627 496 q 410 639 513 639 q 251 568 307 639 q 194 366 194 496 q 251 164 194 235 m 639 964 l 639 872 l 182 872 l 182 964 l 639 964 z "},"Ǳ":{"ha":1927,"x_min":125,"x_max":1830,"o":"m 125 979 l 460 979 q 800 849 678 979 q 922 490 922 720 q 801 129 922 258 q 460 0 679 0 l 125 0 l 125 979 m 247 869 l 247 110 l 452 110 q 707 210 616 110 q 798 488 798 309 q 706 768 798 668 q 452 869 615 869 l 247 869 m 1106 0 l 1106 87 l 1660 858 l 1660 869 l 1125 869 l 1125 979 l 1818 979 l 1818 892 l 1267 121 l 1267 110 l 1830 110 l 1830 0 l 1106 0 z "},"ǲ":{"ha":1757,"x_min":125,"x_max":1664,"o":"m 125 979 l 460 979 q 800 849 678 979 q 922 490 922 720 q 801 129 922 258 q 460 0 679 0 l 125 0 l 125 979 m 247 869 l 247 110 l 452 110 q 707 210 616 110 q 798 488 798 309 q 706 768 798 668 q 452 869 615 869 l 247 869 m 1101 0 l 1101 85 l 1523 623 l 1523 633 l 1102 633 l 1102 731 l 1662 731 l 1662 644 l 1242 109 l 1242 98 l 1664 98 l 1664 0 l 1101 0 z "},"ǳ":{"ha":1602,"x_min":73,"x_max":1509,"o":"m 380 -13 q 157 90 240 -13 q 73 366 73 193 q 157 641 73 537 q 380 744 241 744 q 518 710 457 744 q 610 616 578 675 l 620 616 l 620 1021 l 736 1021 l 736 0 l 625 0 l 625 117 l 614 117 q 518 21 580 56 q 380 -13 456 -13 m 408 639 q 251 566 308 639 q 194 366 194 493 q 251 165 194 237 q 408 92 307 92 q 565 165 507 92 q 623 366 623 239 q 565 565 623 491 q 408 639 507 639 m 946 0 l 946 85 l 1368 623 l 1368 633 l 947 633 l 947 731 l 1507 731 l 1507 644 l 1087 109 l 1087 98 l 1509 98 l 1509 0 l 946 0 z "},"Ǵ":{"ha":1037,"x_min":87,"x_max":946,"o":"m 946 378 q 832 87 946 197 q 530 -23 718 -23 q 207 116 328 -23 q 87 490 87 255 q 208 862 87 722 q 530 1002 330 1002 q 803 917 693 1002 q 940 687 913 832 l 816 687 q 711 838 784 786 q 530 889 639 889 q 299 781 385 889 q 212 490 212 672 q 298 197 212 304 q 531 90 384 90 q 744 166 663 90 q 825 367 825 243 l 825 391 l 549 391 l 549 498 l 946 498 l 946 378 m 597 1068 l 458 1068 l 669 1270 l 822 1270 l 597 1068 z "},"ǵ":{"ha":846,"x_min":73,"x_max":736,"o":"m 406 114 q 565 185 507 114 q 623 376 623 256 q 564 568 623 496 q 406 639 506 639 q 250 568 305 639 q 194 376 194 498 q 250 184 194 255 q 406 114 305 114 m 411 -281 q 199 -227 280 -281 q 104 -81 118 -172 l 228 -81 q 286 -153 237 -126 q 411 -179 334 -179 q 565 -133 509 -179 q 620 -7 620 -87 l 620 137 l 609 137 q 515 44 574 77 q 380 11 455 11 q 156 111 239 11 q 73 376 73 211 q 157 643 73 542 q 380 744 240 744 q 519 709 456 744 q 614 615 583 674 l 625 615 l 625 731 l 736 731 l 736 -13 q 648 -208 736 -136 q 411 -281 560 -281 m 457 857 l 326 857 l 496 1086 l 646 1086 l 457 857 z "},"Ǹ":{"ha":1031,"x_min":125,"x_max":906,"o":"m 245 0 l 125 0 l 125 979 l 243 979 l 774 217 l 785 217 l 785 979 l 906 979 l 906 0 l 787 0 l 256 759 l 245 759 l 245 0 m 444 1068 l 218 1270 l 372 1270 l 582 1068 l 444 1068 z "},"ǹ":{"ha":810,"x_min":110,"x_max":707,"o":"m 110 0 l 110 731 l 221 731 l 221 616 l 232 616 q 452 744 290 744 q 641 674 574 744 q 707 473 707 604 l 707 0 l 591 0 l 591 445 q 548 591 591 543 q 418 639 506 639 q 278 584 330 639 q 227 433 227 528 l 227 0 l 110 0 m 492 857 l 360 857 l 172 1086 l 321 1086 l 492 857 z "},"Ǻ":{"ha":936,"x_min":47,"x_max":889,"o":"m 761 0 l 663 280 l 273 280 l 175 0 l 47 0 l 408 979 l 528 979 l 889 0 l 761 0 m 463 821 l 309 384 l 627 384 l 473 821 l 463 821 m 565 1079 q 545 1059 565 1079 q 468 1040 525 1040 q 371 1079 411 1040 q 331 1174 331 1118 q 371 1269 331 1230 q 468 1308 411 1308 q 565 1269 525 1308 q 605 1174 605 1230 q 565 1079 605 1118 m 419 1124 q 429 1114 419 1124 q 468 1104 439 1104 q 516 1124 497 1104 q 536 1173 536 1144 q 516 1222 536 1202 q 468 1242 497 1242 q 419 1222 439 1242 q 400 1173 400 1202 q 419 1124 400 1144 m 515 1474 l 642 1474 l 524 1351 l 415 1351 l 515 1474 z "},"ǻ":{"ha":766,"x_min":66,"x_max":661,"o":"m 335 90 q 485 142 425 90 q 544 273 544 194 l 544 340 l 347 327 q 226 292 264 321 q 187 208 187 263 q 229 121 187 153 q 335 90 270 90 m 313 -13 q 136 46 205 -13 q 66 205 66 106 q 136 358 66 302 q 333 421 205 414 l 544 434 l 544 500 q 502 604 544 568 q 378 640 460 640 q 269 616 313 640 q 214 549 226 593 l 96 549 q 186 690 107 637 q 382 744 265 744 q 588 680 515 744 q 661 500 661 615 l 661 0 l 549 0 l 549 108 l 538 108 q 445 18 503 50 q 313 -13 387 -13 m 479 853 q 459 833 479 853 q 382 814 439 814 q 286 853 326 814 q 245 948 245 892 q 286 1043 245 1004 q 382 1082 326 1082 q 479 1043 439 1082 q 519 948 519 1004 q 479 853 519 892 m 334 997 q 325 987 334 997 q 315 947 315 977 q 334 898 315 918 q 382 878 354 878 q 431 898 411 878 q 450 947 450 918 q 431 997 450 977 q 382 1017 411 1017 q 334 997 354 1017 m 325 1141 l 437 1295 l 572 1295 l 441 1141 l 325 1141 z "},"Ǽ":{"ha":1333,"x_min":47,"x_max":1267,"o":"m 569 876 l 359 415 l 669 415 l 669 876 l 569 876 m 669 0 l 669 311 l 311 311 l 170 0 l 47 0 l 488 979 l 1237 979 l 1237 869 l 791 869 l 791 548 l 1212 548 l 1212 439 l 791 439 l 791 110 l 1237 110 l 1237 0 l 669 0 m 1042 1068 l 904 1068 l 1114 1270 l 1267 1270 l 1042 1068 z "},"ǽ":{"ha":1254,"x_min":66,"x_max":1181,"o":"m 873 -13 q 713 31 785 -13 q 611 144 640 75 l 600 144 q 493 28 564 70 q 325 -13 421 -13 q 138 46 209 -13 q 66 205 66 105 q 136 358 66 302 q 333 421 205 414 l 544 434 l 544 500 q 502 604 544 568 q 378 640 460 640 q 269 616 313 640 q 214 549 226 593 l 96 549 q 186 691 107 637 q 382 744 265 744 q 528 710 467 744 q 618 618 589 675 l 629 618 q 728 709 662 673 q 871 744 794 744 q 1099 649 1017 744 q 1181 385 1181 553 l 1181 339 l 660 339 l 660 327 q 723 155 665 219 q 876 91 781 91 q 987 115 943 91 q 1055 189 1031 139 l 1171 189 q 1066 40 1143 92 q 873 -13 988 -13 m 865 642 q 722 586 777 642 q 660 433 667 530 l 1058 433 q 1002 583 1056 525 q 865 642 948 642 m 342 90 q 486 144 429 90 q 544 278 544 199 l 544 340 l 347 327 q 226 292 264 321 q 187 208 187 263 q 230 121 187 153 q 342 90 272 90 m 691 857 l 559 857 l 730 1086 l 880 1086 l 691 857 z "},"Ǿ":{"ha":1052,"x_min":87,"x_max":984,"o":"m 818 1270 l 593 1068 l 454 1068 l 665 1270 l 818 1270 m 785 764 l 328 167 q 536 90 410 90 q 772 198 686 90 q 859 490 859 307 q 785 764 859 659 m 273 235 l 729 825 q 536 889 650 889 q 300 781 387 889 q 212 490 212 673 q 273 235 212 336 m 937 962 l 863 865 q 984 490 984 728 q 864 115 984 254 q 536 -23 745 -23 q 253 70 368 -23 l 175 -32 l 107 20 l 193 132 q 87 490 87 267 q 208 864 87 726 q 536 1002 329 1002 q 802 921 693 1002 l 871 1009 l 937 962 z "},"ǿ":{"ha":821,"x_min":73,"x_max":747,"o":"m 637 1086 l 448 857 l 317 857 l 488 1086 l 637 1086 m 581 553 l 291 126 q 410 92 340 92 q 570 164 514 92 q 627 366 627 235 q 581 553 627 484 m 233 190 l 522 610 q 410 639 475 639 q 250 567 307 639 q 194 366 194 496 q 233 190 194 258 m 690 715 l 648 652 q 747 366 747 551 q 657 89 747 190 q 410 -13 566 -13 q 229 34 305 -13 l 189 -25 l 118 22 l 163 88 q 73 366 73 190 q 163 643 73 542 q 410 744 254 744 q 584 702 508 744 l 623 758 l 690 715 z "},"Ȁ":{"ha":936,"x_min":43,"x_max":889,"o":"m 761 0 l 663 280 l 273 280 l 175 0 l 47 0 l 408 979 l 528 979 l 889 0 l 761 0 m 463 821 l 309 384 l 627 384 l 473 821 l 463 821 m 549 1068 l 324 1270 l 477 1270 l 688 1068 l 549 1068 m 269 1068 l 43 1270 l 197 1270 l 407 1068 l 269 1068 z "},"ȁ":{"ha":766,"x_min":14,"x_max":661,"o":"m 335 90 q 485 142 425 90 q 544 273 544 194 l 544 340 l 347 327 q 226 292 264 321 q 187 208 187 263 q 229 121 187 153 q 335 90 270 90 m 313 -13 q 136 46 205 -13 q 66 205 66 106 q 136 358 66 302 q 333 421 205 414 l 544 434 l 544 500 q 502 604 544 568 q 378 640 460 640 q 269 616 313 640 q 214 549 226 593 l 96 549 q 186 690 107 637 q 382 744 265 744 q 588 680 515 744 q 661 500 661 615 l 661 0 l 549 0 l 549 108 l 538 108 q 445 18 503 50 q 313 -13 387 -13 m 328 857 l 204 857 l 14 1086 l 157 1086 l 328 857 m 599 857 l 475 857 l 286 1086 l 428 1086 l 599 857 z "},"Ȃ":{"ha":936,"x_min":47,"x_max":889,"o":"m 761 0 l 663 280 l 273 280 l 175 0 l 47 0 l 408 979 l 528 979 l 889 0 l 761 0 m 463 821 l 309 384 l 627 384 l 473 821 l 463 821 m 221 1068 q 288 1215 221 1160 q 468 1270 354 1270 q 648 1215 582 1270 q 715 1068 715 1160 l 610 1068 q 572 1154 610 1122 q 468 1185 534 1185 q 364 1154 402 1185 q 326 1068 326 1122 l 221 1068 z "},"ȃ":{"ha":766,"x_min":66,"x_max":661,"o":"m 335 90 q 485 142 425 90 q 544 273 544 194 l 544 340 l 347 327 q 226 292 264 321 q 187 208 187 263 q 229 121 187 153 q 335 90 270 90 m 313 -13 q 136 46 205 -13 q 66 205 66 106 q 136 358 66 302 q 333 421 205 414 l 544 434 l 544 500 q 502 604 544 568 q 378 640 460 640 q 269 616 313 640 q 214 549 226 593 l 96 549 q 186 690 107 637 q 382 744 265 744 q 588 680 515 744 q 661 500 661 615 l 661 0 l 549 0 l 549 108 l 538 108 q 445 18 503 50 q 313 -13 387 -13 m 136 833 q 202 993 136 931 q 382 1055 269 1055 q 563 993 496 1055 q 629 833 629 931 l 525 833 q 487 931 525 893 q 382 968 450 968 q 278 931 315 968 q 240 833 240 893 l 136 833 z "},"Ȅ":{"ha":827,"x_min":3,"x_max":731,"o":"m 731 110 l 731 0 l 125 0 l 125 979 l 731 979 l 731 869 l 247 869 l 247 555 l 706 555 l 706 446 l 247 446 l 247 110 l 731 110 m 509 1068 l 284 1270 l 437 1270 l 648 1068 l 509 1068 m 229 1068 l 3 1270 l 157 1270 l 367 1068 l 229 1068 z "},"ȅ":{"ha":793,"x_min":35,"x_max":720,"o":"m 401 641 q 258 582 314 641 q 195 426 201 523 l 597 426 q 542 582 595 523 q 401 641 488 641 m 594 189 l 711 189 q 603 41 684 94 q 403 -13 522 -13 q 162 89 251 -13 q 73 365 73 191 q 163 641 73 538 q 403 744 252 744 q 635 646 551 744 q 720 376 720 547 l 720 332 l 195 332 l 195 326 q 256 154 199 218 q 406 90 313 90 q 594 189 547 90 m 348 857 l 224 857 l 35 1086 l 177 1086 l 348 857 m 619 857 l 496 857 l 306 1086 l 448 1086 l 619 857 z "},"Ȇ":{"ha":827,"x_min":125,"x_max":731,"o":"m 731 110 l 731 0 l 125 0 l 125 979 l 731 979 l 731 869 l 247 869 l 247 555 l 706 555 l 706 446 l 247 446 l 247 110 l 731 110 m 181 1068 q 248 1215 181 1160 q 428 1270 314 1270 q 608 1215 542 1270 q 675 1068 675 1160 l 570 1068 q 532 1154 570 1122 q 428 1185 494 1185 q 324 1154 362 1185 q 286 1068 286 1122 l 181 1068 z "},"ȇ":{"ha":793,"x_min":73,"x_max":720,"o":"m 401 641 q 258 582 314 641 q 195 426 201 523 l 597 426 q 542 582 595 523 q 401 641 488 641 m 594 189 l 711 189 q 603 41 684 94 q 403 -13 522 -13 q 162 89 251 -13 q 73 365 73 191 q 163 641 73 538 q 403 744 252 744 q 635 646 551 744 q 720 376 720 547 l 720 332 l 195 332 l 195 326 q 256 154 199 218 q 406 90 313 90 q 594 189 547 90 m 156 833 q 222 993 156 931 q 403 1055 289 1055 q 583 993 517 1055 q 650 833 650 931 l 545 833 q 508 931 545 893 q 403 968 470 968 q 298 931 336 968 q 260 833 260 893 l 156 833 z "},"Ȉ":{"ha":372,"x_min":-239,"x_max":406,"o":"m 247 0 l 125 0 l 125 979 l 247 979 l 247 0 m 267 1068 l 42 1270 l 195 1270 l 406 1068 l 267 1068 m -14 1068 l -239 1270 l -85 1270 l 125 1068 l -14 1068 z "},"ȉ":{"ha":342,"x_min":-197,"x_max":387,"o":"m 113 0 l 113 731 l 229 731 l 229 0 l 113 0 m 116 857 l -7 857 l -197 1086 l -55 1086 l 116 857 m 387 857 l 264 857 l 74 1086 l 216 1086 l 387 857 z "},"Ȋ":{"ha":372,"x_min":-61,"x_max":433,"o":"m 247 0 l 125 0 l 125 979 l 247 979 l 247 0 m -61 1068 q 5 1215 -61 1160 q 186 1270 72 1270 q 366 1215 300 1270 q 433 1068 433 1160 l 328 1068 q 290 1154 328 1122 q 186 1185 252 1185 q 82 1154 120 1185 q 43 1068 43 1122 l -61 1068 z "},"ȋ":{"ha":342,"x_min":-76,"x_max":418,"o":"m 113 0 l 113 731 l 229 731 l 229 0 l 113 0 m -76 833 q -9 993 -76 931 q 171 1055 57 1055 q 351 993 285 1055 q 418 833 418 931 l 313 833 q 276 931 313 893 q 171 968 238 968 q 66 931 104 968 q 28 833 28 893 l -76 833 z "},"Ȍ":{"ha":1071,"x_min":87,"x_max":984,"o":"m 536 1002 q 864 864 745 1002 q 984 490 984 726 q 864 115 984 254 q 536 -23 745 -23 q 207 115 327 -23 q 87 490 87 254 q 208 864 87 726 q 536 1002 329 1002 m 536 889 q 300 781 387 889 q 212 490 212 673 q 299 198 212 306 q 536 90 385 90 q 772 198 686 90 q 859 490 859 307 q 772 782 859 674 q 536 889 686 889 m 618 1068 l 393 1270 l 546 1270 l 756 1068 l 618 1068 m 337 1068 l 112 1270 l 265 1270 l 475 1068 l 337 1068 z "},"ȍ":{"ha":821,"x_min":42,"x_max":747,"o":"m 657 89 q 612 38 657 89 q 410 -13 566 -13 q 164 89 254 -13 q 73 366 73 190 q 163 643 73 542 q 410 744 254 744 q 657 643 567 744 q 747 366 747 542 q 657 89 747 190 m 250 164 q 278 128 250 164 q 410 92 307 92 q 570 164 514 92 q 627 366 627 235 q 570 567 627 496 q 410 639 514 639 q 250 567 307 639 q 194 366 194 496 q 250 164 194 235 m 355 857 l 232 857 l 42 1086 l 184 1086 l 355 857 m 627 857 l 503 857 l 313 1086 l 456 1086 l 627 857 z "},"Ȏ":{"ha":1071,"x_min":87,"x_max":984,"o":"m 536 1002 q 864 864 745 1002 q 984 490 984 726 q 864 115 984 254 q 536 -23 745 -23 q 207 115 327 -23 q 87 490 87 254 q 208 864 87 726 q 536 1002 329 1002 m 536 889 q 300 781 387 889 q 212 490 212 673 q 299 198 212 306 q 536 90 385 90 q 772 198 686 90 q 859 490 859 307 q 772 782 859 674 q 536 889 686 889 m 290 1068 q 356 1215 290 1160 q 536 1270 422 1270 q 717 1215 650 1270 q 783 1068 783 1160 l 679 1068 q 641 1154 679 1122 q 536 1185 602 1185 q 432 1154 471 1185 q 394 1068 394 1122 l 290 1068 z "},"ȏ":{"ha":821,"x_min":73,"x_max":747,"o":"m 657 89 q 612 38 657 89 q 410 -13 566 -13 q 164 89 254 -13 q 73 366 73 190 q 163 643 73 542 q 410 744 254 744 q 657 643 567 744 q 747 366 747 542 q 657 89 747 190 m 250 164 q 278 128 250 164 q 410 92 307 92 q 570 164 514 92 q 627 366 627 235 q 570 567 627 496 q 410 639 514 639 q 250 567 307 639 q 194 366 194 496 q 250 164 194 235 m 163 833 q 230 993 163 931 q 410 1055 296 1055 q 591 993 524 1055 q 657 833 657 931 l 553 833 q 515 931 553 893 q 410 968 477 968 q 306 931 343 968 q 268 833 268 893 l 163 833 z "},"Ȑ":{"ha":907,"x_min":-12,"x_max":840,"o":"m 247 870 l 247 496 l 488 496 q 633 544 582 496 q 684 683 684 593 q 631 821 684 771 q 482 870 577 870 l 247 870 m 247 387 l 247 0 l 125 0 l 125 979 l 498 979 q 725 899 640 979 q 810 687 810 819 q 758 510 810 585 q 614 406 706 435 l 840 0 l 697 0 l 488 387 l 247 387 m 494 1068 l 269 1270 l 422 1270 l 633 1068 l 494 1068 m 214 1068 l -12 1270 l 142 1270 l 352 1068 l 214 1068 z "},"ȑ":{"ha":529,"x_min":-112,"x_max":493,"o":"m 110 0 l 110 731 l 221 731 l 221 623 l 232 623 q 305 710 248 676 q 435 744 362 744 q 493 741 468 744 l 493 624 q 418 631 469 631 q 281 581 335 631 q 227 453 227 530 l 227 0 l 110 0 m 201 857 l 78 857 l -112 1086 l 31 1086 l 201 857 m 473 857 l 349 857 l 159 1086 l 302 1086 l 473 857 z "},"Ȓ":{"ha":907,"x_min":125,"x_max":840,"o":"m 247 870 l 247 496 l 488 496 q 633 544 582 496 q 684 683 684 593 q 631 821 684 771 q 482 870 577 870 l 247 870 m 247 387 l 247 0 l 125 0 l 125 979 l 498 979 q 725 899 640 979 q 810 687 810 819 q 758 510 810 585 q 614 406 706 435 l 840 0 l 697 0 l 488 387 l 247 387 m 166 1068 q 233 1215 166 1160 q 413 1270 299 1270 q 593 1215 527 1270 q 660 1068 660 1160 l 555 1068 q 517 1154 555 1122 q 413 1185 479 1185 q 309 1154 347 1185 q 271 1068 271 1122 l 166 1068 z "},"ȓ":{"ha":529,"x_min":9,"x_max":503,"o":"m 110 0 l 110 731 l 221 731 l 221 623 l 232 623 q 305 710 248 676 q 435 744 362 744 q 493 741 468 744 l 493 624 q 418 631 469 631 q 281 581 335 631 q 227 453 227 530 l 227 0 l 110 0 m 9 833 q 76 993 9 931 q 256 1055 142 1055 q 437 993 370 1055 q 503 833 503 931 l 399 833 q 361 931 399 893 q 256 968 323 968 q 152 931 189 968 q 114 833 114 893 l 9 833 z "},"Ȕ":{"ha":1034,"x_min":92,"x_max":905,"o":"m 250 979 l 250 345 q 321 160 250 231 q 517 90 392 90 q 712 160 642 90 q 783 345 783 231 l 783 979 l 905 979 l 905 336 q 801 77 905 177 q 517 -23 696 -23 q 233 77 338 -23 q 128 336 128 177 l 128 979 l 250 979 m 598 1068 l 373 1270 l 526 1270 l 736 1068 l 598 1068 m 317 1068 l 92 1270 l 245 1270 l 456 1068 l 317 1068 z "},"ȕ":{"ha":811,"x_min":34,"x_max":701,"o":"m 701 731 l 701 0 l 590 0 l 590 115 l 579 115 q 494 20 551 53 q 353 -13 436 -13 q 167 57 231 -13 q 103 258 103 127 l 103 731 l 220 731 l 220 286 q 259 140 220 186 q 385 94 298 94 q 533 148 481 94 q 585 298 585 201 l 585 731 l 701 731 m 347 857 l 224 857 l 34 1086 l 176 1086 l 347 857 m 618 857 l 495 857 l 305 1086 l 448 1086 l 618 857 z "},"Ȗ":{"ha":1034,"x_min":128,"x_max":905,"o":"m 250 979 l 250 345 q 321 160 250 231 q 517 90 392 90 q 712 160 642 90 q 783 345 783 231 l 783 979 l 905 979 l 905 336 q 801 77 905 177 q 517 -23 696 -23 q 233 77 338 -23 q 128 336 128 177 l 128 979 l 250 979 m 270 1068 q 336 1215 270 1160 q 517 1270 403 1270 q 697 1215 631 1270 q 764 1068 764 1160 l 659 1068 q 621 1154 659 1122 q 517 1185 583 1185 q 413 1154 451 1185 q 374 1068 374 1122 l 270 1068 z "},"ȗ":{"ha":811,"x_min":103,"x_max":701,"o":"m 701 731 l 701 0 l 590 0 l 590 115 l 579 115 q 494 20 551 53 q 353 -13 436 -13 q 167 57 231 -13 q 103 258 103 127 l 103 731 l 220 731 l 220 286 q 259 140 220 186 q 385 94 298 94 q 533 148 481 94 q 585 298 585 201 l 585 731 l 701 731 m 155 833 q 222 993 155 931 q 402 1055 288 1055 q 583 993 516 1055 q 649 833 649 931 l 545 833 q 507 931 545 893 q 402 968 469 968 q 297 931 335 968 q 260 833 260 893 l 155 833 z "},"Ș":{"ha":885,"x_min":78,"x_max":807,"o":"m 78 256 l 201 256 q 281 134 213 179 q 453 88 349 88 q 617 136 552 88 q 682 256 682 184 q 634 360 682 319 q 486 427 587 401 l 360 459 q 167 555 227 492 q 106 723 106 618 q 202 925 106 848 q 452 1002 297 1002 q 690 926 594 1002 q 793 731 785 850 l 670 731 q 598 849 657 806 q 448 891 540 891 q 291 846 351 891 q 232 727 232 801 q 276 633 232 669 q 420 572 319 597 l 523 545 q 741 443 675 507 q 807 271 807 379 q 708 57 807 136 q 441 -23 609 -23 q 187 53 286 -23 q 78 256 87 129 m 444 -351 l 330 -351 l 399 -96 l 523 -96 l 444 -351 z "},"ș":{"ha":727,"x_min":73,"x_max":654,"o":"m 93 531 q 171 683 93 622 q 366 744 249 744 q 555 691 480 744 q 641 548 629 638 l 526 548 q 472 619 513 593 q 365 645 430 645 q 255 614 299 645 q 210 536 210 584 q 241 474 210 498 q 337 433 272 449 l 450 406 q 604 334 554 381 q 654 208 654 286 q 570 49 654 111 q 361 -13 487 -13 q 161 41 239 -13 q 73 186 83 96 l 193 186 q 252 112 208 139 q 365 85 296 85 q 486 117 439 85 q 534 199 534 149 q 418 302 534 274 l 292 333 q 141 405 189 358 q 93 531 93 452 m 363 -351 l 250 -351 l 319 -96 l 442 -96 l 363 -351 z "},"Ț":{"ha":880,"x_min":64,"x_max":817,"o":"m 501 0 l 379 0 l 379 869 l 64 869 l 64 979 l 817 979 l 817 869 l 501 869 l 501 0 m 442 -351 l 329 -351 l 398 -96 l 522 -96 l 442 -351 z "},"ț":{"ha":505,"x_min":41,"x_max":438,"o":"m 159 920 l 275 920 l 275 731 l 438 731 l 438 633 l 275 633 l 275 220 q 301 126 275 155 q 384 97 327 97 q 438 100 409 97 l 438 1 q 370 -5 399 -5 q 208 40 256 -5 q 159 190 159 85 l 159 633 l 41 633 l 41 731 l 159 731 l 159 920 m 284 -351 l 171 -351 l 240 -96 l 363 -96 l 284 -351 z "},"Ȟ":{"ha":1031,"x_min":125,"x_max":906,"o":"m 906 0 l 784 0 l 784 446 l 247 446 l 247 0 l 125 0 l 125 979 l 247 979 l 247 555 l 784 555 l 784 979 l 906 979 l 906 0 m 460 1068 l 256 1270 l 393 1270 l 510 1150 l 521 1150 l 637 1270 l 774 1270 l 571 1068 l 460 1068 z "},"ȟ":{"ha":825,"x_min":-84,"x_max":722,"o":"m 117 0 l 117 1021 l 233 1021 l 233 616 l 244 616 q 329 711 272 677 q 469 744 387 744 q 654 672 586 744 q 722 473 722 601 l 722 0 l 605 0 l 605 445 q 436 639 605 639 q 287 583 340 639 q 233 433 233 527 l 233 0 l 117 0 m 119 1111 l -84 1313 l 53 1313 l 170 1193 l 180 1193 l 297 1313 l 434 1313 l 231 1111 l 119 1111 z "},"Ȧ":{"ha":936,"x_min":47,"x_max":889,"o":"m 761 0 l 663 280 l 273 280 l 175 0 l 47 0 l 408 979 l 528 979 l 889 0 l 761 0 m 463 821 l 309 384 l 627 384 l 473 821 l 463 821 m 526 1092 q 514 1080 526 1092 q 468 1068 502 1068 q 410 1092 434 1068 q 386 1150 386 1116 q 410 1208 386 1184 q 468 1232 434 1232 q 526 1208 502 1232 q 550 1150 550 1184 q 526 1092 550 1116 z "},"ȧ":{"ha":766,"x_min":66,"x_max":661,"o":"m 335 90 q 485 142 425 90 q 544 273 544 194 l 544 340 l 347 327 q 226 292 264 321 q 187 208 187 263 q 229 121 187 153 q 335 90 270 90 m 313 -13 q 136 46 205 -13 q 66 205 66 106 q 136 358 66 302 q 333 421 205 414 l 544 434 l 544 500 q 502 604 544 568 q 378 640 460 640 q 269 616 313 640 q 214 549 226 593 l 96 549 q 186 690 107 637 q 382 744 265 744 q 588 680 515 744 q 661 500 661 615 l 661 0 l 549 0 l 549 108 l 538 108 q 445 18 503 50 q 313 -13 387 -13 m 444 898 q 431 886 444 898 q 382 873 418 873 q 321 898 347 873 q 296 960 296 924 q 321 1020 296 995 q 382 1046 347 1046 q 444 1020 418 1046 q 469 960 469 995 q 444 898 469 924 z "},"Ȩ":{"ha":827,"x_min":125,"x_max":731,"o":"m 731 869 l 247 869 l 247 555 l 706 555 l 706 446 l 247 446 l 247 110 l 731 110 l 731 0 l 479 0 l 444 -90 q 552 -119 513 -90 q 590 -200 590 -148 q 546 -293 590 -258 q 425 -328 501 -328 q 326 -316 368 -328 l 326 -243 q 408 -252 358 -252 q 489 -203 489 -252 q 465 -169 489 -179 q 388 -159 441 -159 l 348 -159 l 348 -102 l 389 0 l 125 0 l 125 979 l 731 979 l 731 869 z "},"ȩ":{"ha":793,"x_min":73,"x_max":720,"o":"m 195 426 l 597 426 q 542 582 595 523 q 401 641 488 641 q 258 582 314 641 q 195 426 201 523 m 720 332 l 195 332 l 195 326 q 256 154 199 218 q 406 90 313 90 q 594 189 547 90 l 711 189 q 619 52 687 104 q 450 -11 551 0 l 420 -90 q 527 -119 489 -90 q 566 -200 566 -148 q 521 -293 566 -258 q 400 -328 477 -328 q 301 -316 343 -328 l 301 -243 q 384 -252 334 -252 q 465 -203 465 -252 q 441 -169 465 -179 q 363 -159 417 -159 l 323 -159 l 323 -102 l 361 -11 q 150 104 227 4 q 73 365 73 204 q 163 641 73 538 q 403 744 252 744 q 635 646 551 744 q 720 376 720 547 l 720 332 z "},"Ȫ":{"ha":1071,"x_min":87,"x_max":984,"o":"m 536 1002 q 864 864 745 1002 q 984 490 984 726 q 864 115 984 254 q 536 -23 745 -23 q 207 115 327 -23 q 87 490 87 254 q 208 864 87 726 q 536 1002 329 1002 m 536 889 q 300 781 387 889 q 212 490 212 673 q 299 198 212 306 q 536 90 385 90 q 772 198 686 90 q 859 490 859 307 q 772 782 859 674 q 536 889 686 889 m 343 1204 q 355 1215 343 1204 q 399 1227 366 1227 q 456 1204 433 1227 q 479 1147 479 1181 q 456 1091 479 1114 q 399 1068 433 1068 q 343 1091 366 1068 q 320 1147 320 1114 q 343 1204 320 1181 m 308 1398 l 765 1398 l 765 1310 l 308 1310 l 308 1398 m 617 1204 q 629 1215 617 1204 q 673 1227 640 1227 q 730 1204 707 1227 q 753 1147 753 1181 q 730 1091 753 1114 q 673 1068 707 1068 q 617 1091 640 1068 q 594 1147 594 1114 q 617 1204 594 1181 z "},"ȫ":{"ha":821,"x_min":73,"x_max":747,"o":"m 657 89 q 612 38 657 89 q 410 -13 566 -13 q 164 89 254 -13 q 73 366 73 190 q 163 643 73 542 q 410 744 254 744 q 657 643 567 744 q 747 366 747 542 q 657 89 747 190 m 250 164 q 278 128 250 164 q 410 92 307 92 q 570 164 514 92 q 627 366 627 235 q 570 567 627 496 q 410 639 514 639 q 250 567 307 639 q 194 366 194 496 q 250 164 194 235 m 330 856 q 318 844 330 856 q 273 833 307 833 q 217 856 240 833 q 194 912 194 879 q 217 968 194 945 q 273 991 240 991 q 330 968 307 991 q 353 912 353 945 q 330 856 353 879 m 604 856 q 592 844 604 856 q 547 833 581 833 q 491 856 514 833 q 468 912 468 879 q 491 968 468 945 q 547 991 514 991 q 604 968 581 991 q 627 912 627 945 q 604 856 627 879 m 639 1191 l 639 1099 l 182 1099 l 182 1191 l 639 1191 z "},"Ȭ":{"ha":1071,"x_min":87,"x_max":984,"o":"m 536 1002 q 864 864 745 1002 q 984 490 984 726 q 864 115 984 254 q 536 -23 745 -23 q 207 115 327 -23 q 87 490 87 254 q 208 864 87 726 q 536 1002 329 1002 m 536 889 q 300 781 387 889 q 212 490 212 673 q 299 198 212 306 q 536 90 385 90 q 772 198 686 90 q 859 490 859 307 q 772 782 859 674 q 536 889 686 889 m 631 1068 q 575 1077 600 1068 q 536 1099 551 1086 q 509 1124 522 1112 q 480 1146 496 1137 q 444 1155 464 1155 q 380 1080 385 1155 l 288 1080 q 331 1197 288 1152 q 441 1243 374 1243 q 498 1234 473 1243 q 537 1213 522 1225 q 564 1187 551 1200 q 593 1165 576 1174 q 629 1156 609 1156 q 672 1175 654 1156 q 693 1232 690 1194 l 785 1232 q 742 1115 785 1162 q 631 1068 699 1068 m 765 1398 l 765 1310 l 308 1310 l 308 1398 l 765 1398 z "},"ȭ":{"ha":821,"x_min":73,"x_max":747,"o":"m 657 89 q 612 38 657 89 q 410 -13 566 -13 q 164 89 254 -13 q 73 366 73 190 q 163 643 73 542 q 410 744 254 744 q 657 643 567 744 q 747 366 747 542 q 657 89 747 190 m 250 164 q 278 128 250 164 q 410 92 307 92 q 570 164 514 92 q 627 366 627 235 q 570 567 627 496 q 410 639 514 639 q 250 567 307 639 q 194 366 194 496 q 250 164 194 235 m 509 835 q 453 846 479 835 q 410 872 427 857 q 377 904 392 888 q 347 930 362 920 q 317 941 332 941 q 266 917 281 941 q 250 835 250 892 l 154 835 q 196 980 154 927 q 311 1032 237 1032 q 367 1021 341 1032 q 411 995 393 1010 q 444 963 429 979 q 474 937 458 947 q 504 926 489 926 q 555 950 540 926 q 570 1032 570 975 l 667 1032 q 625 887 667 940 q 509 835 583 835 m 639 1195 l 639 1103 l 182 1103 l 182 1195 l 639 1195 z "},"Ȯ":{"ha":1071,"x_min":87,"x_max":984,"o":"m 536 1002 q 864 864 745 1002 q 984 490 984 726 q 864 115 984 254 q 536 -23 745 -23 q 207 115 327 -23 q 87 490 87 254 q 208 864 87 726 q 536 1002 329 1002 m 536 889 q 300 781 387 889 q 212 490 212 673 q 299 198 212 306 q 536 90 385 90 q 772 198 686 90 q 859 490 859 307 q 772 782 859 674 q 536 889 686 889 m 594 1092 q 582 1080 594 1092 q 536 1068 570 1068 q 478 1092 503 1068 q 454 1150 454 1116 q 478 1208 454 1184 q 536 1232 503 1232 q 594 1208 570 1232 q 618 1150 618 1184 q 594 1092 618 1116 z "},"ȯ":{"ha":821,"x_min":73,"x_max":747,"o":"m 657 89 q 612 38 657 89 q 410 -13 566 -13 q 164 89 254 -13 q 73 366 73 190 q 163 643 73 542 q 410 744 254 744 q 657 643 567 744 q 747 366 747 542 q 657 89 747 190 m 250 164 q 278 128 250 164 q 410 92 307 92 q 570 164 514 92 q 627 366 627 235 q 570 567 627 496 q 410 639 514 639 q 250 567 307 639 q 194 366 194 496 q 250 164 194 235 m 472 898 q 459 886 472 898 q 410 873 446 873 q 349 898 374 873 q 323 960 323 924 q 349 1020 323 995 q 410 1046 374 1046 q 472 1020 446 1046 q 497 960 497 995 q 472 898 497 924 z "},"Ȱ":{"ha":1071,"x_min":87,"x_max":984,"o":"m 536 1002 q 864 864 745 1002 q 984 490 984 726 q 864 115 984 254 q 536 -23 745 -23 q 207 115 327 -23 q 87 490 87 254 q 208 864 87 726 q 536 1002 329 1002 m 536 889 q 300 781 387 889 q 212 490 212 673 q 299 198 212 306 q 536 90 385 90 q 772 198 686 90 q 859 490 859 307 q 772 782 859 674 q 536 889 686 889 m 593 1093 q 582 1081 593 1093 q 536 1069 570 1069 q 479 1093 503 1069 q 456 1150 456 1116 q 479 1207 456 1184 q 536 1231 503 1231 q 593 1207 570 1231 q 617 1150 617 1184 q 593 1093 617 1116 m 765 1398 l 765 1310 l 308 1310 l 308 1398 l 765 1398 z "},"ȱ":{"ha":821,"x_min":73,"x_max":747,"o":"m 657 89 q 612 38 657 89 q 410 -13 566 -13 q 164 89 254 -13 q 73 366 73 190 q 163 643 73 542 q 410 744 254 744 q 657 643 567 744 q 747 366 747 542 q 657 89 747 190 m 250 164 q 278 128 250 164 q 410 92 307 92 q 570 164 514 92 q 627 366 627 235 q 570 567 627 496 q 410 639 514 639 q 250 567 307 639 q 194 366 194 496 q 250 164 194 235 m 468 856 q 456 844 468 856 q 410 833 444 833 q 353 856 376 833 q 330 913 330 880 q 353 971 330 947 q 410 994 376 994 q 468 971 444 994 q 491 913 491 947 q 468 856 491 880 m 639 1191 l 639 1099 l 182 1099 l 182 1191 l 639 1191 z "},"Ȳ":{"ha":911,"x_min":47,"x_max":864,"o":"m 517 0 l 395 0 l 395 421 l 47 979 l 186 979 l 450 544 l 461 544 l 725 979 l 864 979 l 517 421 l 517 0 m 684 1191 l 684 1099 l 227 1099 l 227 1191 l 684 1191 z "},"ȳ":{"ha":754,"x_min":46,"x_max":708,"o":"m 172 -264 q 120 -260 144 -264 l 120 -161 q 169 -164 138 -164 q 250 -137 220 -164 q 303 -44 280 -110 l 317 -1 l 46 731 l 172 731 l 373 130 l 384 130 l 584 731 l 708 731 l 422 -45 q 323 -218 376 -172 q 172 -264 270 -264 m 602 964 l 602 872 l 145 872 l 145 964 l 602 964 z "},"ȷ":{"ha":342,"x_min":-15,"x_max":229,"o":"m 229 731 l 229 -36 q 175 -200 229 -149 q 5 -251 121 -251 l -15 -251 l -15 -151 l 3 -151 q 88 -125 64 -151 q 113 -38 113 -100 l 113 731 l 229 731 z "},"ʼ":{"ha":410,"x_min":122,"x_max":316,"o":"m 207 613 l 122 613 l 184 979 l 316 979 l 207 613 z "},"ˆ":{"ha":742,"x_min":111,"x_max":631,"o":"m 439 1063 l 631 833 l 496 833 l 376 987 l 366 987 l 245 833 l 111 833 l 302 1063 l 439 1063 z "},"ˇ":{"ha":742,"x_min":111,"x_max":631,"o":"m 439 833 l 302 833 l 111 1063 l 245 1063 l 366 909 l 376 909 l 496 1063 l 631 1063 l 439 833 z "},"˘":{"ha":711,"x_min":109,"x_max":602,"o":"m 109 1055 l 213 1055 q 251 957 213 995 q 355 920 288 920 q 460 957 422 920 q 498 1055 498 995 l 602 1055 q 536 895 602 957 q 355 833 469 833 q 175 895 241 833 q 109 1055 109 957 z "},"˙":{"ha":711,"x_min":269,"x_max":442,"o":"m 416 898 q 404 886 416 898 q 355 873 391 873 q 294 898 320 873 q 269 960 269 924 q 294 1020 269 995 q 355 1046 319 1046 q 417 1020 391 1046 q 442 960 442 995 q 416 898 442 924 z "},"˚":{"ha":742,"x_min":214,"x_max":528,"o":"m 482 878 q 459 855 482 878 q 371 833 436 833 q 260 878 306 833 q 214 988 214 923 q 260 1098 214 1053 q 371 1143 306 1143 q 482 1098 436 1143 q 528 988 528 1053 q 482 878 528 923 m 312 928 q 324 917 312 928 q 371 905 336 905 q 430 928 406 905 q 454 988 454 952 q 430 1048 454 1024 q 371 1072 406 1072 q 312 1048 336 1072 q 288 988 288 1024 q 312 928 288 952 z "},"˛":{"ha":711,"x_min":242,"x_max":482,"o":"m 476 -196 l 476 -281 q 401 -293 445 -293 q 285 -258 328 -293 q 242 -164 242 -223 q 270 -82 242 -122 q 368 12 298 -41 l 482 12 q 377 -79 405 -47 q 349 -144 349 -112 q 369 -187 349 -172 q 427 -202 390 -202 q 476 -196 460 -202 z "},"˜":{"ha":741,"x_min":114,"x_max":627,"o":"m 469 857 q 413 867 439 857 q 370 894 387 878 q 337 926 352 910 q 307 952 322 941 q 277 963 292 963 q 225 939 241 963 q 210 857 210 914 l 114 857 q 156 1001 114 949 q 271 1054 197 1054 q 327 1043 301 1054 q 371 1017 353 1032 q 404 985 389 1001 q 434 958 418 969 q 464 947 449 947 q 515 972 500 947 q 530 1054 530 996 l 627 1054 q 585 909 627 962 q 469 857 543 857 z "},"˝":{"ha":711,"x_min":58,"x_max":642,"o":"m 329 857 l 500 1086 l 642 1086 l 452 857 l 329 857 m 58 857 l 229 1086 l 371 1086 l 181 857 l 58 857 z "},"̀":{"ha":0,"x_min":-237,"x_max":83,"o":"m 83 857 l -49 857 l -237 1086 l -88 1086 l 83 857 z "},"́":{"ha":0,"x_min":-77,"x_max":243,"o":"m 54 857 l -77 857 l 94 1086 l 243 1086 l 54 857 z "},"̂":{"ha":0,"x_min":-260,"x_max":260,"o":"m 68 1063 l 260 833 l 125 833 l 5 987 l -5 987 l -125 833 l -260 833 l -68 1063 l 68 1063 z "},"̃":{"ha":0,"x_min":-256,"x_max":256,"o":"m 99 835 q 43 846 69 835 q -1 872 17 857 q -33 904 -18 888 q -63 930 -48 920 q -94 941 -79 941 q -145 917 -130 941 q -160 835 -160 892 l -256 835 q -215 980 -256 927 q -99 1032 -173 1032 q -43 1021 -69 1032 q 1 995 -17 1010 q 33 963 18 979 q 63 937 48 947 q 94 926 79 926 q 145 950 130 926 q 160 1032 160 975 l 256 1032 q 215 887 256 940 q 99 835 173 835 z "},"̄":{"ha":0,"x_min":-229,"x_max":229,"o":"m 229 964 l 229 872 l -229 872 l -229 964 l 229 964 z "},"̆":{"ha":0,"x_min":-248,"x_max":245,"o":"m -248 1055 l -144 1055 q -106 957 -144 995 q -1 920 -68 920 q 103 957 66 920 q 141 1055 141 995 l 245 1055 q 179 895 245 957 q -1 833 113 833 q -182 895 -115 833 q -248 1055 -248 957 z "},"̇":{"ha":0,"x_min":-87,"x_max":87,"o":"m 61 898 q 48 886 61 898 q 0 873 35 873 q -61 898 -35 873 q -87 960 -87 924 q -61 1020 -87 995 q 0 1046 -36 1046 q 61 1020 36 1046 q 87 960 87 995 q 61 898 87 924 z "},"̈":{"ha":0,"x_min":-219,"x_max":219,"o":"m -79 857 q -91 845 -79 857 q -137 833 -103 833 q -195 857 -171 833 q -219 915 -219 881 q -195 973 -219 949 q -137 997 -171 997 q -79 973 -103 997 q -55 915 -55 949 q -79 857 -55 881 m 195 857 q 183 845 195 857 q 137 833 171 833 q 79 857 103 833 q 55 915 55 881 q 79 973 55 949 q 137 997 103 997 q 195 973 171 997 q 219 915 219 949 q 195 857 219 881 z "},"̉":{"ha":0,"x_min":-98,"x_max":148,"o":"m -98 984 l -98 1067 q -7 1082 -62 1082 q 106 1048 65 1082 q 148 957 148 1015 q 113 869 148 910 q 22 809 77 827 l -29 876 q 25 906 4 886 q 47 949 47 927 q 27 985 47 970 q -21 1000 8 1000 q -98 984 -68 1000 z "},"̊":{"ha":0,"x_min":-157,"x_max":157,"o":"m 111 878 q 88 855 111 878 q 0 833 65 833 q -111 878 -65 833 q -157 988 -157 923 q -111 1098 -157 1053 q 0 1143 -65 1143 q 111 1098 65 1143 q 157 988 157 1053 q 111 878 157 923 m -59 928 q -47 917 -59 928 q 0 905 -35 905 q 59 928 35 905 q 83 988 83 952 q 59 1048 83 1024 q 0 1072 35 1072 q -59 1048 -35 1072 q -83 988 -83 1024 q -59 928 -83 952 z "},"̋":{"ha":0,"x_min":-227,"x_max":357,"o":"m 44 857 l 215 1086 l 357 1086 l 168 857 l 44 857 m -227 857 l -56 1086 l 86 1086 l -104 857 l -227 857 z "},"̌":{"ha":0,"x_min":-260,"x_max":260,"o":"m 68 833 l -68 833 l -260 1063 l -125 1063 l -5 909 l 5 909 l 125 1063 l 260 1063 l 68 833 z "},"̏":{"ha":0,"x_min":-368,"x_max":216,"o":"m -55 857 l -178 857 l -368 1086 l -226 1086 l -55 857 m 216 857 l 93 857 l -97 1086 l 45 1086 l 216 857 z "},"̑":{"ha":0,"x_min":-247,"x_max":247,"o":"m -247 833 q -180 993 -247 931 q 0 1055 -114 1055 q 180 993 114 1055 q 247 833 247 931 l 142 833 q 105 931 142 893 q 0 968 67 968 q -105 931 -67 968 q -142 833 -142 893 l -247 833 z "},"̛":{"ha":0,"x_min":0,"x_max":260,"o":"m 0 659 l 0 753 q 70 724 27 724 q 133 752 114 724 q 152 842 152 779 l 152 947 l 260 947 l 260 809 q 213 679 260 729 q 92 629 167 629 q 0 659 37 629 z "},"̣":{"ha":0,"x_min":-82,"x_max":82,"o":"m 58 -249 q 46 -261 58 -249 q 0 -273 34 -273 q -58 -249 -34 -273 q -82 -191 -82 -224 q -58 -133 -82 -157 q 0 -109 -34 -109 q 58 -133 34 -109 q 82 -191 82 -157 q 58 -249 82 -224 z "},"̤":{"ha":0,"x_min":-219,"x_max":219,"o":"m -79 -269 q -91 -281 -79 -269 q -137 -293 -103 -293 q -195 -269 -171 -293 q -219 -211 -219 -245 q -195 -153 -219 -177 q -137 -129 -171 -129 q -79 -153 -103 -129 q -55 -211 -55 -177 q -79 -269 -55 -245 m 195 -269 q 183 -281 195 -269 q 137 -293 171 -293 q 79 -269 103 -293 q 55 -211 55 -245 q 79 -153 55 -177 q 137 -129 103 -129 q 195 -153 171 -129 q 219 -211 219 -177 q 195 -269 219 -245 z "},"̥":{"ha":0,"x_min":-157,"x_max":157,"o":"m 111 -343 q 88 -366 111 -343 q 0 -389 65 -389 q -111 -343 -65 -389 q -157 -233 -157 -298 q -111 -123 -157 -168 q 0 -78 -65 -78 q 111 -123 65 -78 q 157 -233 157 -168 q 111 -343 157 -298 m -59 -293 q -47 -305 -59 -293 q 0 -317 -35 -317 q 59 -293 35 -317 q 83 -233 83 -269 q 59 -174 83 -197 q 0 -150 35 -150 q -59 -174 -35 -150 q -83 -233 -83 -197 q -59 -293 -83 -269 z "},"̦":{"ha":0,"x_min":-111,"x_max":81,"o":"m 2 -351 l -111 -351 l -42 -96 l 81 -96 l 2 -351 z "},"̧":{"ha":0,"x_min":-102,"x_max":162,"o":"m -80 -159 l -80 -102 l -33 15 l 51 15 l 51 0 l 16 -90 q 124 -119 85 -90 q 162 -200 162 -148 q 118 -293 162 -258 q -3 -328 73 -328 q -102 -316 -61 -328 l -102 -243 q -20 -252 -70 -252 q 61 -203 61 -252 q 37 -169 61 -179 q -40 -159 14 -159 l -80 -159 z "},"̨":{"ha":0,"x_min":-150,"x_max":90,"o":"m 84 -196 l 84 -281 q 9 -293 53 -293 q -107 -258 -64 -293 q -150 -164 -150 -223 q -122 -82 -150 -122 q -24 12 -94 -41 l 90 12 q -15 -79 13 -47 q -43 -144 -43 -112 q -23 -187 -43 -172 q 35 -202 -2 -202 q 84 -196 68 -202 z "},"̭":{"ha":0,"x_min":-259,"x_max":259,"o":"m -56 -94 l 56 -94 l 259 -296 l 122 -296 l 5 -176 l -5 -176 l -122 -296 l -259 -296 l -56 -94 z "},"̮":{"ha":0,"x_min":-247,"x_max":247,"o":"m -247 -91 l -142 -91 q -104 -176 -142 -144 q 0 -208 -66 -208 q 104 -176 66 -208 q 142 -91 142 -144 l 247 -91 q 180 -238 247 -182 q 0 -293 114 -293 q -180 -238 -114 -293 q -247 -91 -247 -182 z "},"̰":{"ha":0,"x_min":-257,"x_max":256,"o":"m 98 -284 q 42 -273 68 -284 q -1 -247 16 -262 q -34 -215 -19 -231 q -64 -189 -49 -199 q -94 -178 -79 -178 q -145 -202 -130 -178 q -161 -284 -161 -227 l -257 -284 q -215 -139 -257 -192 q -100 -87 -174 -87 q -44 -98 -70 -87 q 0 -124 -18 -109 q 33 -156 18 -140 q 63 -182 47 -172 q 93 -193 78 -193 q 144 -169 129 -193 q 159 -87 159 -144 l 256 -87 q 214 -232 256 -179 q 98 -284 172 -284 z "},"̱":{"ha":0,"x_min":-229,"x_max":229,"o":"m 229 -144 l 229 -236 l -229 -236 l -229 -144 l 229 -144 z "},";":{"ha":412,"x_min":79,"x_max":294,"o":"m 206 515 q 144 541 170 515 q 118 603 118 567 q 144 665 118 640 q 206 691 170 691 q 269 665 243 691 q 294 603 294 640 q 269 541 294 567 q 206 515 243 515 m 167 -249 l 79 -249 l 144 137 l 273 137 l 167 -249 z "},"΄":{"ha":621,"x_min":194,"x_max":393,"o":"m 194 857 l 254 1086 l 393 1086 l 302 857 l 194 857 z "},"΅":{"ha":916,"x_min":151,"x_max":764,"o":"m 291 881 q 279 869 291 881 q 233 857 267 857 q 175 881 199 857 q 151 939 151 905 q 175 997 151 972 q 233 1021 199 1021 q 291 997 267 1021 q 315 939 315 972 q 291 881 315 905 m 740 881 q 728 869 740 881 q 682 857 716 857 q 624 881 648 857 q 600 939 600 905 q 624 997 600 972 q 682 1021 648 1021 q 740 997 716 1021 q 764 939 764 972 q 740 881 764 905 m 387 857 l 412 1086 l 545 1086 l 488 857 l 387 857 z "},"Ά":{"ha":936,"x_min":47,"x_max":889,"o":"m 761 0 l 663 280 l 273 280 l 175 0 l 47 0 l 408 979 l 528 979 l 889 0 l 761 0 m 463 821 l 309 384 l 627 384 l 473 821 l 463 821 m 62 749 l 122 979 l 262 979 l 170 749 l 62 749 z "},"·":{"ha":412,"x_min":118,"x_max":294,"o":"m 206 277 q 144 303 170 277 q 118 366 118 330 q 144 428 118 402 q 206 454 170 454 q 269 428 243 454 q 294 366 294 402 q 269 303 294 330 q 206 277 243 277 z "},"Έ":{"ha":1097,"x_min":71,"x_max":1001,"o":"m 1001 110 l 1001 0 l 395 0 l 395 979 l 1001 979 l 1001 869 l 517 869 l 517 555 l 976 555 l 976 446 l 517 446 l 517 110 l 1001 110 m 71 749 l 130 979 l 270 979 l 178 749 l 71 749 z "},"Ή":{"ha":1301,"x_min":71,"x_max":1176,"o":"m 1176 0 l 1054 0 l 1054 446 l 517 446 l 517 0 l 395 0 l 395 979 l 517 979 l 517 555 l 1054 555 l 1054 979 l 1176 979 l 1176 0 m 71 749 l 130 979 l 270 979 l 178 749 l 71 749 z "},"Ί":{"ha":642,"x_min":71,"x_max":517,"o":"m 517 0 l 395 0 l 395 979 l 517 979 l 517 0 m 71 749 l 130 979 l 270 979 l 178 749 l 71 749 z "},"Ό":{"ha":1250,"x_min":71,"x_max":1163,"o":"m 715 1002 q 1043 864 924 1002 q 1163 490 1163 726 q 1043 115 1163 254 q 715 -23 924 -23 q 386 115 506 -23 q 266 490 266 254 q 387 864 266 726 q 715 1002 508 1002 m 715 889 q 479 781 566 889 q 391 490 391 673 q 478 198 391 306 q 715 90 564 90 q 951 198 865 90 q 1038 490 1038 307 q 951 782 1038 674 q 715 889 865 889 m 71 749 l 130 979 l 270 979 l 178 749 l 71 749 z "},"Ύ":{"ha":1181,"x_min":71,"x_max":1134,"o":"m 787 0 l 665 0 l 665 421 l 317 979 l 456 979 l 720 544 l 731 544 l 995 979 l 1134 979 l 787 421 l 787 0 m 71 749 l 130 979 l 270 979 l 178 749 l 71 749 z "},"Ώ":{"ha":1261,"x_min":71,"x_max":1169,"o":"m 1044 538 q 958 795 1044 701 q 722 889 871 889 q 486 795 572 889 q 399 538 399 701 q 456 310 399 407 q 631 138 512 212 l 631 0 l 274 0 l 274 110 l 485 110 l 485 121 q 330 295 385 184 q 274 541 274 406 q 397 874 274 747 q 722 1002 521 1002 q 1046 874 922 1002 q 1169 541 1169 747 q 1114 295 1169 406 q 958 121 1058 184 l 958 110 l 1169 110 l 1169 0 l 812 0 l 812 138 q 987 310 931 212 q 1044 538 1044 407 m 71 749 l 130 979 l 270 979 l 178 749 l 71 749 z "},"ΐ":{"ha":416,"x_min":-124,"x_max":489,"o":"m 110 731 l 227 731 l 227 220 q 252 126 227 156 q 334 97 277 97 q 376 100 348 97 l 376 1 q 312 -5 344 -5 q 156 41 203 -5 q 110 191 110 88 l 110 731 m 16 881 q 4 869 16 881 q -42 857 -8 857 q -100 881 -76 857 q -124 939 -124 905 q -100 997 -124 972 q -42 1021 -76 1021 q 16 997 -8 1021 q 40 939 40 972 q 16 881 40 905 m 465 881 q 453 869 465 881 q 407 857 441 857 q 349 881 373 857 q 325 939 325 905 q 349 997 325 972 q 407 1021 373 1021 q 465 997 441 1021 q 489 939 489 972 q 465 881 489 905 m 111 857 l 136 1086 l 269 1086 l 212 857 l 111 857 z "},"Α":{"ha":936,"x_min":47,"x_max":889,"o":"m 761 0 l 663 280 l 273 280 l 175 0 l 47 0 l 408 979 l 528 979 l 889 0 l 761 0 m 463 821 l 309 384 l 627 384 l 473 821 l 463 821 z "},"Β":{"ha":913,"x_min":125,"x_max":838,"o":"m 507 0 l 125 0 l 125 979 l 499 979 q 711 913 633 979 q 789 734 789 847 q 740 597 789 659 q 620 524 690 536 l 620 513 q 779 436 720 500 q 838 275 838 372 q 750 73 838 145 q 507 0 663 0 m 247 871 l 247 557 l 442 557 q 665 713 665 557 q 615 829 665 788 q 473 871 564 871 l 247 871 m 247 108 l 488 108 q 656 152 599 108 q 713 281 713 196 q 477 452 713 452 l 247 452 l 247 108 z "},"Γ":{"ha":781,"x_min":125,"x_max":705,"o":"m 247 0 l 125 0 l 125 979 l 705 979 l 705 869 l 247 869 l 247 0 z "},"Δ":{"ha":945,"x_min":70,"x_max":876,"o":"m 876 0 l 70 0 l 70 86 l 412 979 l 533 979 l 876 86 l 876 0 m 208 121 l 208 110 l 737 110 l 737 121 l 478 827 l 467 827 l 208 121 z "},"Ε":{"ha":827,"x_min":125,"x_max":731,"o":"m 731 110 l 731 0 l 125 0 l 125 979 l 731 979 l 731 869 l 247 869 l 247 555 l 706 555 l 706 446 l 247 446 l 247 110 l 731 110 z "},"Ζ":{"ha":919,"x_min":98,"x_max":821,"o":"m 98 0 l 98 87 l 652 858 l 652 869 l 117 869 l 117 979 l 810 979 l 810 892 l 258 121 l 258 110 l 821 110 l 821 0 l 98 0 z "},"Η":{"ha":1031,"x_min":125,"x_max":906,"o":"m 906 0 l 784 0 l 784 446 l 247 446 l 247 0 l 125 0 l 125 979 l 247 979 l 247 555 l 784 555 l 784 979 l 906 979 l 906 0 z "},"Θ":{"ha":1084,"x_min":87,"x_max":998,"o":"m 747 433 l 337 433 l 337 543 l 747 543 l 747 433 m 543 1002 q 876 867 754 1002 q 998 490 998 732 q 876 112 998 247 q 543 -23 755 -23 q 209 112 331 -23 q 87 490 87 247 q 210 867 87 732 q 543 1002 333 1002 m 784 785 q 740 837 784 785 q 543 889 696 889 q 301 785 391 889 q 212 490 212 680 q 301 194 212 299 q 543 90 389 90 q 784 195 696 90 q 872 490 872 300 q 784 785 872 681 z "},"Ι":{"ha":372,"x_min":125,"x_max":247,"o":"m 247 0 l 125 0 l 125 979 l 247 979 l 247 0 z "},"Κ":{"ha":915,"x_min":125,"x_max":876,"o":"m 247 0 l 125 0 l 125 979 l 247 979 l 247 503 l 258 503 l 686 979 l 840 979 l 448 556 l 876 0 l 718 0 l 364 471 l 247 342 l 247 0 z "},"Λ":{"ha":928,"x_min":56,"x_max":871,"o":"m 743 0 l 469 814 l 458 814 l 184 0 l 56 0 l 404 979 l 524 979 l 871 0 l 743 0 z "},"Μ":{"ha":1214,"x_min":125,"x_max":1089,"o":"m 1089 0 l 975 0 l 975 747 l 967 747 l 659 7 l 555 7 l 247 747 l 239 747 l 239 0 l 125 0 l 125 979 l 267 979 l 602 169 l 612 169 l 947 979 l 1089 979 l 1089 0 z "},"Ν":{"ha":1031,"x_min":125,"x_max":906,"o":"m 245 0 l 125 0 l 125 979 l 243 979 l 774 217 l 785 217 l 785 979 l 906 979 l 906 0 l 787 0 l 256 759 l 245 759 l 245 0 z "},"Ξ":{"ha":911,"x_min":96,"x_max":814,"o":"m 96 979 l 814 979 l 814 865 l 96 865 l 96 979 m 755 443 l 155 443 l 155 555 l 755 555 l 755 443 m 96 113 l 814 113 l 814 0 l 96 0 l 96 113 z "},"Ο":{"ha":1071,"x_min":87,"x_max":984,"o":"m 536 1002 q 864 864 745 1002 q 984 490 984 726 q 864 115 984 254 q 536 -23 745 -23 q 207 115 327 -23 q 87 490 87 254 q 208 864 87 726 q 536 1002 329 1002 m 536 889 q 300 781 387 889 q 212 490 212 673 q 299 198 212 306 q 536 90 385 90 q 772 198 686 90 q 859 490 859 307 q 772 782 859 674 q 536 889 686 889 z "},"Π":{"ha":1017,"x_min":125,"x_max":892,"o":"m 892 0 l 770 0 l 770 869 l 247 869 l 247 0 l 125 0 l 125 979 l 892 979 l 892 0 z "},"Ρ":{"ha":882,"x_min":125,"x_max":808,"o":"m 125 979 l 494 979 q 721 890 633 979 q 808 662 808 802 q 719 437 808 525 q 493 349 631 349 l 247 349 l 247 0 l 125 0 l 125 979 m 247 870 l 247 458 l 463 458 q 625 511 567 458 q 682 662 682 565 q 626 817 682 763 q 463 870 569 870 l 247 870 z "},"Σ":{"ha":905,"x_min":98,"x_max":808,"o":"m 252 121 l 252 110 l 808 110 l 808 0 l 98 0 l 98 90 l 382 492 l 109 876 l 109 979 l 795 979 l 795 869 l 267 869 l 267 858 l 509 511 l 509 490 l 252 121 z "},"Τ":{"ha":880,"x_min":64,"x_max":817,"o":"m 501 0 l 379 0 l 379 869 l 64 869 l 64 979 l 817 979 l 817 869 l 501 869 l 501 0 z "},"Υ":{"ha":911,"x_min":47,"x_max":864,"o":"m 517 0 l 395 0 l 395 421 l 47 979 l 186 979 l 450 544 l 461 544 l 725 979 l 864 979 l 517 421 l 517 0 z "},"Φ":{"ha":1164,"x_min":80,"x_max":1084,"o":"m 873 255 q 916 297 873 255 q 959 487 959 338 q 873 719 959 635 q 643 807 787 802 l 643 167 q 873 255 787 172 m 291 719 q 248 677 291 719 q 205 487 205 635 q 291 255 205 338 q 521 167 376 172 l 521 807 q 291 719 376 802 m 643 -39 l 521 -39 l 521 58 q 200 182 321 67 q 80 487 80 297 q 200 792 80 677 q 521 916 321 907 l 521 1015 l 643 1015 l 643 916 q 963 792 843 907 q 1084 487 1084 677 q 963 182 1084 297 q 643 58 843 67 l 643 -39 z "},"Χ":{"ha":943,"x_min":61,"x_max":882,"o":"m 61 0 l 396 492 l 65 979 l 212 979 l 470 589 l 481 589 l 743 979 l 882 979 l 543 487 l 874 0 l 728 0 l 471 386 l 460 386 l 199 0 l 61 0 z "},"Ψ":{"ha":1137,"x_min":115,"x_max":1022,"o":"m 629 0 l 507 0 l 507 230 q 223 335 331 231 q 115 609 115 439 l 115 979 l 237 979 l 237 613 q 307 415 237 486 q 507 342 377 345 l 507 979 l 629 979 l 629 342 q 830 415 760 345 q 900 613 900 486 l 900 979 l 1022 979 l 1022 609 q 914 334 1022 439 q 629 230 806 230 l 629 0 z "},"Ω":{"ha":1078,"x_min":92,"x_max":987,"o":"m 861 538 q 775 795 861 701 q 539 889 689 889 q 303 795 389 889 q 217 538 217 701 q 273 310 217 407 q 448 138 330 212 l 448 0 l 92 0 l 92 110 l 302 110 l 302 121 q 147 295 203 184 q 92 541 92 406 q 215 874 92 747 q 539 1002 338 1002 q 863 874 740 1002 q 987 541 987 747 q 931 295 987 406 q 776 121 876 184 l 776 110 l 987 110 l 987 0 l 630 0 l 630 138 q 805 310 749 212 q 861 538 861 407 z "},"Ϊ":{"ha":372,"x_min":-33,"x_max":405,"o":"m 247 0 l 125 0 l 125 979 l 247 979 l 247 0 m 107 1092 q 95 1080 107 1092 q 49 1068 83 1068 q -9 1092 15 1068 q -33 1150 -33 1116 q -9 1208 -33 1184 q 49 1232 15 1232 q 107 1208 83 1232 q 131 1150 131 1184 q 107 1092 131 1116 m 381 1092 q 369 1080 381 1092 q 323 1068 357 1068 q 265 1092 289 1068 q 241 1150 241 1116 q 265 1208 241 1184 q 323 1232 289 1232 q 381 1208 357 1232 q 405 1150 405 1184 q 381 1092 405 1116 z "},"Ϋ":{"ha":911,"x_min":47,"x_max":864,"o":"m 517 0 l 395 0 l 395 421 l 47 979 l 186 979 l 450 544 l 461 544 l 725 979 l 864 979 l 517 421 l 517 0 m 377 1092 q 365 1080 377 1092 q 319 1068 353 1068 q 261 1092 285 1068 q 237 1150 237 1116 q 261 1208 237 1184 q 319 1232 285 1232 q 377 1208 353 1232 q 401 1150 401 1184 q 377 1092 401 1116 m 651 1092 q 639 1080 651 1092 q 593 1068 627 1068 q 535 1092 559 1068 q 511 1150 511 1116 q 535 1208 511 1184 q 593 1232 559 1232 q 651 1208 627 1232 q 675 1150 675 1184 q 651 1092 675 1116 z "},"ά":{"ha":858,"x_min":66,"x_max":810,"o":"m 380 92 q 542 166 481 92 q 602 366 602 241 q 546 564 602 488 q 395 639 490 639 q 243 566 299 639 q 187 366 187 493 q 240 166 187 240 q 380 92 292 92 m 371 -13 q 150 90 233 -13 q 66 366 66 193 q 150 641 66 537 q 371 744 234 744 q 593 595 536 744 l 604 595 l 604 731 l 716 731 l 716 182 q 730 115 716 134 q 777 96 745 96 q 810 98 795 96 l 810 0 q 751 -7 786 -7 q 649 26 686 -7 q 604 122 611 58 l 604 129 l 593 129 q 371 -13 533 -13 m 323 857 l 383 1086 l 523 1086 l 431 857 l 323 857 z "},"έ":{"ha":717,"x_min":73,"x_max":695,"o":"m 374 -14 q 154 44 235 -14 q 73 196 73 103 q 199 359 73 317 l 199 370 q 87 529 87 415 q 166 685 87 627 q 374 743 246 743 q 586 687 508 743 q 681 527 665 632 l 563 527 q 500 609 549 581 q 374 637 451 637 q 248 608 296 637 q 200 526 200 578 q 242 449 200 477 q 362 420 283 420 l 466 420 l 466 315 l 362 315 q 237 285 281 315 q 194 204 194 255 q 241 122 194 152 q 374 92 288 92 q 507 126 452 92 q 577 220 562 161 l 695 220 q 638 99 684 153 q 524 16 593 45 q 374 -14 455 -14 m 326 857 l 385 1086 l 525 1086 l 433 857 l 326 857 z "},"ή":{"ha":852,"x_min":58,"x_max":749,"o":"m 749 -244 l 633 -244 l 633 445 q 465 639 633 639 q 326 583 376 639 q 275 433 275 527 l 275 0 l 159 0 l 159 549 q 143 617 159 598 q 91 635 128 635 q 58 633 73 635 l 58 731 q 120 738 82 738 q 220 710 181 738 q 267 628 258 682 l 269 616 l 280 616 q 365 710 307 675 q 498 744 422 744 q 684 673 618 744 q 749 473 749 603 l 749 -244 m 321 857 l 380 1086 l 520 1086 l 429 857 l 321 857 z "},"ί":{"ha":416,"x_min":109,"x_max":376,"o":"m 110 731 l 227 731 l 227 220 q 252 126 227 156 q 334 97 277 97 q 376 100 348 97 l 376 1 q 312 -5 344 -5 q 156 41 203 -5 q 110 191 110 88 l 110 731 m 109 857 l 168 1086 l 308 1086 l 216 857 l 109 857 z "},"ΰ":{"ha":770,"x_min":75,"x_max":690,"o":"m 389 -13 q 178 62 255 -13 q 100 281 100 137 l 100 731 l 217 731 l 217 288 q 261 142 217 191 q 386 94 305 94 q 519 163 469 94 q 569 361 569 233 q 555 557 569 485 q 500 731 542 629 l 621 731 q 671 570 652 667 q 690 378 690 473 q 611 89 690 191 q 389 -13 533 -13 m 215 881 q 203 869 215 881 q 157 857 191 857 q 99 881 123 857 q 75 939 75 905 q 99 997 75 972 q 157 1021 123 1021 q 215 997 191 1021 q 239 939 239 972 q 215 881 239 905 m 664 881 q 652 869 664 881 q 606 857 640 857 q 548 881 572 857 q 524 939 524 905 q 548 997 524 972 q 606 1021 572 1021 q 664 997 640 1021 q 688 939 688 972 q 664 881 688 905 m 311 857 l 336 1086 l 469 1086 l 412 857 l 311 857 z "},"α":{"ha":858,"x_min":66,"x_max":810,"o":"m 380 92 q 542 166 481 92 q 602 366 602 241 q 546 564 602 488 q 395 639 490 639 q 243 566 299 639 q 187 366 187 493 q 240 166 187 240 q 380 92 292 92 m 371 -13 q 150 90 233 -13 q 66 366 66 193 q 150 641 66 537 q 371 744 234 744 q 593 595 536 744 l 604 595 l 604 731 l 716 731 l 716 182 q 730 115 716 134 q 777 96 745 96 q 810 98 795 96 l 810 0 q 751 -7 786 -7 q 649 26 686 -7 q 604 122 611 58 l 604 129 l 593 129 q 371 -13 533 -13 z "},"β":{"ha":840,"x_min":110,"x_max":766,"o":"m 340 498 l 340 603 l 401 603 q 534 645 487 603 q 581 766 581 687 q 535 885 581 840 q 414 929 489 929 q 274 868 321 929 q 227 686 227 806 l 227 345 q 290 161 227 229 q 456 92 353 92 q 591 149 536 92 q 646 292 646 206 q 583 446 646 393 q 400 498 520 498 l 340 498 m 110 698 q 189 946 110 857 q 410 1034 268 1034 q 618 964 538 1034 q 699 773 699 893 q 662 650 699 705 q 560 567 625 595 l 560 556 q 714 465 661 531 q 766 296 766 398 q 681 74 766 160 q 462 -13 595 -13 q 323 20 381 -13 q 237 110 265 52 l 227 110 l 227 -244 l 110 -244 l 110 698 z "},"γ":{"ha":756,"x_min":49,"x_max":673,"o":"m 407 -237 l 290 -237 l 290 -14 l 49 731 l 174 731 l 359 106 l 370 106 q 555 597 555 365 q 543 731 555 675 l 660 731 q 673 597 673 665 q 609 313 673 463 q 407 -19 545 162 l 407 -237 z "},"δ":{"ha":796,"x_min":62,"x_max":730,"o":"m 398 -13 q 154 84 245 -13 q 62 336 62 180 q 137 558 62 467 q 324 671 212 649 l 324 684 q 218 764 249 725 q 188 859 188 803 q 257 986 188 939 q 431 1034 327 1034 q 657 979 575 1034 l 657 876 q 426 932 547 932 q 336 911 368 932 q 304 854 304 891 q 332 796 304 822 q 448 728 360 770 q 661 566 593 659 q 730 342 730 472 q 635 86 730 184 q 398 -13 541 -13 m 398 90 q 551 158 492 90 q 610 342 610 227 q 548 527 610 455 q 394 599 487 599 q 243 530 304 599 q 182 342 182 460 q 242 158 182 227 q 398 90 302 90 z "},"ε":{"ha":717,"x_min":73,"x_max":695,"o":"m 374 -13 q 154 46 235 -13 q 73 197 73 104 q 199 360 73 318 l 199 371 q 87 530 87 416 q 166 686 87 628 q 374 744 246 744 q 586 689 508 744 q 681 528 665 633 l 563 528 q 500 610 549 582 q 374 639 451 639 q 248 609 296 639 q 200 527 200 579 q 242 450 200 479 q 362 421 283 421 l 466 421 l 466 317 l 362 317 q 237 287 281 317 q 194 205 194 256 q 241 123 194 153 q 374 93 288 93 q 507 127 452 93 q 577 221 562 162 l 695 221 q 638 100 684 154 q 524 17 593 47 q 374 -13 455 -13 z "},"ζ":{"ha":623,"x_min":59,"x_max":618,"o":"m 552 -245 l 456 -216 q 504 -84 504 -138 q 476 -15 504 -38 q 358 39 448 9 q 126 173 193 93 q 59 392 59 253 q 410 906 59 659 l 410 917 l 118 917 l 118 1021 l 600 1021 l 600 918 q 281 659 382 785 q 180 392 180 534 q 227 240 180 294 q 402 144 274 186 q 572 58 527 103 q 618 -66 618 13 q 552 -245 618 -152 z "},"η":{"ha":852,"x_min":58,"x_max":749,"o":"m 749 -244 l 633 -244 l 633 445 q 465 639 633 639 q 326 583 376 639 q 275 433 275 527 l 275 0 l 159 0 l 159 549 q 143 617 159 598 q 91 635 128 635 q 58 633 73 635 l 58 731 q 120 738 82 738 q 220 710 181 738 q 267 628 258 682 l 269 616 l 280 616 q 365 710 307 675 q 498 744 422 744 q 684 673 618 744 q 749 473 749 603 l 749 -244 z "},"θ":{"ha":818,"x_min":73,"x_max":745,"o":"m 409 -13 q 160 121 247 -13 q 73 510 73 256 q 160 901 73 767 q 409 1034 247 1034 q 657 901 570 1034 q 745 508 745 768 q 657 121 745 254 q 409 -13 570 -13 m 252 180 q 279 136 252 180 q 409 92 306 92 q 566 180 512 92 q 625 465 619 268 l 193 465 q 252 180 199 268 m 194 570 l 624 570 q 562 843 616 757 q 409 929 507 929 q 256 842 310 929 q 194 570 202 755 z "},"ι":{"ha":416,"x_min":110,"x_max":376,"o":"m 110 731 l 227 731 l 227 220 q 252 126 227 156 q 334 97 277 97 q 376 100 348 97 l 376 1 q 312 -5 344 -5 q 156 41 203 -5 q 110 191 110 88 l 110 731 z "},"κ":{"ha":798,"x_min":110,"x_max":734,"o":"m 110 0 l 110 731 l 227 731 l 227 366 l 237 366 l 451 616 q 554 712 511 687 q 653 738 596 738 q 709 731 684 738 l 709 633 q 669 635 692 635 q 602 616 630 635 q 525 541 573 597 l 442 442 l 734 0 l 602 0 l 370 360 l 227 203 l 227 0 l 110 0 z "},"λ":{"ha":770,"x_min":17,"x_max":726,"o":"m 17 0 l 309 690 l 284 757 q 247 851 261 820 q 215 902 233 882 q 178 927 197 922 q 127 932 160 932 q 96 929 117 932 l 96 1027 q 156 1034 121 1034 q 256 1013 217 1034 q 327 937 295 991 q 394 779 358 884 l 602 170 q 637 113 615 130 q 694 96 659 96 q 726 98 709 96 l 726 0 q 675 -7 702 -7 q 561 25 599 -7 q 493 146 522 57 l 363 543 l 352 543 l 143 0 l 17 0 z "},"ν":{"ha":756,"x_min":49,"x_max":673,"o":"m 286 0 l 49 731 l 174 731 l 359 106 l 370 106 q 555 597 555 368 q 543 731 555 672 l 660 731 q 673 599 673 665 q 421 0 673 338 l 286 0 z "},"ξ":{"ha":644,"x_min":60,"x_max":618,"o":"m 553 -245 l 457 -216 q 494 -142 484 -171 q 505 -85 505 -113 q 494 -35 505 -54 q 450 2 484 -16 q 349 42 417 20 q 126 154 193 92 q 60 307 60 216 q 110 447 60 389 q 255 532 160 505 l 255 542 q 138 620 174 574 q 102 736 102 665 q 144 846 102 798 q 252 907 186 893 l 252 917 l 105 917 l 105 1021 l 601 1021 l 601 928 l 531 921 q 288 858 361 903 q 214 734 214 812 q 272 631 214 665 q 460 597 330 597 l 551 597 l 551 493 l 458 493 q 253 447 326 493 q 180 323 180 401 q 198 253 180 281 q 265 198 216 224 q 407 142 314 172 q 573 57 528 104 q 618 -64 618 11 q 605 -148 618 -110 q 553 -245 591 -186 z "},"ο":{"ha":787,"x_min":66,"x_max":720,"o":"m 631 89 q 586 38 631 89 q 393 -13 542 -13 q 156 89 245 -13 q 66 366 66 191 q 156 643 66 541 q 393 744 245 744 q 631 643 541 744 q 720 366 720 541 q 631 89 720 191 m 242 165 q 270 129 242 165 q 393 92 298 92 q 544 165 489 92 q 600 366 600 237 q 544 567 600 494 q 393 639 488 639 q 243 567 298 639 q 187 366 187 494 q 242 165 187 237 z "},"π":{"ha":931,"x_min":47,"x_max":858,"o":"m 201 0 l 201 627 l 47 627 l 47 731 l 858 731 l 858 627 l 715 627 l 715 182 q 732 114 715 132 q 793 96 749 96 q 827 98 809 96 l 827 0 q 764 -7 801 -7 q 640 38 677 -7 q 602 182 602 83 l 602 627 l 315 627 l 315 0 l 201 0 z "},"ρ":{"ha":826,"x_min":103,"x_max":760,"o":"m 425 92 q 582 167 524 92 q 639 377 639 242 q 583 570 639 501 q 429 639 527 639 q 274 563 332 639 q 216 355 216 488 q 275 165 216 239 q 425 92 334 92 m 103 -244 l 103 368 q 191 644 103 545 q 429 744 279 744 q 670 644 581 744 q 760 376 760 545 q 675 92 760 197 q 451 -13 591 -13 q 320 20 380 -13 q 231 110 260 52 l 220 110 l 220 -244 l 103 -244 z "},"ς":{"ha":750,"x_min":66,"x_max":688,"o":"m 625 -65 q 559 -244 625 -151 l 464 -216 q 511 -83 511 -138 q 484 -16 511 -40 q 364 39 456 8 q 132 172 198 96 q 66 380 66 248 q 159 645 66 546 q 394 744 252 744 q 593 681 516 744 q 688 507 670 618 l 570 507 q 508 607 551 574 q 391 639 466 639 q 246 570 305 639 q 187 386 187 501 q 197 297 187 333 q 235 234 208 262 q 302 186 262 206 q 408 144 342 167 q 579 58 534 102 q 625 -65 625 14 z "},"σ":{"ha":880,"x_min":66,"x_max":813,"o":"m 392 -13 q 156 89 245 -13 q 66 362 66 191 q 165 631 66 532 q 430 731 263 731 l 813 731 l 813 627 l 609 627 l 609 616 q 688 510 659 578 q 717 363 717 443 q 626 91 717 195 q 392 -13 535 -13 m 392 92 q 545 164 488 92 q 603 361 603 237 q 544 554 603 481 q 399 626 484 626 q 246 554 304 626 q 187 361 187 481 q 243 164 187 235 q 392 92 299 92 z "},"τ":{"ha":707,"x_min":41,"x_max":641,"o":"m 487 -5 q 322 40 371 -5 q 273 191 273 85 l 273 627 l 41 627 l 41 731 l 641 731 l 641 627 l 390 627 l 390 220 q 416 126 390 155 q 501 97 441 97 q 553 100 526 97 l 553 1 q 487 -5 517 -5 z "},"υ":{"ha":770,"x_min":100,"x_max":690,"o":"m 389 -13 q 178 62 255 -13 q 100 281 100 137 l 100 731 l 217 731 l 217 288 q 261 142 217 191 q 386 94 305 94 q 519 163 469 94 q 569 361 569 233 q 555 557 569 485 q 500 731 542 629 l 621 731 q 671 570 652 667 q 690 378 690 473 q 611 89 690 191 q 389 -13 533 -13 z "},"φ":{"ha":997,"x_min":66,"x_max":930,"o":"m 442 -244 l 442 -12 q 164 102 262 0 q 66 366 66 205 q 95 523 66 453 q 175 640 124 593 q 294 712 226 686 q 442 743 361 738 l 442 920 l 555 920 l 555 743 q 703 712 635 738 q 822 640 771 686 q 902 523 873 593 q 930 366 930 453 q 833 102 930 205 q 555 -12 735 0 l 555 -244 l 442 -244 m 555 85 q 747 175 682 100 q 812 366 812 250 q 743 560 812 488 q 555 644 673 632 l 555 85 m 442 85 l 442 644 q 254 560 323 632 q 184 366 184 488 q 250 175 184 250 q 442 85 315 100 z "},"χ":{"ha":743,"x_min":25,"x_max":716,"o":"m 44 -244 l 311 243 l 154 559 q 110 618 133 602 q 52 635 87 635 q 25 633 39 635 l 25 731 q 79 738 50 738 q 179 709 143 738 q 254 602 215 680 l 376 355 l 387 355 l 576 731 l 701 731 l 433 237 l 588 -74 q 631 -132 608 -115 q 690 -149 654 -149 q 716 -146 701 -149 l 716 -244 q 662 -251 692 -251 q 566 -225 603 -251 q 496 -133 530 -199 l 367 125 l 356 125 l 168 -244 l 44 -244 z "},"ψ":{"ha":937,"x_min":100,"x_max":857,"o":"m 413 -244 l 413 -13 q 183 72 265 -8 q 100 283 100 153 l 100 731 l 217 731 l 217 298 q 270 149 217 201 q 413 94 323 96 l 413 920 l 526 920 l 526 94 q 682 166 627 97 q 736 367 736 235 q 721 564 736 482 q 667 731 705 646 l 788 731 q 837 574 817 672 q 857 389 857 475 q 768 98 857 203 q 526 -13 678 -7 l 526 -244 l 413 -244 z "},"ω":{"ha":1059,"x_min":80,"x_max":979,"o":"m 730 -13 q 535 137 594 -13 l 524 137 q 329 -13 465 -13 q 146 80 212 -13 q 80 343 80 173 q 112 558 80 454 q 200 731 144 663 l 328 731 q 201 345 201 561 q 338 94 201 94 q 434 146 397 94 q 471 285 471 198 l 471 522 l 588 522 l 588 285 q 625 146 588 199 q 720 94 663 94 q 859 345 859 94 q 732 731 859 561 l 859 731 q 947 558 915 663 q 979 343 979 454 q 914 80 979 172 q 730 -13 848 -13 z "},"ϊ":{"ha":416,"x_min":-54,"x_max":385,"o":"m 110 731 l 227 731 l 227 220 q 252 126 227 156 q 334 97 277 97 q 376 100 348 97 l 376 1 q 312 -5 344 -5 q 156 41 203 -5 q 110 191 110 88 l 110 731 m 86 857 q 74 845 86 857 q 28 833 62 833 q -30 857 -5 833 q -54 915 -54 881 q -30 973 -54 949 q 28 997 -5 997 q 86 973 62 997 q 111 915 111 949 q 86 857 111 881 m 360 857 q 348 845 360 857 q 302 833 336 833 q 244 857 269 833 q 220 915 220 881 q 244 973 220 949 q 302 997 269 997 q 360 973 336 997 q 385 915 385 949 q 360 857 385 881 z "},"ϋ":{"ha":770,"x_min":100,"x_max":690,"o":"m 389 -13 q 178 62 255 -13 q 100 281 100 137 l 100 731 l 217 731 l 217 288 q 261 142 217 191 q 386 94 305 94 q 519 163 469 94 q 569 361 569 233 q 555 557 569 485 q 500 731 542 629 l 621 731 q 671 570 652 667 q 690 378 690 473 q 611 89 690 191 q 389 -13 533 -13 m 297 857 q 285 845 297 857 q 239 833 273 833 q 181 857 205 833 q 157 915 157 881 q 181 973 157 949 q 239 997 205 997 q 297 973 273 997 q 321 915 321 949 q 297 857 321 881 m 571 857 q 559 845 571 857 q 513 833 547 833 q 455 857 479 833 q 431 915 431 881 q 455 973 431 949 q 513 997 479 997 q 571 973 547 997 q 595 915 595 949 q 571 857 595 881 z "},"ό":{"ha":787,"x_min":66,"x_max":720,"o":"m 631 89 q 586 38 631 89 q 393 -13 542 -13 q 156 89 245 -13 q 66 366 66 191 q 156 643 66 541 q 393 744 245 744 q 631 643 541 744 q 720 366 720 541 q 631 89 720 191 m 242 165 q 270 129 242 165 q 393 92 298 92 q 544 165 489 92 q 600 366 600 237 q 544 567 600 494 q 393 639 488 639 q 243 567 298 639 q 187 366 187 494 q 242 165 187 237 m 326 857 l 385 1086 l 525 1086 l 433 857 l 326 857 z "},"ύ":{"ha":770,"x_min":100,"x_max":690,"o":"m 389 -13 q 178 62 255 -13 q 100 281 100 137 l 100 731 l 217 731 l 217 288 q 261 142 217 191 q 386 94 305 94 q 519 163 469 94 q 569 361 569 233 q 555 557 569 485 q 500 731 542 629 l 621 731 q 671 570 652 667 q 690 378 690 473 q 611 89 690 191 q 389 -13 533 -13 m 308 857 l 368 1086 l 507 1086 l 416 857 l 308 857 z "}}}
